{"glyphs":{"0":{"ha":851,"x_min":63,"x_max":804,"o":"m 399 -12 q 150 72 238 -12 q 63 301 63 156 q 72 404 63 354 q 206 626 99 547 q 478 706 314 706 q 719 625 635 706 q 804 404 804 544 q 794 303 804 353 q 661 72 767 156 q 399 -12 556 -12 m 417 85 q 503 130 465 85 q 557 254 542 175 q 571 396 571 328 q 538 551 571 494 q 446 607 506 607 q 356 560 394 607 q 304 436 318 514 q 292 303 292 364 q 324 142 292 200 q 417 85 357 85 z "},"1":{"ha":597,"x_min":40,"x_max":572,"o":"m 40 -4 q 60 92 43 56 q 115 108 97 97 q 144 144 133 118 q 165 228 154 169 l 210 468 q 218 533 218 508 q 200 581 218 565 q 138 603 182 597 q 132 654 132 633 q 136 699 132 676 q 351 694 200 694 q 572 699 497 694 q 556 603 572 646 q 497 585 515 597 q 469 545 479 574 q 446 447 460 517 l 404 231 q 394 158 394 178 q 411 113 394 128 q 474 92 428 99 q 479 35 479 56 q 476 -4 479 24 q 261 0 403 0 q 40 -4 128 0 z "},"2":{"ha":717,"x_min":24,"x_max":658,"o":"m 410 703 q 263 687 335 703 q 135 638 190 671 q 107 451 132 539 q 240 428 153 428 q 278 569 254 531 q 344 608 301 608 q 401 588 379 608 q 422 529 422 567 q 418 497 422 514 q 372 407 408 449 q 261 308 336 365 q 131 206 175 243 q 25 108 86 169 q 24 88 24 101 q 44 -4 24 35 q 318 0 139 0 q 467 -3 389 0 q 515 -4 488 -4 q 569 7 549 -4 q 601 47 589 18 q 600 79 600 57 q 621 256 600 161 q 579 269 604 264 q 529 274 554 274 q 504 272 513 274 q 481 208 494 225 q 442 192 467 192 q 413 193 424 192 q 349 196 376 196 q 272 194 299 196 q 348 251 318 231 q 407 289 378 271 l 457 319 q 606 428 565 389 q 656 524 646 467 q 658 553 658 543 q 595 664 658 625 q 410 703 532 703 z "},"3":{"ha":701,"x_min":7,"x_max":647,"o":"m 125 638 q 96 451 122 532 q 160 433 124 439 q 232 428 197 426 q 270 568 246 528 q 338 608 294 608 q 397 583 375 608 q 418 517 418 558 q 414 481 418 500 q 344 365 400 408 q 188 296 289 322 q 185 267 185 279 q 203 199 185 221 q 328 164 283 201 q 372 63 372 126 q 367 17 372 47 q 299 -97 351 -57 q 167 -137 247 -137 q 50 -115 93 -137 q 23 -151 38 -122 q 7 -197 8 -179 q 175 -237 60 -237 q 448 -164 332 -237 q 597 38 564 -90 q 607 111 607 72 q 569 238 607 182 q 461 321 531 293 q 588 403 549 361 q 642 500 628 446 q 647 547 647 522 q 583 662 647 621 q 392 703 518 703 q 125 638 243 703 z "},"4":{"ha":817,"x_min":10,"x_max":731,"o":"m 731 146 q 686 0 704 88 l 581 0 l 540 -212 q 492 -210 507 -210 q 349 -237 417 -210 q 315 -187 315 -222 q 317 -168 315 -175 l 349 -1 q 40 -7 118 -4 q 14 118 10 47 q 565 703 347 461 q 710 682 651 703 l 615 185 l 674 185 q 731 146 717 185 m 456 461 q 192 179 354 328 l 392 179 l 407 260 q 431 370 419 321 q 456 461 442 419 z "},"5":{"ha":679,"x_min":-29,"x_max":653,"o":"m 63 300 q 88 219 58 257 q 270 166 207 208 q 333 51 333 124 q 329 11 333 32 q 260 -98 314 -60 q 124 -136 206 -136 q 13 -118 60 -136 q -29 -204 -18 -149 q 136 -237 24 -237 q 412 -163 294 -237 q 561 49 529 -89 q 569 117 569 85 q 473 308 569 232 q 192 406 376 383 l 219 496 q 549 500 299 500 q 615 538 599 500 q 653 760 626 675 q 569 774 619 774 q 531 771 556 774 q 446 694 517 694 q 183 699 282 694 l 63 300 z "},"6":{"ha":814,"x_min":67,"x_max":746,"o":"m 510 549 q 683 490 621 549 q 746 331 746 432 q 739 261 746 290 q 615 60 714 132 q 363 -12 515 -12 q 142 63 218 -12 q 67 278 67 138 q 79 401 67 335 q 194 650 107 544 q 419 816 282 756 q 733 886 557 876 q 744 844 744 871 q 738 799 744 826 q 485 696 586 768 q 336 513 383 624 q 424 540 383 532 q 510 549 464 549 m 504 235 q 511 299 511 272 q 481 405 511 365 q 397 444 450 444 q 308 428 351 444 l 304 407 q 288 256 288 322 q 311 133 288 176 q 378 90 335 90 q 458 128 425 90 q 504 235 490 167 z "},"7":{"ha":672,"x_min":93,"x_max":676,"o":"m 647 699 q 674 603 676 657 q 489 347 542 431 q 401 182 436 263 q 364 49 376 125 q 350 -149 351 -26 q 252 -185 301 -161 q 167 -236 203 -208 q 129 -205 143 -229 q 115 -144 115 -181 q 139 -22 115 -87 q 243 169 163 44 q 486 499 324 294 l 343 499 q 263 478 290 499 q 221 407 235 457 q 93 431 142 406 q 144 699 133 575 q 406 694 224 694 q 647 699 567 694 z "},"8":{"ha":786,"x_min":44,"x_max":760,"o":"m 756 683 q 697 578 742 622 q 571 500 651 533 q 710 263 710 394 q 700 192 710 226 q 351 -12 646 -12 q 125 38 206 -12 q 44 181 44 88 q 51 239 44 213 q 118 365 68 314 q 257 460 168 417 q 158 643 158 543 q 167 700 158 671 q 275 838 190 790 q 493 885 360 885 q 692 841 624 885 q 760 721 760 797 q 756 683 760 703 m 390 729 q 385 696 385 707 q 478 564 385 628 q 533 628 515 593 q 551 715 551 664 q 531 778 551 757 q 476 799 511 799 q 422 781 444 799 q 390 729 400 763 m 468 178 q 474 221 474 208 q 445 303 474 268 q 351 389 417 339 q 306 337 322 367 q 281 263 289 307 q 276 211 276 236 q 301 119 276 154 q 371 85 326 85 q 433 108 407 85 q 468 178 458 132 z "},"9":{"ha":808,"x_min":33,"x_max":754,"o":"m 468 703 q 678 628 603 703 q 754 417 754 554 q 742 300 754 363 q 617 31 711 147 q 376 -154 522 -86 q 43 -235 229 -222 q 33 -189 33 -219 q 38 -147 33 -171 q 313 -35 210 -114 q 468 158 417 43 q 308 125 397 125 q 138 186 199 125 q 78 353 78 247 q 86 436 78 393 q 210 632 111 561 q 468 703 308 703 m 518 321 q 532 449 532 392 q 508 563 532 525 q 442 600 483 600 q 363 560 396 600 q 318 457 331 519 q 310 381 310 418 q 338 272 310 313 q 425 231 365 231 q 500 246 465 231 q 518 321 514 296 z "},"\r":{"ha":271,"x_min":0,"x_max":0,"o":""}," ":{"ha":271,"x_min":0,"x_max":0,"o":""},"A":{"ha":978,"x_min":-47,"x_max":907,"o":"m 901 92 q 907 38 907 64 q 904 -4 907 24 q 700 0 850 0 q 476 -4 531 0 q 493 92 479 54 q 556 113 538 99 q 574 156 574 128 q 567 200 574 172 l 554 250 q 224 238 365 250 q 206 208 217 228 q 183 143 183 169 q 239 92 183 101 q 243 43 243 69 q 239 -4 243 21 q 79 0 188 0 q -47 -4 1 0 q -28 92 -46 49 q 35 127 7 99 q 113 236 63 156 q 528 939 226 419 q 574 946 550 944 q 622 947 597 947 q 814 249 736 581 q 842 150 829 182 q 867 107 854 118 q 901 92 881 96 m 535 333 l 526 365 q 483 522 499 471 q 457 667 467 579 q 383 522 411 572 l 363 485 q 329 423 351 465 q 279 333 307 381 l 535 333 z "},"Á":{"ha":978,"x_min":-47,"x_max":907,"o":"m 901 92 q 907 38 907 64 q 904 -4 907 24 q 700 0 850 0 q 476 -4 531 0 q 493 92 479 54 q 556 113 538 99 q 574 156 574 128 q 567 200 574 172 l 554 250 q 224 238 365 250 q 206 208 217 228 q 183 143 183 169 q 239 92 183 101 q 243 43 243 69 q 239 -4 243 21 q 79 0 188 0 q -47 -4 1 0 q -28 92 -46 49 q 35 127 7 99 q 113 236 63 156 q 528 939 226 419 q 574 946 550 944 q 622 947 597 947 q 814 249 736 581 q 842 150 829 182 q 867 107 854 118 q 901 92 881 96 m 535 333 l 526 365 q 483 522 499 471 q 457 667 467 579 q 383 522 411 572 l 363 485 q 329 423 351 465 q 279 333 307 381 l 535 333 m 594 1015 q 482 1057 532 1022 q 544 1143 514 1093 q 589 1225 575 1193 q 649 1228 628 1228 q 800 1204 746 1228 q 594 1015 682 1100 z "},"Ă":{"ha":978,"x_min":-47,"x_max":907,"o":"m 901 92 q 907 38 907 64 q 904 -4 907 24 q 700 0 850 0 q 476 -4 531 0 q 493 92 479 54 q 556 113 538 99 q 574 156 574 128 q 567 200 574 172 l 554 250 q 224 238 365 250 q 206 208 217 228 q 183 143 183 169 q 239 92 183 101 q 243 43 243 69 q 239 -4 243 21 q 79 0 188 0 q -47 -4 1 0 q -28 92 -46 49 q 35 127 7 99 q 113 236 63 156 q 528 939 226 419 q 574 946 550 944 q 622 947 597 947 q 814 249 736 581 q 842 150 829 182 q 867 107 854 118 q 901 92 881 96 m 535 333 l 526 365 q 483 522 499 471 q 457 667 467 579 q 383 522 411 572 l 363 485 q 329 423 351 465 q 279 333 307 381 l 535 333 m 571 1006 q 335 1165 335 1006 q 339 1208 335 1186 q 433 1224 382 1224 q 467 1221 444 1224 q 503 1156 465 1178 q 610 1133 540 1133 q 722 1156 678 1133 q 778 1221 765 1178 q 817 1225 799 1225 q 882 1213 850 1225 q 785 1058 864 1111 q 571 1006 706 1006 z "},"Ắ":{"ha":978,"x_min":-47,"x_max":907,"o":"m 901 92 q 907 38 907 64 q 904 -4 907 24 q 700 0 850 0 q 476 -4 531 0 q 493 92 479 54 q 556 113 538 99 q 574 156 574 128 q 567 200 574 172 l 554 250 q 224 238 365 250 q 206 208 217 228 q 183 143 183 169 q 239 92 183 101 q 243 43 243 69 q 239 -4 243 21 q 79 0 188 0 q -47 -4 1 0 q -28 92 -46 49 q 35 127 7 99 q 113 236 63 156 q 528 939 226 419 q 574 946 550 944 q 622 947 597 947 q 814 249 736 581 q 842 150 829 182 q 867 107 854 118 q 901 92 881 96 m 535 333 l 526 365 q 483 522 499 471 q 457 667 467 579 q 383 522 411 572 l 363 485 q 329 423 351 465 q 279 333 307 381 l 535 333 z "},"Ặ":{"ha":978,"x_min":-47,"x_max":907,"o":"m 901 92 q 907 38 907 64 q 904 -4 907 24 q 700 0 850 0 q 476 -4 531 0 q 493 92 479 54 q 556 113 538 99 q 574 156 574 128 q 567 200 574 172 l 554 250 q 224 238 365 250 q 206 208 217 228 q 183 143 183 169 q 239 92 183 101 q 243 43 243 69 q 239 -4 243 21 q 79 0 188 0 q -47 -4 1 0 q -28 92 -46 49 q 35 127 7 99 q 113 236 63 156 q 528 939 226 419 q 574 946 550 944 q 622 947 597 947 q 814 249 736 581 q 842 150 829 182 q 867 107 854 118 q 901 92 881 96 m 535 333 l 526 365 q 483 522 499 471 q 457 667 467 579 q 383 522 411 572 l 363 485 q 329 423 351 465 q 279 333 307 381 l 535 333 m 301 -331 q 215 -305 246 -331 q 185 -236 185 -279 q 188 -211 185 -228 q 236 -131 197 -158 q 331 -103 275 -103 q 416 -129 386 -103 q 446 -201 446 -156 q 444 -224 446 -215 q 397 -303 435 -276 q 301 -331 358 -331 m 571 1006 q 335 1165 335 1006 q 339 1208 335 1186 q 433 1224 382 1224 q 467 1221 444 1224 q 503 1156 465 1178 q 610 1133 540 1133 q 722 1156 678 1133 q 778 1221 765 1178 q 817 1225 799 1225 q 882 1213 850 1225 q 785 1058 864 1111 q 571 1006 706 1006 z "},"Ằ":{"ha":978,"x_min":-47,"x_max":907,"o":"m 901 92 q 907 38 907 64 q 904 -4 907 24 q 700 0 850 0 q 476 -4 531 0 q 493 92 479 54 q 556 113 538 99 q 574 156 574 128 q 567 200 574 172 l 554 250 q 224 238 365 250 q 206 208 217 228 q 183 143 183 169 q 239 92 183 101 q 243 43 243 69 q 239 -4 243 21 q 79 0 188 0 q -47 -4 1 0 q -28 92 -46 49 q 35 127 7 99 q 113 236 63 156 q 528 939 226 419 q 574 946 550 944 q 622 947 597 947 q 814 249 736 581 q 842 150 829 182 q 867 107 854 118 q 901 92 881 96 m 535 333 l 526 365 q 483 522 499 471 q 457 667 467 579 q 383 522 411 572 l 363 485 q 329 423 351 465 q 279 333 307 381 l 535 333 z "},"Ẳ":{"ha":978,"x_min":-47,"x_max":907,"o":"m 901 92 q 907 38 907 64 q 904 -4 907 24 q 700 0 850 0 q 476 -4 531 0 q 493 92 479 54 q 556 113 538 99 q 574 156 574 128 q 567 200 574 172 l 554 250 q 224 238 365 250 q 206 208 217 228 q 183 143 183 169 q 239 92 183 101 q 243 43 243 69 q 239 -4 243 21 q 79 0 188 0 q -47 -4 1 0 q -28 92 -46 49 q 35 127 7 99 q 113 236 63 156 q 528 939 226 419 q 574 946 550 944 q 622 947 597 947 q 814 249 736 581 q 842 150 829 182 q 867 107 854 118 q 901 92 881 96 m 535 333 l 526 365 q 483 522 499 471 q 457 667 467 579 q 383 522 411 572 l 363 485 q 329 423 351 465 q 279 333 307 381 l 535 333 z "},"Ẵ":{"ha":978,"x_min":-47,"x_max":931,"o":"m 901 92 q 907 38 907 64 q 904 -4 907 24 q 700 0 850 0 q 476 -4 531 0 q 493 92 479 54 q 556 113 538 99 q 574 156 574 128 q 567 200 574 172 l 554 250 q 224 238 365 250 q 206 208 217 228 q 183 143 183 169 q 239 92 183 101 q 243 43 243 69 q 239 -4 243 21 q 79 0 188 0 q -47 -4 1 0 q -28 92 -46 49 q 35 127 7 99 q 113 236 63 156 q 528 939 226 419 q 574 946 550 944 q 622 947 597 947 q 814 249 736 581 q 842 150 829 182 q 867 107 854 118 q 901 92 881 96 m 535 333 l 526 365 q 483 522 499 471 q 457 667 467 579 q 383 522 411 572 l 363 485 q 329 423 351 465 q 279 333 307 381 l 535 333 m 571 1006 q 335 1165 335 1006 q 339 1208 335 1186 q 433 1224 382 1224 q 467 1221 444 1224 q 503 1156 465 1178 q 610 1133 540 1133 q 722 1156 678 1133 q 778 1221 765 1178 q 817 1225 799 1225 q 882 1213 850 1225 q 785 1058 864 1111 q 571 1006 706 1006 m 711 1264 q 652 1273 675 1264 q 601 1300 629 1282 q 565 1321 581 1314 q 529 1328 550 1328 q 408 1267 475 1328 q 386 1308 393 1289 q 379 1353 379 1328 l 381 1374 q 480 1438 426 1418 q 581 1458 533 1458 q 639 1449 614 1458 q 693 1424 664 1440 q 733 1405 718 1411 q 767 1399 749 1399 q 861 1454 817 1399 q 931 1393 911 1432 q 828 1297 885 1329 q 711 1264 772 1264 z "},"Ǎ":{"ha":978,"x_min":-47,"x_max":907,"o":"m 901 92 q 907 38 907 64 q 904 -4 907 24 q 700 0 850 0 q 476 -4 531 0 q 493 92 479 54 q 556 113 538 99 q 574 156 574 128 q 567 200 574 172 l 554 250 q 224 238 365 250 q 206 208 217 228 q 183 143 183 169 q 239 92 183 101 q 243 43 243 69 q 239 -4 243 21 q 79 0 188 0 q -47 -4 1 0 q -28 92 -46 49 q 35 127 7 99 q 113 236 63 156 q 528 939 226 419 q 574 946 550 944 q 622 947 597 947 q 814 249 736 581 q 842 150 829 182 q 867 107 854 118 q 901 92 881 96 m 535 333 l 526 365 q 483 522 499 471 q 457 667 467 579 q 383 522 411 572 l 363 485 q 329 423 351 465 q 279 333 307 381 l 535 333 m 532 1011 q 349 1168 461 1088 q 438 1239 371 1233 q 613 1160 511 1194 q 804 1242 692 1178 q 844 1215 826 1235 q 872 1169 863 1194 q 638 1025 735 1092 q 561 1008 600 1008 q 532 1011 551 1008 z "},"Â":{"ha":978,"x_min":-47,"x_max":907,"o":"m 901 92 q 907 38 907 64 q 904 -4 907 24 q 700 0 850 0 q 476 -4 531 0 q 493 92 479 54 q 556 113 538 99 q 574 156 574 128 q 567 200 574 172 l 554 250 q 224 238 365 250 q 206 208 217 228 q 183 143 183 169 q 239 92 183 101 q 243 43 243 69 q 239 -4 243 21 q 79 0 188 0 q -47 -4 1 0 q -28 92 -46 49 q 35 127 7 99 q 113 236 63 156 q 528 939 226 419 q 574 946 550 944 q 622 947 597 947 q 814 249 736 581 q 842 150 829 182 q 867 107 854 118 q 901 92 881 96 m 535 333 l 526 365 q 483 522 499 471 q 457 667 467 579 q 383 522 411 572 l 363 485 q 329 423 351 465 q 279 333 307 381 l 535 333 m 413 1003 q 368 1037 386 1013 q 344 1085 350 1061 q 467 1153 401 1111 q 589 1236 533 1194 q 622 1239 611 1239 q 692 1228 658 1239 q 876 1050 757 1158 q 834 1026 861 1035 q 775 1015 807 1017 q 606 1097 679 1074 q 479 1036 551 1076 l 413 1003 z "},"Ấ":{"ha":978,"x_min":-47,"x_max":1056,"o":"m 901 92 q 907 38 907 64 q 904 -4 907 24 q 700 0 850 0 q 476 -4 531 0 q 493 92 479 54 q 556 113 538 99 q 574 156 574 128 q 567 200 574 172 l 554 250 q 224 238 365 250 q 206 208 217 228 q 183 143 183 169 q 239 92 183 101 q 243 43 243 69 q 239 -4 243 21 q 79 0 188 0 q -47 -4 1 0 q -28 92 -46 49 q 35 127 7 99 q 113 236 63 156 q 528 939 226 419 q 574 946 550 944 q 622 947 597 947 q 814 249 736 581 q 842 150 829 182 q 867 107 854 118 q 901 92 881 96 m 535 333 l 526 365 q 483 522 499 471 q 457 667 467 579 q 383 522 411 572 l 363 485 q 329 423 351 465 q 279 333 307 381 l 535 333 m 869 1193 q 769 1231 817 1200 q 826 1309 799 1264 q 865 1382 853 1354 q 918 1385 901 1385 q 1056 1363 1004 1385 q 869 1193 925 1247 m 411 1003 q 367 1038 385 1013 q 344 1085 349 1063 q 467 1153 401 1111 q 589 1236 533 1194 q 622 1239 611 1239 q 692 1228 656 1239 q 875 1050 753 1161 q 834 1026 861 1035 q 775 1015 807 1017 q 606 1097 679 1074 q 476 1036 574 1085 q 411 1003 442 1017 z "},"Ậ":{"ha":978,"x_min":-47,"x_max":907,"o":"m 901 92 q 907 38 907 64 q 904 -4 907 24 q 700 0 850 0 q 476 -4 531 0 q 493 92 479 54 q 556 113 538 99 q 574 156 574 128 q 567 200 574 172 l 554 250 q 224 238 365 250 q 206 208 217 228 q 183 143 183 169 q 239 92 183 101 q 243 43 243 69 q 239 -4 243 21 q 79 0 188 0 q -47 -4 1 0 q -28 92 -46 49 q 35 127 7 99 q 113 236 63 156 q 528 939 226 419 q 574 946 550 944 q 622 947 597 947 q 814 249 736 581 q 842 150 829 182 q 867 107 854 118 q 901 92 881 96 m 535 333 l 526 365 q 483 522 499 471 q 457 667 467 579 q 383 522 411 572 l 363 485 q 329 423 351 465 q 279 333 307 381 l 535 333 m 301 -331 q 215 -305 246 -331 q 185 -236 185 -279 q 188 -211 185 -228 q 236 -131 197 -158 q 331 -103 275 -103 q 416 -129 386 -103 q 446 -201 446 -156 q 444 -224 446 -215 q 397 -303 435 -276 q 301 -331 358 -331 m 413 1003 q 368 1037 386 1013 q 344 1085 350 1061 q 467 1153 401 1111 q 589 1236 533 1194 q 622 1239 611 1239 q 692 1228 658 1239 q 876 1050 757 1158 q 834 1026 861 1035 q 775 1015 807 1017 q 606 1097 679 1074 q 479 1036 551 1076 l 413 1003 z "},"Ầ":{"ha":978,"x_min":-47,"x_max":932,"o":"m 901 92 q 907 38 907 64 q 904 -4 907 24 q 700 0 850 0 q 476 -4 531 0 q 493 92 479 54 q 556 113 538 99 q 574 156 574 128 q 567 200 574 172 l 554 250 q 224 238 365 250 q 206 208 217 228 q 183 143 183 169 q 239 92 183 101 q 243 43 243 69 q 239 -4 243 21 q 79 0 188 0 q -47 -4 1 0 q -28 92 -46 49 q 35 127 7 99 q 113 236 63 156 q 528 939 226 419 q 574 946 550 944 q 622 947 597 947 q 814 249 736 581 q 842 150 829 182 q 867 107 854 118 q 901 92 881 96 m 535 333 l 526 365 q 483 522 499 471 q 457 667 467 579 q 383 522 411 572 l 363 485 q 329 423 351 465 q 279 333 307 381 l 535 333 z "},"Ẩ":{"ha":978,"x_min":-47,"x_max":1008,"o":"m 901 92 q 907 38 907 64 q 904 -4 907 24 q 700 0 850 0 q 476 -4 531 0 q 493 92 479 54 q 556 113 538 99 q 574 156 574 128 q 567 200 574 172 l 554 250 q 224 238 365 250 q 206 208 217 228 q 183 143 183 169 q 239 92 183 101 q 243 43 243 69 q 239 -4 243 21 q 79 0 188 0 q -47 -4 1 0 q -28 92 -46 49 q 35 127 7 99 q 113 236 63 156 q 528 939 226 419 q 574 946 550 944 q 622 947 597 947 q 814 249 736 581 q 842 150 829 182 q 867 107 854 118 q 901 92 881 96 m 535 333 l 526 365 q 483 522 499 471 q 457 667 467 579 q 383 522 411 572 l 363 485 q 329 423 351 465 q 279 333 307 381 l 535 333 z "},"Ẫ":{"ha":978,"x_min":-47,"x_max":946,"o":"m 901 92 q 907 38 907 64 q 904 -4 907 24 q 700 0 850 0 q 476 -4 531 0 q 493 92 479 54 q 556 113 538 99 q 574 156 574 128 q 567 200 574 172 l 554 250 q 224 238 365 250 q 206 208 217 228 q 183 143 183 169 q 239 92 183 101 q 243 43 243 69 q 239 -4 243 21 q 79 0 188 0 q -47 -4 1 0 q -28 92 -46 49 q 35 127 7 99 q 113 236 63 156 q 528 939 226 419 q 574 946 550 944 q 622 947 597 947 q 814 249 736 581 q 842 150 829 182 q 867 107 854 118 q 901 92 881 96 m 535 333 l 526 365 q 483 522 499 471 q 457 667 467 579 q 383 522 411 572 l 363 485 q 329 423 351 465 q 279 333 307 381 l 535 333 m 413 1003 q 368 1037 386 1013 q 344 1085 350 1061 q 467 1153 401 1111 q 589 1236 533 1194 q 622 1239 611 1239 q 692 1228 658 1239 q 876 1050 757 1158 q 834 1026 861 1035 q 775 1015 807 1017 q 606 1097 679 1074 q 479 1036 551 1076 l 413 1003 m 726 1296 q 667 1305 690 1296 q 617 1332 644 1314 q 581 1353 596 1346 q 544 1360 565 1360 q 424 1299 490 1360 q 401 1340 408 1321 q 394 1385 394 1360 l 396 1406 q 495 1470 442 1450 q 596 1490 549 1490 q 654 1481 629 1490 q 708 1456 679 1472 q 749 1437 733 1443 q 782 1431 764 1431 q 876 1486 832 1431 q 946 1425 926 1464 q 844 1328 900 1361 q 726 1296 788 1296 z "},"Ȁ":{"ha":978,"x_min":-47,"x_max":907,"o":"m 901 92 q 907 38 907 64 q 904 -4 907 24 q 700 0 850 0 q 476 -4 531 0 q 493 92 479 54 q 556 113 538 99 q 574 156 574 128 q 567 200 574 172 l 554 250 q 224 238 365 250 q 206 208 217 228 q 183 143 183 169 q 239 92 183 101 q 243 43 243 69 q 239 -4 243 21 q 79 0 188 0 q -47 -4 1 0 q -28 92 -46 49 q 35 127 7 99 q 113 236 63 156 q 528 939 226 419 q 574 946 550 944 q 622 947 597 947 q 814 249 736 581 q 842 150 829 182 q 867 107 854 118 q 901 92 881 96 m 535 333 l 526 365 q 483 522 499 471 q 457 667 467 579 q 383 522 411 572 l 363 485 q 329 423 351 465 q 279 333 307 381 l 535 333 m 678 1051 q 593 1181 625 1138 q 692 1193 633 1193 q 761 1188 732 1193 q 824 1004 786 1081 q 763 1000 794 1000 q 708 1004 738 1000 l 678 1051 m 447 1004 q 321 1176 369 1115 q 435 1193 368 1193 q 500 1188 458 1193 q 564 1004 531 1074 q 503 1000 535 1000 q 447 1004 478 1000 z "},"Ä":{"ha":978,"x_min":-47,"x_max":907,"o":"m 901 92 q 907 38 907 64 q 904 -4 907 24 q 700 0 850 0 q 476 -4 531 0 q 493 92 479 54 q 556 113 538 99 q 574 156 574 128 q 567 200 574 172 l 554 250 q 224 238 365 250 q 206 208 217 228 q 183 143 183 169 q 239 92 183 101 q 243 43 243 69 q 239 -4 243 21 q 79 0 188 0 q -47 -4 1 0 q -28 92 -46 49 q 35 127 7 99 q 113 236 63 156 q 528 939 226 419 q 574 946 550 944 q 622 947 597 947 q 814 249 736 581 q 842 150 829 182 q 867 107 854 118 q 901 92 881 96 m 535 333 l 526 365 q 483 522 499 471 q 457 667 467 579 q 383 522 411 572 l 363 485 q 329 423 351 465 q 279 333 307 381 l 535 333 m 450 1003 q 369 1032 399 1003 q 339 1111 339 1061 q 446 1218 339 1218 q 527 1191 497 1218 q 557 1115 557 1164 q 530 1033 557 1063 q 450 1003 503 1003 m 764 1003 q 681 1031 711 1003 q 651 1110 651 1060 q 765 1218 651 1218 q 846 1190 817 1218 q 875 1113 875 1163 q 847 1031 875 1060 q 764 1003 819 1003 z "},"Ạ":{"ha":978,"x_min":-47,"x_max":907,"o":"m 901 92 q 907 38 907 64 q 904 -4 907 24 q 700 0 850 0 q 476 -4 531 0 q 493 92 479 54 q 556 113 538 99 q 574 156 574 128 q 567 200 574 172 l 554 250 q 224 238 365 250 q 206 208 217 228 q 183 143 183 169 q 239 92 183 101 q 243 43 243 69 q 239 -4 243 21 q 79 0 188 0 q -47 -4 1 0 q -28 92 -46 49 q 35 127 7 99 q 113 236 63 156 q 528 939 226 419 q 574 946 550 944 q 622 947 597 947 q 814 249 736 581 q 842 150 829 182 q 867 107 854 118 q 901 92 881 96 m 535 333 l 526 365 q 483 522 499 471 q 457 667 467 579 q 383 522 411 572 l 363 485 q 329 423 351 465 q 279 333 307 381 l 535 333 m 301 -331 q 215 -305 246 -331 q 185 -236 185 -279 q 188 -211 185 -228 q 236 -131 197 -158 q 331 -103 275 -103 q 416 -129 386 -103 q 446 -201 446 -156 q 444 -224 446 -215 q 397 -303 435 -276 q 301 -331 358 -331 z "},"À":{"ha":978,"x_min":-47,"x_max":907,"o":"m 901 92 q 907 38 907 64 q 904 -4 907 24 q 700 0 850 0 q 476 -4 531 0 q 493 92 479 54 q 556 113 538 99 q 574 156 574 128 q 567 200 574 172 l 554 250 q 224 238 365 250 q 206 208 217 228 q 183 143 183 169 q 239 92 183 101 q 243 43 243 69 q 239 -4 243 21 q 79 0 188 0 q -47 -4 1 0 q -28 92 -46 49 q 35 127 7 99 q 113 236 63 156 q 528 939 226 419 q 574 946 550 944 q 622 947 597 947 q 814 249 736 581 q 842 150 829 182 q 867 107 854 118 q 901 92 881 96 m 535 333 l 526 365 q 483 522 499 471 q 457 667 467 579 q 383 522 411 572 l 363 485 q 329 423 351 465 q 279 333 307 381 l 535 333 m 672 1028 q 608 1021 644 1021 q 538 1029 567 1021 q 479 1110 518 1063 q 403 1194 440 1157 q 538 1213 478 1213 q 604 1207 575 1213 q 672 1028 631 1106 z "},"Ả":{"ha":978,"x_min":-47,"x_max":907,"o":"m 901 92 q 907 38 907 64 q 904 -4 907 24 q 700 0 850 0 q 476 -4 531 0 q 493 92 479 54 q 556 113 538 99 q 574 156 574 128 q 567 200 574 172 l 554 250 q 224 238 365 250 q 206 208 217 228 q 183 143 183 169 q 239 92 183 101 q 243 43 243 69 q 239 -4 243 21 q 79 0 188 0 q -47 -4 1 0 q -28 92 -46 49 q 35 127 7 99 q 113 236 63 156 q 528 939 226 419 q 574 946 550 944 q 622 947 597 947 q 814 249 736 581 q 842 150 829 182 q 867 107 854 118 q 901 92 881 96 m 535 333 l 526 365 q 483 522 499 471 q 457 667 467 579 q 383 522 411 572 l 363 485 q 329 423 351 465 q 279 333 307 381 l 535 333 m 544 1008 q 539 1035 539 1022 q 554 1083 539 1067 q 599 1114 569 1099 q 628 1133 618 1125 q 644 1153 639 1140 q 647 1165 647 1161 q 638 1181 647 1175 q 614 1188 629 1188 q 539 1108 560 1188 q 450 1125 479 1108 q 469 1217 469 1174 q 549 1242 504 1232 q 638 1251 593 1251 q 737 1231 703 1251 q 771 1175 771 1211 q 767 1149 771 1164 q 737 1099 757 1117 q 686 1067 717 1082 q 654 1048 665 1057 q 639 1026 643 1039 q 638 1001 633 1013 q 606 999 618 999 q 544 1008 565 999 z "},"Ȃ":{"ha":978,"x_min":-47,"x_max":907,"o":"m 901 92 q 907 38 907 64 q 904 -4 907 24 q 700 0 850 0 q 476 -4 531 0 q 493 92 479 54 q 556 113 538 99 q 574 156 574 128 q 567 200 574 172 l 554 250 q 224 238 365 250 q 206 208 217 228 q 183 143 183 169 q 239 92 183 101 q 243 43 243 69 q 239 -4 243 21 q 79 0 188 0 q -47 -4 1 0 q -28 92 -46 49 q 35 127 7 99 q 113 236 63 156 q 528 939 226 419 q 574 946 550 944 q 622 947 597 947 q 814 249 736 581 q 842 150 829 182 q 867 107 854 118 q 901 92 881 96 m 535 333 l 526 365 q 483 522 499 471 q 457 667 467 579 q 383 522 411 572 l 363 485 q 329 423 351 465 q 279 333 307 381 l 535 333 m 644 1217 q 881 1057 881 1217 q 876 1014 881 1038 q 788 999 838 999 q 750 1001 775 999 q 713 1067 750 1044 q 606 1089 675 1089 q 494 1067 538 1089 q 438 1001 450 1044 q 397 997 417 997 q 333 1010 358 997 q 431 1164 351 1111 q 644 1217 510 1217 z "},"Ā":{"ha":978,"x_min":-47,"x_max":907,"o":"m 901 92 q 907 38 907 64 q 904 -4 907 24 q 700 0 850 0 q 476 -4 531 0 q 493 92 479 54 q 556 113 538 99 q 574 156 574 128 q 567 200 574 172 l 554 250 q 224 238 365 250 q 206 208 217 228 q 183 143 183 169 q 239 92 183 101 q 243 43 243 69 q 239 -4 243 21 q 79 0 188 0 q -47 -4 1 0 q -28 92 -46 49 q 35 127 7 99 q 113 236 63 156 q 528 939 226 419 q 574 946 550 944 q 622 947 597 947 q 814 249 736 581 q 842 150 829 182 q 867 107 854 118 q 901 92 881 96 m 535 333 l 526 365 q 483 522 499 471 q 457 667 467 579 q 383 522 411 572 l 363 485 q 329 423 351 465 q 279 333 307 381 l 535 333 m 351 1063 q 364 1146 351 1115 l 863 1146 q 850 1071 863 1111 q 351 1063 565 1071 z "},"Ą":{"ha":978,"x_min":-47,"x_max":907,"o":"m 814 -1 q 707 -65 743 -28 q 671 -139 671 -103 q 688 -179 671 -162 q 736 -196 704 -196 q 781 -185 764 -196 q 815 -271 810 -215 q 744 -302 779 -282 q 685 -344 710 -322 q 654 -346 672 -346 q 516 -313 568 -346 q 464 -215 464 -281 q 468 -181 464 -200 q 517 -87 478 -131 q 649 0 556 -43 q 476 -4 535 0 q 493 92 479 54 q 556 113 538 99 q 574 156 574 128 q 567 200 574 172 l 554 250 q 224 238 365 250 q 206 208 217 228 q 183 143 183 169 q 239 92 183 101 q 243 43 243 69 q 239 -4 243 21 q 79 0 188 0 q -47 -4 1 0 q -28 92 -46 49 q 35 127 7 99 q 113 236 63 156 q 528 939 226 419 q 574 946 550 944 q 622 947 597 947 q 814 249 736 581 q 842 150 829 182 q 867 107 854 118 q 901 92 881 96 q 907 38 907 64 q 904 -4 907 24 q 814 -1 857 -1 m 535 333 l 526 365 q 483 522 499 471 q 457 667 467 579 q 383 522 411 572 l 363 485 q 329 423 351 465 q 279 333 307 381 l 535 333 z "},"Å":{"ha":978,"x_min":-47,"x_max":907,"o":"m 901 92 q 907 38 907 64 q 904 -4 907 24 q 700 0 850 0 q 476 -4 531 0 q 493 92 479 54 q 556 113 538 99 q 574 156 574 128 q 567 200 574 172 l 554 250 q 224 238 365 250 q 206 208 217 228 q 183 143 183 169 q 239 92 183 101 q 243 43 243 69 q 239 -4 243 21 q 79 0 188 0 q -47 -4 1 0 q -28 92 -46 49 q 35 127 7 99 q 113 236 63 156 q 528 939 226 419 q 574 946 550 944 q 622 947 597 947 q 814 249 736 581 q 842 150 829 182 q 867 107 854 118 q 901 92 881 96 m 535 333 l 526 365 q 483 522 499 471 q 457 667 467 579 q 383 522 411 572 l 363 485 q 329 423 351 465 q 279 333 307 381 l 535 333 m 597 993 q 472 1024 515 993 q 429 1104 429 1056 q 432 1128 429 1111 q 494 1209 444 1182 q 619 1236 543 1236 q 744 1208 701 1236 q 786 1131 786 1179 q 735 1029 786 1065 q 597 993 685 993 m 603 1064 q 638 1077 624 1064 q 660 1113 653 1090 q 653 1151 664 1132 q 615 1171 642 1171 q 574 1153 590 1171 q 557 1106 557 1135 q 569 1076 557 1088 q 603 1064 581 1064 z "},"Ǻ":{"ha":978,"x_min":-47,"x_max":907,"o":"m 901 92 q 907 38 907 64 q 904 -4 907 24 q 700 0 850 0 q 476 -4 531 0 q 493 92 479 54 q 556 113 538 99 q 574 156 574 128 q 567 200 574 172 l 554 250 q 224 238 365 250 q 206 208 217 228 q 183 143 183 169 q 239 92 183 101 q 243 43 243 69 q 239 -4 243 21 q 79 0 188 0 q -47 -4 1 0 q -28 92 -46 49 q 35 127 7 99 q 113 236 63 156 q 528 939 226 419 q 574 946 550 944 q 622 947 597 947 q 814 249 736 581 q 842 150 829 182 q 867 107 854 118 q 901 92 881 96 m 535 333 l 526 365 q 483 522 499 471 q 457 667 467 579 q 383 522 411 572 l 363 485 q 329 423 351 465 q 279 333 307 381 l 535 333 m 597 993 q 472 1024 515 993 q 429 1104 429 1056 q 432 1128 429 1111 q 494 1209 444 1182 q 619 1236 543 1236 q 744 1208 701 1236 q 786 1131 786 1179 q 735 1029 786 1065 q 597 993 685 993 m 603 1064 q 638 1077 624 1064 q 660 1113 653 1090 q 653 1151 664 1132 q 615 1171 642 1171 q 574 1153 590 1171 q 557 1106 557 1135 q 569 1076 557 1088 q 603 1064 581 1064 m 653 1313 q 540 1354 590 1319 q 603 1440 572 1390 q 647 1522 633 1490 q 707 1525 686 1525 q 858 1501 804 1525 q 653 1313 740 1397 z "},"Ã":{"ha":978,"x_min":-47,"x_max":907,"o":"m 901 92 q 907 38 907 64 q 904 -4 907 24 q 700 0 850 0 q 476 -4 531 0 q 493 92 479 54 q 556 113 538 99 q 574 156 574 128 q 567 200 574 172 l 554 250 q 224 238 365 250 q 206 208 217 228 q 183 143 183 169 q 239 92 183 101 q 243 43 243 69 q 239 -4 243 21 q 79 0 188 0 q -47 -4 1 0 q -28 92 -46 49 q 35 127 7 99 q 113 236 63 156 q 528 939 226 419 q 574 946 550 944 q 622 947 597 947 q 814 249 736 581 q 842 150 829 182 q 867 107 854 118 q 901 92 881 96 m 535 333 l 526 365 q 483 522 499 471 q 457 667 467 579 q 383 522 411 572 l 363 485 q 329 423 351 465 q 279 333 307 381 l 535 333 m 668 1025 q 609 1034 632 1025 q 558 1061 586 1043 q 522 1082 538 1075 q 486 1089 507 1089 q 365 1028 432 1089 q 343 1069 350 1050 q 336 1114 336 1089 l 338 1135 q 437 1199 383 1179 q 538 1219 490 1219 q 596 1210 571 1219 q 650 1185 621 1201 q 690 1166 675 1172 q 724 1160 706 1160 q 818 1215 774 1160 q 888 1154 868 1193 q 785 1058 842 1090 q 668 1025 729 1025 z "},"Æ":{"ha":1251,"x_min":-47,"x_max":1272,"o":"m 882 846 l 822 485 l 846 485 q 942 507 914 485 q 978 590 969 529 q 1053 597 1019 597 q 1090 596 1078 597 q 1057 422 1069 511 q 1043 268 1044 328 q 938 289 978 271 q 917 372 939 343 q 835 401 896 401 l 808 401 l 781 239 q 772 165 772 193 q 794 108 772 122 q 868 93 815 93 l 883 93 q 1015 137 968 93 q 1100 286 1063 181 q 1165 270 1138 281 q 1217 239 1192 260 q 1153 -4 1169 114 q 811 0 1069 0 q 411 -4 506 0 q 433 93 414 47 q 490 109 472 97 q 519 152 508 121 q 543 254 531 183 l 569 400 q 364 392 444 400 q 338 353 343 364 l 236 213 q 193 126 193 153 q 239 92 193 100 q 243 43 243 69 q 239 -4 243 21 q 79 0 188 0 q -47 -4 1 0 q -28 92 -46 49 q 41 124 11 100 q 128 221 71 147 q 494 722 239 367 q 519 788 519 758 q 500 828 519 813 q 442 847 481 844 q 436 897 436 868 q 440 943 436 922 q 715 939 571 939 l 718 939 l 888 939 q 1272 943 1128 939 q 1258 765 1258 853 q 1261 697 1258 742 q 1142 682 1204 682 q 1124 774 1138 740 q 1074 827 1111 808 q 965 846 1036 846 l 882 846 m 583 485 l 613 649 q 653 821 629 749 q 431 485 586 708 l 583 485 z "},"Ǽ":{"ha":1251,"x_min":-47,"x_max":1272,"o":"m 882 846 l 822 485 l 846 485 q 942 507 914 485 q 978 590 969 529 q 1053 597 1019 597 q 1090 596 1078 597 q 1057 422 1069 511 q 1043 268 1044 328 q 938 289 978 271 q 917 372 939 343 q 835 401 896 401 l 808 401 l 781 239 q 772 165 772 193 q 794 108 772 122 q 868 93 815 93 l 883 93 q 1015 137 968 93 q 1100 286 1063 181 q 1165 270 1138 281 q 1217 239 1192 260 q 1153 -4 1169 114 q 811 0 1069 0 q 411 -4 506 0 q 433 93 414 47 q 490 109 472 97 q 519 152 508 121 q 543 254 531 183 l 569 400 q 364 392 444 400 q 338 353 343 364 l 236 213 q 193 126 193 153 q 239 92 193 100 q 243 43 243 69 q 239 -4 243 21 q 79 0 188 0 q -47 -4 1 0 q -28 92 -46 49 q 41 124 11 100 q 128 221 71 147 q 494 722 239 367 q 519 788 519 758 q 500 828 519 813 q 442 847 481 844 q 436 897 436 868 q 440 943 436 922 q 715 939 571 939 l 718 939 l 888 939 q 1272 943 1128 939 q 1258 765 1258 853 q 1261 697 1258 742 q 1142 682 1204 682 q 1124 774 1138 740 q 1074 827 1111 808 q 965 846 1036 846 l 882 846 m 583 485 l 613 649 q 653 821 629 749 q 431 485 586 708 l 583 485 m 833 1015 q 721 1057 771 1022 q 783 1143 753 1093 q 828 1225 814 1193 q 888 1228 867 1228 q 1039 1204 985 1228 q 833 1015 921 1100 z "},"B":{"ha":950,"x_min":18,"x_max":933,"o":"m 928 701 q 850 576 915 628 q 679 510 785 525 q 852 451 796 504 q 908 307 908 399 q 903 243 908 272 q 457 0 858 0 q 18 -4 140 0 q 42 92 21 39 q 99 106 81 94 q 128 149 118 118 q 151 254 139 181 l 232 715 q 239 776 239 757 q 222 826 239 811 q 158 847 204 840 q 154 893 154 868 q 157 943 154 913 q 311 939 231 939 l 429 940 q 594 943 532 943 q 853 896 772 943 q 933 754 933 849 q 928 701 933 740 m 688 713 q 690 743 690 735 q 658 820 690 793 q 567 847 625 847 q 492 831 535 847 l 440 536 l 483 536 q 618 583 564 536 q 688 713 672 631 m 642 268 q 646 317 646 296 q 602 408 646 382 q 461 433 558 433 l 422 433 l 386 221 q 379 160 379 179 q 397 104 379 117 q 457 92 415 92 q 576 140 524 92 q 642 268 628 189 z "},"C":{"ha":860,"x_min":67,"x_max":919,"o":"m 919 875 q 874 661 888 786 q 800 650 840 650 q 756 654 778 650 q 760 711 760 686 q 724 825 760 793 q 622 857 689 857 q 425 747 504 857 q 321 476 346 638 q 313 376 313 425 q 369 180 313 253 q 544 107 426 107 q 768 167 654 107 q 800 82 796 138 q 475 -12 657 -12 q 258 36 350 -12 q 116 175 165 85 q 67 388 67 265 q 75 494 67 439 q 182 745 99 642 q 381 900 265 849 q 618 951 496 951 q 781 933 707 951 q 919 875 854 915 z "},"Ć":{"ha":860,"x_min":67,"x_max":919,"o":"m 919 875 q 874 661 888 786 q 800 650 840 650 q 756 654 778 650 q 760 711 760 686 q 724 825 760 793 q 622 857 689 857 q 425 747 504 857 q 321 476 346 638 q 313 376 313 425 q 369 180 313 253 q 544 107 426 107 q 768 167 654 107 q 800 82 796 138 q 475 -12 657 -12 q 258 36 350 -12 q 116 175 165 85 q 67 388 67 265 q 75 494 67 439 q 182 745 99 642 q 381 900 265 849 q 618 951 496 951 q 781 933 707 951 q 919 875 854 915 m 643 1015 q 531 1057 581 1022 q 593 1143 563 1093 q 638 1225 624 1193 q 697 1228 676 1228 q 849 1204 794 1228 q 643 1015 731 1100 z "},"Č":{"ha":860,"x_min":67,"x_max":921,"o":"m 919 875 q 874 661 888 786 q 800 650 840 650 q 756 654 778 650 q 760 711 760 686 q 724 825 760 793 q 622 857 689 857 q 425 747 504 857 q 321 476 346 638 q 313 376 313 425 q 369 180 313 253 q 544 107 426 107 q 768 167 654 107 q 800 82 796 138 q 475 -12 657 -12 q 258 36 350 -12 q 116 175 165 85 q 67 388 67 265 q 75 494 67 439 q 182 745 99 642 q 381 900 265 849 q 618 951 496 951 q 781 933 707 951 q 919 875 854 915 m 581 1011 q 397 1168 510 1088 q 486 1239 419 1233 q 661 1160 560 1194 q 853 1242 740 1178 q 893 1215 875 1235 q 921 1169 911 1194 q 686 1025 783 1092 q 610 1008 649 1008 q 581 1011 600 1008 z "},"Ç":{"ha":860,"x_min":65,"x_max":919,"o":"m 874 661 q 800 650 840 650 q 756 654 778 650 q 760 711 760 686 q 724 825 760 793 q 622 857 689 857 q 425 747 504 857 q 321 476 346 638 q 313 376 313 425 q 369 180 313 253 q 544 107 426 107 q 768 167 654 107 q 800 82 796 138 q 503 -12 671 -4 l 453 -67 q 535 -172 535 -92 q 531 -210 535 -192 q 453 -306 518 -272 q 279 -336 388 -339 q 275 -308 275 -324 q 279 -272 275 -289 q 362 -258 328 -274 q 401 -217 396 -243 q 403 -201 403 -211 q 383 -163 403 -176 q 329 -150 363 -150 q 315 -87 311 -124 l 394 -7 q 151 121 238 14 q 65 388 65 228 q 74 486 65 436 q 182 745 99 640 q 381 901 265 850 q 618 951 496 951 q 781 933 707 951 q 919 875 854 915 q 874 661 888 786 z "},"Ḉ":{"ha":860,"x_min":65,"x_max":919,"o":"m 849 1204 q 642 1015 715 1088 q 531 1057 581 1022 q 592 1142 563 1093 q 636 1225 622 1192 q 697 1228 678 1228 q 849 1204 794 1228 m 874 661 q 800 650 840 650 q 756 654 778 650 q 760 711 760 686 q 724 825 760 793 q 622 857 689 857 q 425 747 504 857 q 321 476 346 638 q 313 376 313 425 q 369 180 313 253 q 544 107 426 107 q 768 167 654 107 q 800 82 796 138 q 503 -12 671 -4 l 453 -67 q 535 -172 535 -92 q 531 -210 535 -192 q 453 -306 518 -272 q 279 -336 388 -339 q 275 -308 275 -324 q 279 -272 275 -289 q 362 -258 328 -274 q 401 -217 396 -243 q 403 -201 403 -211 q 383 -163 403 -176 q 329 -150 363 -150 q 315 -87 311 -124 l 394 -7 q 151 121 238 14 q 65 388 65 228 q 74 486 65 436 q 182 745 99 640 q 381 901 265 850 q 618 951 496 951 q 781 933 707 951 q 919 875 854 915 q 874 661 888 786 z "},"Ĉ":{"ha":860,"x_min":67,"x_max":924,"o":"m 919 875 q 874 661 888 786 q 800 650 840 650 q 756 654 778 650 q 760 711 760 686 q 724 825 760 793 q 622 857 689 857 q 425 747 504 857 q 321 476 346 638 q 313 376 313 425 q 369 180 313 253 q 544 107 426 107 q 768 167 654 107 q 800 82 796 138 q 475 -12 657 -12 q 258 36 350 -12 q 116 175 165 85 q 67 388 67 265 q 75 494 67 439 q 182 745 99 642 q 381 900 265 849 q 618 951 496 951 q 781 933 707 951 q 919 875 854 915 m 460 1003 q 415 1037 433 1013 q 392 1085 397 1061 q 515 1153 449 1111 q 636 1236 581 1194 q 669 1239 658 1239 q 739 1228 706 1239 q 924 1050 804 1158 q 881 1026 908 1035 q 822 1015 854 1017 q 653 1097 726 1074 q 526 1036 599 1076 l 460 1003 z "},"Ċ":{"ha":860,"x_min":67,"x_max":919,"o":"m 919 875 q 874 661 888 786 q 800 650 840 650 q 756 654 778 650 q 760 711 760 686 q 724 825 760 793 q 622 857 689 857 q 425 747 504 857 q 321 476 346 638 q 313 376 313 425 q 369 180 313 253 q 544 107 426 107 q 768 167 654 107 q 800 82 796 138 q 475 -12 657 -12 q 258 36 350 -12 q 116 175 165 85 q 67 388 67 265 q 75 494 67 439 q 182 745 99 642 q 381 900 265 849 q 618 951 496 951 q 781 933 707 951 q 919 875 854 915 m 635 996 q 554 1022 585 996 q 524 1094 524 1049 q 563 1180 524 1150 q 674 1210 603 1210 q 754 1183 724 1210 q 785 1110 785 1156 q 783 1093 785 1099 q 740 1020 776 1044 q 635 996 703 996 z "},"D":{"ha":1018,"x_min":21,"x_max":1019,"o":"m 575 942 q 899 865 778 942 q 1019 593 1019 789 q 1007 463 1019 533 q 787 98 960 196 q 418 0 614 0 l 414 0 q 21 -4 103 0 q 42 92 24 49 q 101 111 82 96 q 130 156 121 126 q 151 254 139 185 l 231 715 q 238 778 238 757 q 220 827 238 813 q 158 847 203 842 q 154 899 154 872 q 158 943 154 925 q 417 939 253 939 q 485 940 461 939 l 575 942 m 765 482 q 779 617 779 556 q 722 797 779 744 q 568 849 665 849 q 488 835 528 849 l 388 235 q 379 161 379 189 q 399 106 379 119 q 471 93 418 93 q 642 177 560 93 q 765 482 725 261 z "},"Ǳ":{"ha":1800,"x_min":21,"x_max":1863,"o":"m 575 942 q 899 865 778 942 q 1019 593 1019 789 q 1007 463 1019 533 q 787 98 960 196 q 418 0 614 0 l 414 0 q 21 -4 103 0 q 42 92 24 49 q 101 111 82 96 q 130 156 121 126 q 151 254 139 185 l 231 715 q 238 778 238 757 q 220 827 238 813 q 158 847 203 842 q 154 899 154 872 q 158 943 154 925 q 417 939 253 939 q 485 940 461 939 l 575 942 m 765 482 q 779 617 779 556 q 722 797 779 744 q 568 849 665 849 q 488 835 528 849 l 388 235 q 379 161 379 189 q 399 106 379 119 q 471 93 418 93 q 642 177 560 93 q 765 482 725 261 m 1838 943 q 1861 847 1863 907 q 1303 93 1593 464 l 1386 93 q 1500 110 1457 93 q 1575 168 1543 126 q 1639 289 1607 210 q 1765 239 1714 279 q 1722 117 1743 185 q 1692 -4 1700 49 q 1335 0 1578 0 q 1021 -4 1113 0 q 997 94 996 36 q 1297 481 1164 304 q 1563 846 1431 657 l 1468 846 q 1383 828 1418 846 q 1320 768 1349 811 q 1261 644 1292 725 q 1133 683 1178 649 q 1176 808 1156 735 q 1207 943 1196 882 q 1529 939 1290 939 q 1838 943 1746 939 z "},"Ǆ":{"ha":1800,"x_min":21,"x_max":1863,"o":"m 575 942 q 899 865 778 942 q 1019 593 1019 789 q 1007 463 1019 533 q 787 98 960 196 q 418 0 614 0 l 414 0 q 21 -4 103 0 q 42 92 24 49 q 101 111 82 96 q 130 156 121 126 q 151 254 139 185 l 231 715 q 238 778 238 757 q 220 827 238 813 q 158 847 203 842 q 154 899 154 872 q 158 943 154 925 q 417 939 253 939 q 485 940 461 939 l 575 942 m 765 482 q 779 617 779 556 q 722 797 779 744 q 568 849 665 849 q 488 835 528 849 l 388 235 q 379 161 379 189 q 399 106 379 119 q 471 93 418 93 q 642 177 560 93 q 765 482 725 261 m 1838 943 q 1861 847 1863 907 q 1303 93 1593 464 l 1386 93 q 1500 110 1457 93 q 1575 168 1543 126 q 1639 289 1607 210 q 1765 239 1714 279 q 1722 117 1743 185 q 1692 -4 1700 49 q 1335 0 1578 0 q 1021 -4 1113 0 q 997 94 996 36 q 1297 481 1164 304 q 1563 846 1431 657 l 1468 846 q 1383 828 1418 846 q 1320 768 1349 811 q 1261 644 1292 725 q 1133 683 1178 649 q 1176 808 1156 735 q 1207 943 1196 882 q 1529 939 1290 939 q 1838 943 1746 939 m 1468 1011 q 1285 1168 1397 1088 q 1374 1239 1307 1233 q 1549 1160 1447 1194 q 1740 1242 1628 1178 q 1781 1215 1763 1235 q 1808 1169 1799 1194 q 1574 1025 1671 1092 q 1497 1008 1536 1008 q 1468 1011 1488 1008 z "},"Ð":{"ha":1019,"x_min":21,"x_max":1019,"o":"m 575 942 q 899 865 778 942 q 1019 593 1019 789 q 1007 463 1019 533 q 787 98 960 196 q 418 0 614 0 l 414 0 q 21 -4 103 0 q 42 92 24 49 q 103 112 83 96 q 131 157 122 128 q 151 254 140 186 l 179 418 l 79 417 q 96 529 79 483 l 199 529 l 231 715 q 238 778 238 757 q 220 827 238 813 q 158 847 203 842 q 154 899 154 872 q 158 943 154 925 q 417 939 253 939 q 485 940 461 939 l 575 942 m 765 482 q 779 617 779 556 q 722 797 779 744 q 568 849 665 849 q 488 835 528 849 l 438 529 l 608 529 q 593 419 608 461 q 418 421 539 421 l 388 235 q 379 161 379 189 q 399 106 379 119 q 471 93 418 93 q 642 177 560 93 q 765 482 725 261 z "},"Ď":{"ha":1019,"x_min":21,"x_max":1019,"o":"m 575 942 q 899 865 778 942 q 1019 593 1019 789 q 1007 463 1019 533 q 787 98 960 196 q 418 0 614 0 l 414 0 q 21 -4 103 0 q 42 92 24 49 q 101 111 82 96 q 130 156 121 126 q 151 254 139 185 l 231 715 q 238 778 238 757 q 220 827 238 813 q 158 847 203 842 q 154 899 154 872 q 158 943 154 925 q 417 939 253 939 q 485 940 461 939 l 575 942 m 765 482 q 779 617 779 556 q 722 797 779 744 q 568 849 665 849 q 488 835 528 849 l 388 235 q 379 161 379 189 q 399 106 379 119 q 471 93 418 93 q 642 177 560 93 q 765 482 725 261 m 535 1011 q 351 1168 464 1088 q 440 1239 374 1233 q 615 1160 514 1194 q 807 1242 694 1178 q 847 1215 829 1235 q 875 1169 865 1194 q 640 1025 738 1092 q 564 1008 603 1008 q 535 1011 554 1008 z "},"Ḑ":{"ha":1019,"x_min":21,"x_max":1019,"o":"m 575 942 q 899 865 778 942 q 1019 593 1019 789 q 1007 463 1019 533 q 787 98 960 196 q 418 0 614 0 l 414 0 q 21 -4 103 0 q 42 92 24 49 q 101 111 82 96 q 130 156 121 126 q 151 254 139 185 l 231 715 q 238 778 238 757 q 220 827 238 813 q 158 847 203 842 q 154 899 154 872 q 158 943 154 925 q 417 939 253 939 q 485 940 461 939 l 575 942 m 765 482 q 779 617 779 556 q 722 797 779 744 q 568 849 665 849 q 488 835 528 849 l 388 235 q 379 161 379 189 q 399 106 379 119 q 471 93 418 93 q 642 177 560 93 q 765 482 725 261 m 342 -428 q 275 -382 294 -421 q 336 -322 313 -354 q 360 -264 360 -290 q 342 -233 360 -244 q 286 -217 324 -222 q 325 -96 289 -144 q 490 -54 426 -92 q 531 -81 518 -62 q 543 -129 543 -99 q 540 -165 543 -151 q 342 -428 515 -317 z "},"Đ":{"ha":1019,"x_min":21,"x_max":1019,"o":"m 575 942 q 899 865 778 942 q 1019 593 1019 789 q 1007 463 1019 533 q 787 98 960 196 q 418 0 614 0 l 414 0 q 21 -4 103 0 q 42 92 24 49 q 103 112 83 96 q 131 157 122 128 q 151 254 140 186 l 179 418 l 79 417 q 96 529 79 483 l 199 529 l 231 715 q 238 778 238 757 q 220 827 238 813 q 158 847 203 842 q 154 899 154 872 q 158 943 154 925 q 417 939 253 939 q 485 940 461 939 l 575 942 m 765 482 q 779 617 779 556 q 722 797 779 744 q 568 849 665 849 q 488 835 528 849 l 438 529 l 608 529 q 593 419 608 461 q 418 421 539 421 l 388 235 q 379 161 379 189 q 399 106 379 119 q 471 93 418 93 q 642 177 560 93 q 765 482 725 261 z "},"Ḍ":{"ha":1019,"x_min":21,"x_max":1019,"o":"m 575 942 q 899 865 778 942 q 1019 593 1019 789 q 1007 463 1019 533 q 787 98 960 196 q 418 0 614 0 l 414 0 q 21 -4 103 0 q 42 92 24 49 q 101 111 82 96 q 130 156 121 126 q 151 254 139 185 l 231 715 q 238 778 238 757 q 220 827 238 813 q 158 847 203 842 q 154 899 154 872 q 158 943 154 925 q 417 939 253 939 q 485 940 461 939 l 575 942 m 765 482 q 779 617 779 556 q 722 797 779 744 q 568 849 665 849 q 488 835 528 849 l 388 235 q 379 161 379 189 q 399 106 379 119 q 471 93 418 93 q 642 177 560 93 q 765 482 725 261 m 390 -331 q 304 -305 335 -331 q 274 -236 274 -279 q 276 -211 274 -228 q 325 -131 286 -158 q 419 -103 364 -103 q 505 -129 475 -103 q 535 -201 535 -156 q 533 -224 535 -215 q 485 -303 524 -276 q 390 -331 447 -331 z "},"Ḏ":{"ha":1019,"x_min":21,"x_max":1019,"o":"m 575 942 q 899 865 778 942 q 1019 593 1019 789 q 1007 463 1019 533 q 787 98 960 196 q 418 0 614 0 l 414 0 q 21 -4 103 0 q 42 92 24 49 q 101 111 82 96 q 130 156 121 126 q 151 254 139 185 l 231 715 q 238 778 238 757 q 220 827 238 813 q 158 847 203 842 q 154 899 154 872 q 158 943 154 925 q 417 939 253 939 q 485 940 461 939 l 575 942 m 765 482 q 779 617 779 556 q 722 797 779 744 q 568 849 665 849 q 488 835 528 849 l 388 235 q 379 161 379 189 q 399 106 379 119 q 471 93 418 93 q 642 177 560 93 q 765 482 725 261 m 151 -250 q 164 -167 151 -197 l 663 -167 q 650 -242 663 -204 q 151 -250 365 -242 z "},"ǲ":{"ha":1636,"x_min":21,"x_max":1635,"o":"m 575 942 q 899 865 778 942 q 1019 593 1019 789 q 1007 463 1019 533 q 787 98 960 196 q 418 0 614 0 l 414 0 q 21 -4 103 0 q 42 92 24 49 q 101 111 82 96 q 130 156 121 126 q 151 254 139 185 l 231 715 q 238 778 238 757 q 220 827 238 813 q 158 847 203 842 q 154 899 154 872 q 158 943 154 925 q 417 939 253 939 q 485 940 461 939 l 575 942 m 765 482 q 779 617 779 556 q 722 797 779 744 q 568 849 665 849 q 488 835 528 849 l 388 235 q 379 161 379 189 q 399 106 379 119 q 471 93 418 93 q 642 177 560 93 q 765 482 725 261 m 1403 179 q 1453 195 1438 179 q 1489 256 1469 211 q 1550 249 1519 256 q 1603 231 1581 242 q 1576 138 1586 193 q 1564 32 1567 82 q 1525 -2 1553 8 q 1435 -12 1497 -12 q 1318 -7 1396 -12 q 1185 0 1251 0 q 1024 -12 1106 0 q 1001 65 1001 21 q 1003 86 1001 79 q 1411 451 1260 278 q 1324 458 1368 458 q 1243 440 1269 458 q 1188 364 1217 422 q 1122 374 1154 364 q 1071 400 1090 383 q 1150 636 1132 517 q 1385 643 1219 643 q 1607 636 1536 643 q 1635 549 1632 600 q 1272 172 1482 344 q 1336 183 1306 183 l 1369 182 q 1403 179 1392 179 z "},"ǅ":{"ha":1636,"x_min":21,"x_max":1700,"o":"m 575 942 q 899 865 778 942 q 1019 593 1019 789 q 1007 463 1019 533 q 787 98 960 196 q 418 0 614 0 l 414 0 q 21 -4 103 0 q 42 92 24 49 q 101 111 82 96 q 130 156 121 126 q 151 254 139 185 l 231 715 q 238 778 238 757 q 220 827 238 813 q 158 847 203 842 q 154 899 154 872 q 158 943 154 925 q 417 939 253 939 q 485 940 461 939 l 575 942 m 765 482 q 779 617 779 556 q 722 797 779 744 q 568 849 665 849 q 488 835 528 849 l 388 235 q 379 161 379 189 q 399 106 379 119 q 471 93 418 93 q 642 177 560 93 q 765 482 725 261 m 1403 179 q 1453 195 1438 179 q 1489 256 1469 211 q 1550 249 1519 256 q 1603 231 1581 242 q 1576 138 1586 193 q 1564 32 1567 82 q 1525 -2 1553 8 q 1435 -12 1497 -12 q 1318 -7 1396 -12 q 1185 0 1251 0 q 1024 -12 1106 0 q 1001 65 1001 21 q 1003 86 1001 79 q 1411 451 1260 278 q 1324 458 1368 458 q 1243 440 1269 458 q 1188 364 1217 422 q 1122 374 1154 364 q 1071 400 1090 383 q 1150 636 1132 517 q 1385 643 1219 643 q 1607 636 1536 643 q 1635 549 1632 600 q 1272 172 1482 344 q 1336 183 1306 183 l 1369 182 q 1403 179 1392 179 m 1350 717 q 1176 928 1268 832 q 1269 996 1203 988 q 1439 882 1344 931 q 1542 933 1489 903 q 1636 993 1594 963 q 1674 967 1657 986 q 1700 926 1690 949 q 1456 729 1549 821 q 1381 715 1426 715 q 1350 717 1360 715 z "},"E":{"ha":867,"x_min":21,"x_max":888,"o":"m 492 846 l 438 524 l 464 524 q 560 543 533 524 q 596 622 588 563 q 669 629 635 629 q 707 628 694 629 q 675 456 686 532 q 661 301 663 361 q 556 321 597 304 q 535 403 557 375 q 451 431 514 431 l 422 431 l 390 239 q 382 165 382 193 q 403 108 382 122 q 476 93 424 93 l 499 93 q 631 137 583 93 q 715 286 678 181 q 780 270 753 281 q 832 239 807 260 q 794 124 813 189 q 768 -4 776 60 q 419 0 685 0 q 21 -4 114 0 q 43 93 24 47 q 101 110 82 97 q 130 153 119 122 q 153 254 140 183 l 232 710 q 239 772 239 751 q 221 826 239 811 q 157 847 203 840 q 153 896 153 872 q 157 943 153 918 q 500 939 247 939 q 888 943 743 939 q 872 761 872 856 q 875 697 872 739 q 756 682 818 682 q 740 774 753 740 q 689 827 726 808 q 581 846 651 846 l 492 846 z "},"É":{"ha":867,"x_min":21,"x_max":888,"o":"m 492 846 l 438 524 l 464 524 q 560 543 533 524 q 596 622 588 563 q 669 629 635 629 q 707 628 694 629 q 675 456 686 532 q 661 301 663 361 q 556 321 597 304 q 535 403 557 375 q 451 431 514 431 l 422 431 l 390 239 q 382 165 382 193 q 403 108 382 122 q 476 93 424 93 l 499 93 q 631 137 583 93 q 715 286 678 181 q 780 270 753 281 q 832 239 807 260 q 794 124 813 189 q 768 -4 776 60 q 419 0 685 0 q 21 -4 114 0 q 43 93 24 47 q 101 110 82 97 q 130 153 119 122 q 153 254 140 183 l 232 710 q 239 772 239 751 q 221 826 239 811 q 157 847 203 840 q 153 896 153 872 q 157 943 153 918 q 500 939 247 939 q 888 943 743 939 q 872 761 872 856 q 875 697 872 739 q 756 682 818 682 q 740 774 753 740 q 689 827 726 808 q 581 846 651 846 l 492 846 m 546 1015 q 433 1057 483 1022 q 496 1143 465 1093 q 540 1225 526 1193 q 600 1228 579 1228 q 751 1204 697 1228 q 546 1015 633 1100 z "},"Ĕ":{"ha":867,"x_min":21,"x_max":888,"o":"m 492 846 l 438 524 l 464 524 q 560 543 533 524 q 596 622 588 563 q 669 629 635 629 q 707 628 694 629 q 675 456 686 532 q 661 301 663 361 q 556 321 597 304 q 535 403 557 375 q 451 431 514 431 l 422 431 l 390 239 q 382 165 382 193 q 403 108 382 122 q 476 93 424 93 l 499 93 q 631 137 583 93 q 715 286 678 181 q 780 270 753 281 q 832 239 807 260 q 794 124 813 189 q 768 -4 776 60 q 419 0 685 0 q 21 -4 114 0 q 43 93 24 47 q 101 110 82 97 q 130 153 119 122 q 153 254 140 183 l 232 710 q 239 772 239 751 q 221 826 239 811 q 157 847 203 840 q 153 896 153 872 q 157 943 153 918 q 500 939 247 939 q 888 943 743 939 q 872 761 872 856 q 875 697 872 739 q 756 682 818 682 q 740 774 753 740 q 689 827 726 808 q 581 846 651 846 l 492 846 m 522 1006 q 286 1165 286 1006 q 290 1208 286 1186 q 385 1224 333 1224 q 418 1221 396 1224 q 454 1156 417 1178 q 561 1133 492 1133 q 673 1156 629 1133 q 729 1221 717 1178 q 768 1225 750 1225 q 833 1213 801 1225 q 736 1058 815 1111 q 522 1006 657 1006 z "},"Ě":{"ha":867,"x_min":21,"x_max":888,"o":"m 492 846 l 438 524 l 464 524 q 560 543 533 524 q 596 622 588 563 q 669 629 635 629 q 707 628 694 629 q 675 456 686 532 q 661 301 663 361 q 556 321 597 304 q 535 403 557 375 q 451 431 514 431 l 422 431 l 390 239 q 382 165 382 193 q 403 108 382 122 q 476 93 424 93 l 499 93 q 631 137 583 93 q 715 286 678 181 q 780 270 753 281 q 832 239 807 260 q 794 124 813 189 q 768 -4 776 60 q 419 0 685 0 q 21 -4 114 0 q 43 93 24 47 q 101 110 82 97 q 130 153 119 122 q 153 254 140 183 l 232 710 q 239 772 239 751 q 221 826 239 811 q 157 847 203 840 q 153 896 153 872 q 157 943 153 918 q 500 939 247 939 q 888 943 743 939 q 872 761 872 856 q 875 697 872 739 q 756 682 818 682 q 740 774 753 740 q 689 827 726 808 q 581 846 651 846 l 492 846 m 482 1011 q 299 1168 411 1088 q 388 1239 321 1233 q 563 1160 461 1194 q 754 1242 642 1178 q 794 1215 776 1235 q 822 1169 813 1194 q 588 1025 685 1092 q 511 1008 550 1008 q 482 1011 501 1008 z "},"Ȩ":{"ha":867,"x_min":21,"x_max":888,"o":"m 492 846 l 438 524 l 464 524 q 560 543 533 524 q 596 622 588 563 q 669 629 635 629 q 707 628 694 629 q 675 456 686 532 q 661 301 663 361 q 556 321 597 304 q 535 403 557 375 q 451 431 514 431 l 422 431 l 390 239 q 382 165 382 193 q 403 108 382 122 q 476 93 424 93 l 499 93 q 631 137 583 93 q 715 286 678 181 q 780 270 753 281 q 832 239 807 260 q 794 124 813 189 q 768 -4 776 60 q 465 0 696 0 l 406 -67 q 488 -172 488 -92 q 483 -210 488 -192 q 405 -306 471 -272 q 231 -336 339 -339 q 226 -308 226 -324 q 232 -272 226 -294 q 315 -258 281 -274 q 354 -217 349 -243 q 356 -204 356 -212 q 335 -164 356 -178 q 281 -150 314 -150 q 268 -87 264 -124 l 353 0 q 21 -4 136 0 q 43 93 24 47 q 101 110 82 97 q 130 153 119 122 q 153 254 140 183 l 232 710 q 239 772 239 751 q 221 826 239 811 q 157 847 203 840 q 153 896 153 872 q 157 943 153 918 q 500 939 247 939 q 888 943 743 939 q 872 761 872 856 q 875 697 872 739 q 756 682 818 682 q 740 774 753 740 q 689 827 726 808 q 581 846 651 846 l 492 846 z "},"Ḝ":{"ha":867,"x_min":21,"x_max":888,"o":"m 522 1006 q 286 1165 286 1006 q 290 1208 286 1186 q 383 1224 332 1224 q 417 1221 394 1224 q 454 1156 417 1178 q 561 1133 492 1133 q 672 1156 629 1133 q 728 1221 715 1178 q 767 1225 749 1225 q 833 1213 801 1225 q 735 1058 815 1111 q 522 1006 656 1006 m 492 846 l 438 524 l 464 524 q 560 543 533 524 q 596 622 588 563 q 669 629 635 629 q 707 628 694 629 q 675 456 686 532 q 661 301 663 361 q 556 321 597 304 q 535 403 557 375 q 451 431 514 431 l 422 431 l 390 239 q 382 165 382 193 q 403 108 382 122 q 476 93 424 93 l 499 93 q 631 137 583 93 q 715 286 678 181 q 780 270 753 281 q 832 239 807 260 q 794 124 813 189 q 768 -4 776 60 q 465 0 696 0 l 406 -67 q 488 -172 488 -92 q 483 -210 488 -192 q 405 -306 471 -272 q 231 -336 339 -339 q 226 -308 226 -324 q 232 -272 226 -294 q 315 -258 281 -274 q 354 -217 349 -243 q 356 -204 356 -212 q 335 -164 356 -178 q 281 -150 314 -150 q 268 -87 264 -124 l 353 0 q 21 -4 136 0 q 43 93 24 47 q 101 110 82 97 q 130 153 119 122 q 153 254 140 183 l 232 710 q 239 772 239 751 q 221 826 239 811 q 157 847 203 840 q 153 896 153 872 q 157 943 153 918 q 500 939 247 939 q 888 943 743 939 q 872 761 872 856 q 875 697 872 739 q 756 682 818 682 q 740 774 753 740 q 689 827 726 808 q 581 846 651 846 l 492 846 z "},"Ê":{"ha":867,"x_min":21,"x_max":888,"o":"m 492 846 l 438 524 l 464 524 q 560 543 533 524 q 596 622 588 563 q 669 629 635 629 q 707 628 694 629 q 675 456 686 532 q 661 301 663 361 q 556 321 597 304 q 535 403 557 375 q 451 431 514 431 l 422 431 l 390 239 q 382 165 382 193 q 403 108 382 122 q 476 93 424 93 l 499 93 q 631 137 583 93 q 715 286 678 181 q 780 270 753 281 q 832 239 807 260 q 794 124 813 189 q 768 -4 776 60 q 419 0 685 0 q 21 -4 114 0 q 43 93 24 47 q 101 110 82 97 q 130 153 119 122 q 153 254 140 183 l 232 710 q 239 772 239 751 q 221 826 239 811 q 157 847 203 840 q 153 896 153 872 q 157 943 153 918 q 500 939 247 939 q 888 943 743 939 q 872 761 872 856 q 875 697 872 739 q 756 682 818 682 q 740 774 753 740 q 689 827 726 808 q 581 846 651 846 l 492 846 m 363 1003 q 318 1037 336 1013 q 294 1085 300 1061 q 417 1153 351 1111 q 539 1236 483 1194 q 572 1239 561 1239 q 642 1228 608 1239 q 826 1050 707 1158 q 784 1026 811 1035 q 725 1015 757 1017 q 556 1097 629 1074 q 429 1036 501 1076 l 363 1003 z "},"Ế":{"ha":867,"x_min":21,"x_max":1007,"o":"m 492 846 l 438 524 l 464 524 q 560 543 533 524 q 596 622 588 563 q 669 629 635 629 q 707 628 694 629 q 675 456 686 532 q 661 301 663 361 q 556 321 597 304 q 535 403 557 375 q 451 431 514 431 l 422 431 l 390 239 q 382 165 382 193 q 403 108 382 122 q 476 93 424 93 l 499 93 q 631 137 583 93 q 715 286 678 181 q 780 270 753 281 q 832 239 807 260 q 794 124 813 189 q 768 -4 776 60 q 419 0 685 0 q 21 -4 114 0 q 43 93 24 47 q 101 110 82 97 q 130 153 119 122 q 153 254 140 183 l 232 710 q 239 772 239 751 q 221 826 239 811 q 157 847 203 840 q 153 896 153 872 q 157 943 153 918 q 500 939 247 939 q 888 943 743 939 q 872 761 872 856 q 875 697 872 739 q 756 682 818 682 q 740 774 753 740 q 689 827 726 808 q 581 846 651 846 l 492 846 m 821 1193 q 721 1231 768 1200 q 777 1309 750 1264 q 817 1382 804 1354 q 869 1385 853 1385 q 1007 1363 956 1385 q 821 1193 876 1247 m 363 1003 q 318 1038 336 1013 q 296 1085 300 1063 q 419 1153 353 1111 q 540 1236 485 1194 q 574 1239 563 1239 q 643 1228 607 1239 q 826 1050 704 1161 q 785 1026 813 1035 q 726 1015 758 1017 q 557 1097 631 1074 q 428 1036 525 1085 q 363 1003 393 1017 z "},"Ệ":{"ha":867,"x_min":21,"x_max":888,"o":"m 492 846 l 438 524 l 464 524 q 560 543 533 524 q 596 622 588 563 q 669 629 635 629 q 707 628 694 629 q 675 456 686 532 q 661 301 663 361 q 556 321 597 304 q 535 403 557 375 q 451 431 514 431 l 422 431 l 390 239 q 382 165 382 193 q 403 108 382 122 q 476 93 424 93 l 499 93 q 631 137 583 93 q 715 286 678 181 q 780 270 753 281 q 832 239 807 260 q 794 124 813 189 q 768 -4 776 60 q 419 0 685 0 q 21 -4 114 0 q 43 93 24 47 q 101 110 82 97 q 130 153 119 122 q 153 254 140 183 l 232 710 q 239 772 239 751 q 221 826 239 811 q 157 847 203 840 q 153 896 153 872 q 157 943 153 918 q 500 939 247 939 q 888 943 743 939 q 872 761 872 856 q 875 697 872 739 q 756 682 818 682 q 740 774 753 740 q 689 827 726 808 q 581 846 651 846 l 492 846 m 342 -331 q 256 -305 286 -331 q 225 -236 225 -279 q 228 -211 225 -228 q 276 -131 238 -158 q 371 -103 315 -103 q 456 -129 426 -103 q 486 -201 486 -156 q 485 -224 486 -215 q 437 -303 475 -276 q 342 -331 399 -331 m 363 1003 q 318 1037 336 1013 q 294 1085 300 1061 q 417 1153 351 1111 q 539 1236 483 1194 q 572 1239 561 1239 q 642 1228 608 1239 q 826 1050 707 1158 q 784 1026 811 1035 q 725 1015 757 1017 q 556 1097 629 1074 q 429 1036 501 1076 l 363 1003 z "},"Ề":{"ha":867,"x_min":21,"x_max":888,"o":"m 492 846 l 438 524 l 464 524 q 560 543 533 524 q 596 622 588 563 q 669 629 635 629 q 707 628 694 629 q 675 456 686 532 q 661 301 663 361 q 556 321 597 304 q 535 403 557 375 q 451 431 514 431 l 422 431 l 390 239 q 382 165 382 193 q 403 108 382 122 q 476 93 424 93 l 499 93 q 631 137 583 93 q 715 286 678 181 q 780 270 753 281 q 832 239 807 260 q 794 124 813 189 q 768 -4 776 60 q 419 0 685 0 q 21 -4 114 0 q 43 93 24 47 q 101 110 82 97 q 130 153 119 122 q 153 254 140 183 l 232 710 q 239 772 239 751 q 221 826 239 811 q 157 847 203 840 q 153 896 153 872 q 157 943 153 918 q 500 939 247 939 q 888 943 743 939 q 872 761 872 856 q 875 697 872 739 q 756 682 818 682 q 740 774 753 740 q 689 827 726 808 q 581 846 651 846 l 492 846 z "},"Ể":{"ha":867,"x_min":21,"x_max":960,"o":"m 492 846 l 438 524 l 464 524 q 560 543 533 524 q 596 622 588 563 q 669 629 635 629 q 707 628 694 629 q 675 456 686 532 q 661 301 663 361 q 556 321 597 304 q 535 403 557 375 q 451 431 514 431 l 422 431 l 390 239 q 382 165 382 193 q 403 108 382 122 q 476 93 424 93 l 499 93 q 631 137 583 93 q 715 286 678 181 q 780 270 753 281 q 832 239 807 260 q 794 124 813 189 q 768 -4 776 60 q 419 0 685 0 q 21 -4 114 0 q 43 93 24 47 q 101 110 82 97 q 130 153 119 122 q 153 254 140 183 l 232 710 q 239 772 239 751 q 221 826 239 811 q 157 847 203 840 q 153 896 153 872 q 157 943 153 918 q 500 939 247 939 q 888 943 743 939 q 872 761 872 856 q 875 697 872 739 q 756 682 818 682 q 740 774 753 740 q 689 827 726 808 q 581 846 651 846 l 492 846 z "},"Ễ":{"ha":867,"x_min":21,"x_max":896,"o":"m 492 846 l 438 524 l 464 524 q 560 543 533 524 q 596 622 588 563 q 669 629 635 629 q 707 628 694 629 q 675 456 686 532 q 661 301 663 361 q 556 321 597 304 q 535 403 557 375 q 451 431 514 431 l 422 431 l 390 239 q 382 165 382 193 q 403 108 382 122 q 476 93 424 93 l 499 93 q 631 137 583 93 q 715 286 678 181 q 780 270 753 281 q 832 239 807 260 q 794 124 813 189 q 768 -4 776 60 q 419 0 685 0 q 21 -4 114 0 q 43 93 24 47 q 101 110 82 97 q 130 153 119 122 q 153 254 140 183 l 232 710 q 239 772 239 751 q 221 826 239 811 q 157 847 203 840 q 153 896 153 872 q 157 943 153 918 q 500 939 247 939 q 888 943 743 939 q 872 761 872 856 q 875 697 872 739 q 756 682 818 682 q 740 774 753 740 q 689 827 726 808 q 581 846 651 846 l 492 846 m 363 1003 q 318 1037 336 1013 q 294 1085 300 1061 q 417 1153 351 1111 q 539 1236 483 1194 q 572 1239 561 1239 q 642 1228 608 1239 q 826 1050 707 1158 q 784 1026 811 1035 q 725 1015 757 1017 q 556 1097 629 1074 q 429 1036 501 1076 l 363 1003 m 676 1296 q 617 1305 640 1296 q 567 1332 594 1314 q 531 1353 546 1346 q 494 1360 515 1360 q 374 1299 440 1360 q 351 1340 358 1321 q 344 1385 344 1360 l 346 1406 q 445 1470 392 1450 q 546 1490 499 1490 q 604 1481 579 1490 q 658 1456 629 1472 q 699 1437 683 1443 q 732 1431 714 1431 q 826 1486 782 1431 q 896 1425 876 1464 q 794 1328 850 1361 q 676 1296 738 1296 z "},"Ȅ":{"ha":867,"x_min":21,"x_max":888,"o":"m 492 846 l 438 524 l 464 524 q 560 543 533 524 q 596 622 588 563 q 669 629 635 629 q 707 628 694 629 q 675 456 686 532 q 661 301 663 361 q 556 321 597 304 q 535 403 557 375 q 451 431 514 431 l 422 431 l 390 239 q 382 165 382 193 q 403 108 382 122 q 476 93 424 93 l 499 93 q 631 137 583 93 q 715 286 678 181 q 780 270 753 281 q 832 239 807 260 q 794 124 813 189 q 768 -4 776 60 q 419 0 685 0 q 21 -4 114 0 q 43 93 24 47 q 101 110 82 97 q 130 153 119 122 q 153 254 140 183 l 232 710 q 239 772 239 751 q 221 826 239 811 q 157 847 203 840 q 153 896 153 872 q 157 943 153 918 q 500 939 247 939 q 888 943 743 939 q 872 761 872 856 q 875 697 872 739 q 756 682 818 682 q 740 774 753 740 q 689 827 726 808 q 581 846 651 846 l 492 846 m 629 1051 q 544 1181 576 1138 q 643 1193 585 1193 q 713 1188 683 1193 q 775 1004 738 1081 q 714 1000 746 1000 q 660 1004 689 1000 l 629 1051 m 399 1004 q 272 1176 321 1115 q 386 1193 319 1193 q 451 1188 410 1193 q 515 1004 482 1074 q 454 1000 486 1000 q 399 1004 429 1000 z "},"Ë":{"ha":867,"x_min":21,"x_max":888,"o":"m 492 846 l 438 524 l 464 524 q 560 543 533 524 q 596 622 588 563 q 669 629 635 629 q 707 628 694 629 q 675 456 686 532 q 661 301 663 361 q 556 321 597 304 q 535 403 557 375 q 451 431 514 431 l 422 431 l 390 239 q 382 165 382 193 q 403 108 382 122 q 476 93 424 93 l 499 93 q 631 137 583 93 q 715 286 678 181 q 780 270 753 281 q 832 239 807 260 q 794 124 813 189 q 768 -4 776 60 q 419 0 685 0 q 21 -4 114 0 q 43 93 24 47 q 101 110 82 97 q 130 153 119 122 q 153 254 140 183 l 232 710 q 239 772 239 751 q 221 826 239 811 q 157 847 203 840 q 153 896 153 872 q 157 943 153 918 q 500 939 247 939 q 888 943 743 939 q 872 761 872 856 q 875 697 872 739 q 756 682 818 682 q 740 774 753 740 q 689 827 726 808 q 581 846 651 846 l 492 846 m 400 1003 q 319 1032 349 1003 q 289 1111 289 1061 q 396 1218 289 1218 q 477 1191 447 1218 q 507 1115 507 1164 q 480 1033 507 1063 q 400 1003 453 1003 m 714 1003 q 631 1031 661 1003 q 601 1110 601 1060 q 715 1218 601 1218 q 796 1190 767 1218 q 825 1113 825 1163 q 797 1031 825 1060 q 714 1003 769 1003 z "},"Ė":{"ha":867,"x_min":21,"x_max":888,"o":"m 492 846 l 438 524 l 464 524 q 560 543 533 524 q 596 622 588 563 q 669 629 635 629 q 707 628 694 629 q 675 456 686 532 q 661 301 663 361 q 556 321 597 304 q 535 403 557 375 q 451 431 514 431 l 422 431 l 390 239 q 382 165 382 193 q 403 108 382 122 q 476 93 424 93 l 499 93 q 631 137 583 93 q 715 286 678 181 q 780 270 753 281 q 832 239 807 260 q 794 124 813 189 q 768 -4 776 60 q 419 0 685 0 q 21 -4 114 0 q 43 93 24 47 q 101 110 82 97 q 130 153 119 122 q 153 254 140 183 l 232 710 q 239 772 239 751 q 221 826 239 811 q 157 847 203 840 q 153 896 153 872 q 157 943 153 918 q 500 939 247 939 q 888 943 743 939 q 872 761 872 856 q 875 697 872 739 q 756 682 818 682 q 740 774 753 740 q 689 827 726 808 q 581 846 651 846 l 492 846 m 536 996 q 456 1022 486 996 q 425 1094 425 1049 q 465 1180 425 1150 q 575 1210 504 1210 q 656 1183 625 1210 q 686 1110 686 1156 q 685 1093 686 1099 q 641 1020 678 1044 q 536 996 604 996 z "},"Ẹ":{"ha":867,"x_min":21,"x_max":888,"o":"m 492 846 l 438 524 l 464 524 q 560 543 533 524 q 596 622 588 563 q 669 629 635 629 q 707 628 694 629 q 675 456 686 532 q 661 301 663 361 q 556 321 597 304 q 535 403 557 375 q 451 431 514 431 l 422 431 l 390 239 q 382 165 382 193 q 403 108 382 122 q 476 93 424 93 l 499 93 q 631 137 583 93 q 715 286 678 181 q 780 270 753 281 q 832 239 807 260 q 794 124 813 189 q 768 -4 776 60 q 419 0 685 0 q 21 -4 114 0 q 43 93 24 47 q 101 110 82 97 q 130 153 119 122 q 153 254 140 183 l 232 710 q 239 772 239 751 q 221 826 239 811 q 157 847 203 840 q 153 896 153 872 q 157 943 153 918 q 500 939 247 939 q 888 943 743 939 q 872 761 872 856 q 875 697 872 739 q 756 682 818 682 q 740 774 753 740 q 689 827 726 808 q 581 846 651 846 l 492 846 m 342 -331 q 256 -305 286 -331 q 225 -236 225 -279 q 228 -211 225 -228 q 276 -131 238 -158 q 371 -103 315 -103 q 456 -129 426 -103 q 486 -201 486 -156 q 485 -224 486 -215 q 437 -303 475 -276 q 342 -331 399 -331 z "},"È":{"ha":867,"x_min":21,"x_max":888,"o":"m 492 846 l 438 524 l 464 524 q 560 543 533 524 q 596 622 588 563 q 669 629 635 629 q 707 628 694 629 q 675 456 686 532 q 661 301 663 361 q 556 321 597 304 q 535 403 557 375 q 451 431 514 431 l 422 431 l 390 239 q 382 165 382 193 q 403 108 382 122 q 476 93 424 93 l 499 93 q 631 137 583 93 q 715 286 678 181 q 780 270 753 281 q 832 239 807 260 q 794 124 813 189 q 768 -4 776 60 q 419 0 685 0 q 21 -4 114 0 q 43 93 24 47 q 101 110 82 97 q 130 153 119 122 q 153 254 140 183 l 232 710 q 239 772 239 751 q 221 826 239 811 q 157 847 203 840 q 153 896 153 872 q 157 943 153 918 q 500 939 247 939 q 888 943 743 939 q 872 761 872 856 q 875 697 872 739 q 756 682 818 682 q 740 774 753 740 q 689 827 726 808 q 581 846 651 846 l 492 846 m 622 1028 q 558 1021 594 1021 q 488 1029 517 1021 q 429 1110 468 1063 q 353 1194 390 1157 q 488 1213 428 1213 q 554 1207 525 1213 q 622 1028 581 1106 z "},"Ẻ":{"ha":867,"x_min":21,"x_max":888,"o":"m 492 846 l 438 524 l 464 524 q 560 543 533 524 q 596 622 588 563 q 669 629 635 629 q 707 628 694 629 q 675 456 686 532 q 661 301 663 361 q 556 321 597 304 q 535 403 557 375 q 451 431 514 431 l 422 431 l 390 239 q 382 165 382 193 q 403 108 382 122 q 476 93 424 93 l 499 93 q 631 137 583 93 q 715 286 678 181 q 780 270 753 281 q 832 239 807 260 q 794 124 813 189 q 768 -4 776 60 q 419 0 685 0 q 21 -4 114 0 q 43 93 24 47 q 101 110 82 97 q 130 153 119 122 q 153 254 140 183 l 232 710 q 239 772 239 751 q 221 826 239 811 q 157 847 203 840 q 153 896 153 872 q 157 943 153 918 q 500 939 247 939 q 888 943 743 939 q 872 761 872 856 q 875 697 872 739 q 756 682 818 682 q 740 774 753 740 q 689 827 726 808 q 581 846 651 846 l 492 846 m 496 1008 q 490 1035 490 1022 q 506 1083 490 1067 q 550 1114 521 1099 q 580 1133 569 1125 q 596 1153 590 1140 q 599 1165 599 1161 q 590 1181 599 1175 q 565 1188 581 1188 q 490 1108 511 1188 q 401 1125 431 1108 q 421 1217 421 1174 q 500 1242 456 1232 q 589 1251 544 1251 q 688 1231 654 1251 q 722 1175 722 1211 q 718 1149 722 1164 q 688 1099 708 1117 q 638 1067 668 1082 q 606 1048 617 1057 q 590 1026 594 1039 q 589 1001 585 1013 q 557 999 569 999 q 496 1008 517 999 z "},"Ȇ":{"ha":867,"x_min":21,"x_max":888,"o":"m 492 846 l 438 524 l 464 524 q 560 543 533 524 q 596 622 588 563 q 669 629 635 629 q 707 628 694 629 q 675 456 686 532 q 661 301 663 361 q 556 321 597 304 q 535 403 557 375 q 451 431 514 431 l 422 431 l 390 239 q 382 165 382 193 q 403 108 382 122 q 476 93 424 93 l 499 93 q 631 137 583 93 q 715 286 678 181 q 780 270 753 281 q 832 239 807 260 q 794 124 813 189 q 768 -4 776 60 q 419 0 685 0 q 21 -4 114 0 q 43 93 24 47 q 101 110 82 97 q 130 153 119 122 q 153 254 140 183 l 232 710 q 239 772 239 751 q 221 826 239 811 q 157 847 203 840 q 153 896 153 872 q 157 943 153 918 q 500 939 247 939 q 888 943 743 939 q 872 761 872 856 q 875 697 872 739 q 756 682 818 682 q 740 774 753 740 q 689 827 726 808 q 581 846 651 846 l 492 846 m 594 1217 q 831 1057 831 1217 q 826 1014 831 1038 q 738 999 788 999 q 700 1001 725 999 q 663 1067 700 1044 q 556 1089 625 1089 q 444 1067 488 1089 q 388 1001 400 1044 q 347 997 367 997 q 283 1010 308 997 q 381 1164 301 1111 q 594 1217 460 1217 z "},"Ē":{"ha":867,"x_min":21,"x_max":888,"o":"m 492 846 l 438 524 l 464 524 q 560 543 533 524 q 596 622 588 563 q 669 629 635 629 q 707 628 694 629 q 675 456 686 532 q 661 301 663 361 q 556 321 597 304 q 535 403 557 375 q 451 431 514 431 l 422 431 l 390 239 q 382 165 382 193 q 403 108 382 122 q 476 93 424 93 l 499 93 q 631 137 583 93 q 715 286 678 181 q 780 270 753 281 q 832 239 807 260 q 794 124 813 189 q 768 -4 776 60 q 419 0 685 0 q 21 -4 114 0 q 43 93 24 47 q 101 110 82 97 q 130 153 119 122 q 153 254 140 183 l 232 710 q 239 772 239 751 q 221 826 239 811 q 157 847 203 840 q 153 896 153 872 q 157 943 153 918 q 500 939 247 939 q 888 943 743 939 q 872 761 872 856 q 875 697 872 739 q 756 682 818 682 q 740 774 753 740 q 689 827 726 808 q 581 846 651 846 l 492 846 m 301 1063 q 314 1146 301 1115 l 813 1146 q 800 1071 813 1111 q 301 1063 515 1071 z "},"Ḗ":{"ha":867,"x_min":21,"x_max":888,"o":"m 492 846 l 438 524 l 464 524 q 560 543 533 524 q 596 622 588 563 q 669 629 635 629 q 707 628 694 629 q 675 456 686 532 q 661 301 663 361 q 556 321 597 304 q 535 403 557 375 q 451 431 514 431 l 422 431 l 390 239 q 382 165 382 193 q 403 108 382 122 q 476 93 424 93 l 499 93 q 631 137 583 93 q 715 286 678 181 q 780 270 753 281 q 832 239 807 260 q 794 124 813 189 q 768 -4 776 60 q 419 0 685 0 q 21 -4 114 0 q 43 93 24 47 q 101 110 82 97 q 130 153 119 122 q 153 254 140 183 l 232 710 q 239 772 239 751 q 221 826 239 811 q 157 847 203 840 q 153 896 153 872 q 157 943 153 918 q 500 939 247 939 q 888 943 743 939 q 872 761 872 856 q 875 697 872 739 q 756 682 818 682 q 740 774 753 740 q 689 827 726 808 q 581 846 651 846 l 492 846 m 301 1063 q 314 1146 301 1115 l 813 1146 q 800 1071 813 1111 q 301 1063 515 1071 m 586 1222 q 474 1264 524 1229 q 536 1350 506 1300 q 581 1432 567 1400 q 640 1435 619 1435 q 792 1411 738 1435 q 586 1222 674 1307 z "},"Ḕ":{"ha":867,"x_min":21,"x_max":888,"o":"m 492 846 l 438 524 l 464 524 q 560 543 533 524 q 596 622 588 563 q 669 629 635 629 q 707 628 694 629 q 675 456 686 532 q 661 301 663 361 q 556 321 597 304 q 535 403 557 375 q 451 431 514 431 l 422 431 l 390 239 q 382 165 382 193 q 403 108 382 122 q 476 93 424 93 l 499 93 q 631 137 583 93 q 715 286 678 181 q 780 270 753 281 q 832 239 807 260 q 794 124 813 189 q 768 -4 776 60 q 419 0 685 0 q 21 -4 114 0 q 43 93 24 47 q 101 110 82 97 q 130 153 119 122 q 153 254 140 183 l 232 710 q 239 772 239 751 q 221 826 239 811 q 157 847 203 840 q 153 896 153 872 q 157 943 153 918 q 500 939 247 939 q 888 943 743 939 q 872 761 872 856 q 875 697 872 739 q 756 682 818 682 q 740 774 753 740 q 689 827 726 808 q 581 846 651 846 l 492 846 m 301 1063 q 314 1146 301 1115 l 813 1146 q 800 1071 813 1111 q 301 1063 515 1071 m 663 1235 q 599 1228 635 1228 q 528 1236 557 1228 q 469 1317 508 1269 q 393 1401 431 1364 q 528 1419 468 1419 q 594 1414 565 1419 q 663 1235 621 1313 z "},"Ę":{"ha":867,"x_min":21,"x_max":888,"o":"m 492 846 l 438 524 l 464 524 q 560 543 533 524 q 596 622 588 563 q 669 629 635 629 q 707 628 694 629 q 675 456 686 532 q 661 301 663 361 q 556 321 597 304 q 535 403 557 375 q 451 431 514 431 l 422 431 l 390 239 q 382 165 382 193 q 403 108 382 122 q 476 93 424 93 l 499 93 q 631 137 583 93 q 715 286 678 181 q 780 270 753 281 q 832 239 807 260 q 794 124 813 189 q 768 -4 776 60 q 663 -1 710 -1 q 555 -64 590 -28 q 519 -137 519 -100 q 535 -179 519 -162 q 583 -196 551 -196 q 629 -185 613 -196 q 653 -225 644 -201 q 663 -271 661 -249 q 593 -302 628 -282 q 533 -344 558 -322 q 503 -346 521 -346 q 364 -313 415 -346 q 313 -214 313 -281 q 315 -181 313 -193 q 365 -87 325 -131 q 496 0 404 -43 l 419 0 q 21 -4 114 0 q 43 93 24 47 q 101 110 82 97 q 130 153 119 122 q 153 254 140 183 l 232 710 q 239 772 239 751 q 221 826 239 811 q 157 847 203 840 q 153 896 153 872 q 157 943 153 918 q 500 939 247 939 q 888 943 743 939 q 872 761 872 856 q 875 697 872 739 q 756 682 818 682 q 740 774 753 740 q 689 827 726 808 q 581 846 651 846 l 492 846 z "},"Ǝ":{"ha":860,"x_min":1,"x_max":942,"o":"m 601 939 q 942 943 825 939 q 934 892 942 919 q 915 847 926 864 q 852 830 874 842 q 817 790 831 818 q 793 703 804 761 l 704 242 q 693 156 693 183 q 709 109 693 124 q 767 92 725 94 q 758 -4 769 36 q 347 0 563 0 q 1 -3 151 0 q 13 154 13 83 q 6 250 13 201 q 58 265 24 260 q 128 269 92 271 q 153 165 136 203 q 204 110 169 128 q 301 93 239 93 l 321 93 q 388 103 363 93 q 433 148 414 114 q 465 249 453 182 l 499 422 l 476 422 q 378 401 408 422 q 329 319 347 381 q 222 310 286 308 q 260 475 246 396 q 285 633 278 574 q 390 617 356 631 q 386 579 386 596 q 410 529 386 543 q 493 515 433 515 l 517 515 l 581 847 l 497 847 q 344 801 397 847 q 267 672 292 754 q 153 717 194 683 q 192 826 171 758 q 224 943 213 894 q 601 939 328 939 z "},"Ẽ":{"ha":867,"x_min":21,"x_max":888,"o":"m 492 846 l 438 524 l 464 524 q 560 543 533 524 q 596 622 588 563 q 669 629 635 629 q 707 628 694 629 q 675 456 686 532 q 661 301 663 361 q 556 321 597 304 q 535 403 557 375 q 451 431 514 431 l 422 431 l 390 239 q 382 165 382 193 q 403 108 382 122 q 476 93 424 93 l 499 93 q 631 137 583 93 q 715 286 678 181 q 780 270 753 281 q 832 239 807 260 q 794 124 813 189 q 768 -4 776 60 q 419 0 685 0 q 21 -4 114 0 q 43 93 24 47 q 101 110 82 97 q 130 153 119 122 q 153 254 140 183 l 232 710 q 239 772 239 751 q 221 826 239 811 q 157 847 203 840 q 153 896 153 872 q 157 943 153 918 q 500 939 247 939 q 888 943 743 939 q 872 761 872 856 q 875 697 872 739 q 756 682 818 682 q 740 774 753 740 q 689 827 726 808 q 581 846 651 846 l 492 846 m 618 1025 q 559 1034 582 1025 q 508 1061 536 1043 q 472 1082 488 1075 q 436 1089 457 1089 q 315 1028 382 1089 q 293 1069 300 1050 q 286 1114 286 1089 l 288 1135 q 387 1199 333 1179 q 488 1219 440 1219 q 546 1210 521 1219 q 600 1185 571 1201 q 640 1166 625 1172 q 674 1160 656 1160 q 768 1215 724 1160 q 838 1154 818 1193 q 735 1058 792 1090 q 618 1025 679 1025 z "},"Ʒ":{"ha":821,"x_min":26,"x_max":863,"o":"m 846 942 q 863 874 863 915 q 861 849 863 858 q 571 513 722 668 q 727 445 672 497 q 782 308 782 393 q 776 251 782 279 q 634 57 753 126 q 314 -12 515 -12 q 145 7 218 -12 q 26 63 72 26 q 49 176 40 113 q 58 292 57 240 q 143 300 96 300 q 200 296 175 300 q 224 136 196 181 q 324 92 253 92 q 462 139 404 92 q 533 264 519 186 q 538 300 538 283 q 482 399 538 367 q 317 438 426 432 q 306 472 310 450 q 301 517 301 494 q 304 547 301 528 q 582 847 428 650 l 469 847 q 385 829 419 847 q 322 767 351 811 q 261 643 293 724 q 136 683 171 656 q 183 810 161 738 q 215 942 206 882 q 538 939 279 939 q 846 942 758 939 z "},"Ǯ":{"ha":821,"x_min":26,"x_max":863,"o":"m 846 942 q 863 874 863 915 q 861 849 863 858 q 571 513 722 668 q 727 445 672 497 q 782 308 782 393 q 776 251 782 279 q 634 57 753 126 q 314 -12 515 -12 q 145 7 218 -12 q 26 63 72 26 q 49 176 40 113 q 58 292 57 240 q 143 300 96 300 q 200 296 175 300 q 224 136 196 181 q 324 92 253 92 q 462 139 404 92 q 533 264 519 186 q 538 300 538 283 q 482 399 538 367 q 317 438 426 432 q 306 472 310 450 q 301 517 301 494 q 304 547 301 528 q 582 847 428 650 l 469 847 q 385 829 419 847 q 322 767 351 811 q 261 643 293 724 q 136 683 171 656 q 183 810 161 738 q 215 942 206 882 q 538 939 279 939 q 846 942 758 939 m 488 1011 q 304 1168 417 1088 q 393 1239 326 1233 q 568 1160 467 1194 q 760 1242 647 1178 q 800 1215 782 1235 q 828 1169 818 1194 q 593 1025 690 1092 q 517 1008 556 1008 q 488 1011 507 1008 z "},"F":{"ha":818,"x_min":17,"x_max":883,"o":"m 883 943 q 869 765 869 853 q 872 697 869 742 q 753 682 815 682 q 736 774 750 740 q 685 827 722 808 q 578 846 649 846 l 490 846 l 426 469 l 475 469 q 572 489 546 469 q 607 568 599 508 q 682 575 649 575 q 718 574 706 575 q 686 400 697 478 q 672 242 674 307 q 567 263 607 244 q 548 349 569 322 q 464 376 526 376 l 411 376 l 389 244 q 381 172 381 199 q 405 118 381 133 q 500 92 429 103 q 504 38 504 67 q 503 -4 504 10 q 260 0 428 0 q 17 -4 90 0 q 39 92 21 51 q 98 109 79 97 q 128 151 117 121 q 151 250 140 182 l 231 710 q 239 776 239 751 q 222 825 239 810 q 158 847 204 840 q 154 900 154 872 q 157 943 154 915 q 499 939 265 939 q 883 943 742 939 z "},"G":{"ha":928,"x_min":67,"x_max":944,"o":"m 632 951 q 944 878 826 951 q 900 665 913 782 q 815 650 864 650 q 776 653 789 650 q 779 701 779 689 q 744 822 779 788 q 631 856 708 856 q 425 748 506 856 q 319 478 344 640 q 310 357 310 418 q 356 160 310 232 q 493 88 403 88 q 576 103 544 88 q 606 135 596 114 q 625 214 615 157 q 633 286 633 260 q 614 343 633 328 q 543 364 594 358 q 538 417 538 394 q 542 460 538 439 q 740 456 608 456 q 944 460 865 456 q 926 364 944 413 q 883 351 897 361 q 859 309 869 342 q 835 197 849 276 q 829 138 829 150 q 838 79 829 111 q 669 13 765 39 q 472 -12 574 -12 q 256 35 347 -12 q 116 173 165 83 q 67 386 67 263 q 75 493 67 438 q 181 746 99 643 q 381 900 264 849 q 632 951 499 951 z "},"Ğ":{"ha":928,"x_min":67,"x_max":944,"o":"m 632 951 q 944 878 826 951 q 900 665 913 782 q 815 650 864 650 q 776 653 789 650 q 779 701 779 689 q 744 822 779 788 q 631 856 708 856 q 425 748 506 856 q 319 478 344 640 q 310 357 310 418 q 356 160 310 232 q 493 88 403 88 q 576 103 544 88 q 606 135 596 114 q 625 214 615 157 q 633 286 633 260 q 614 343 633 328 q 543 364 594 358 q 538 417 538 394 q 542 460 538 439 q 740 456 608 456 q 944 460 865 456 q 926 364 944 413 q 883 351 897 361 q 859 309 869 342 q 835 197 849 276 q 829 138 829 150 q 838 79 829 111 q 669 13 765 39 q 472 -12 574 -12 q 256 35 347 -12 q 116 173 165 83 q 67 386 67 263 q 75 493 67 438 q 181 746 99 643 q 381 900 264 849 q 632 951 499 951 m 619 1006 q 383 1165 383 1006 q 388 1208 383 1186 q 482 1224 431 1224 q 515 1221 493 1224 q 551 1156 514 1178 q 658 1133 589 1133 q 770 1156 726 1133 q 826 1221 814 1178 q 865 1225 847 1225 q 931 1213 899 1225 q 833 1058 913 1111 q 619 1006 754 1006 z "},"Ǧ":{"ha":928,"x_min":67,"x_max":944,"o":"m 632 951 q 944 878 826 951 q 900 665 913 782 q 815 650 864 650 q 776 653 789 650 q 779 701 779 689 q 744 822 779 788 q 631 856 708 856 q 425 748 506 856 q 319 478 344 640 q 310 357 310 418 q 356 160 310 232 q 493 88 403 88 q 576 103 544 88 q 606 135 596 114 q 625 214 615 157 q 633 286 633 260 q 614 343 633 328 q 543 364 594 358 q 538 417 538 394 q 542 460 538 439 q 740 456 608 456 q 944 460 865 456 q 926 364 944 413 q 883 351 897 361 q 859 309 869 342 q 835 197 849 276 q 829 138 829 150 q 838 79 829 111 q 669 13 765 39 q 472 -12 574 -12 q 256 35 347 -12 q 116 173 165 83 q 67 386 67 263 q 75 493 67 438 q 181 746 99 643 q 381 900 264 849 q 632 951 499 951 m 581 1011 q 397 1168 510 1088 q 486 1239 419 1233 q 661 1160 560 1194 q 853 1242 740 1178 q 893 1215 875 1235 q 921 1169 911 1194 q 686 1025 783 1092 q 610 1008 649 1008 q 581 1011 600 1008 z "},"Ĝ":{"ha":928,"x_min":67,"x_max":944,"o":"m 632 951 q 944 878 826 951 q 900 665 913 782 q 815 650 864 650 q 776 653 789 650 q 779 701 779 689 q 744 822 779 788 q 631 856 708 856 q 425 748 506 856 q 319 478 344 640 q 310 357 310 418 q 356 160 310 232 q 493 88 403 88 q 576 103 544 88 q 606 135 596 114 q 625 214 615 157 q 633 286 633 260 q 614 343 633 328 q 543 364 594 358 q 538 417 538 394 q 542 460 538 439 q 740 456 608 456 q 944 460 865 456 q 926 364 944 413 q 883 351 897 361 q 859 309 869 342 q 835 197 849 276 q 829 138 829 150 q 838 79 829 111 q 669 13 765 39 q 472 -12 574 -12 q 256 35 347 -12 q 116 173 165 83 q 67 386 67 263 q 75 493 67 438 q 181 746 99 643 q 381 900 264 849 q 632 951 499 951 m 460 1003 q 415 1037 433 1013 q 392 1085 397 1061 q 515 1153 449 1111 q 636 1236 581 1194 q 669 1239 658 1239 q 739 1228 706 1239 q 924 1050 804 1158 q 881 1026 908 1035 q 822 1015 854 1017 q 653 1097 726 1074 q 526 1036 599 1076 l 460 1003 z "},"Ģ":{"ha":928,"x_min":67,"x_max":944,"o":"m 632 951 q 944 878 826 951 q 900 665 913 782 q 815 650 864 650 q 776 653 789 650 q 779 701 779 689 q 744 822 779 788 q 631 856 708 856 q 425 748 506 856 q 319 478 344 640 q 310 357 310 418 q 356 160 310 232 q 493 88 403 88 q 576 103 544 88 q 606 135 596 114 q 625 214 615 157 q 633 286 633 260 q 614 343 633 328 q 543 364 594 358 q 538 417 538 394 q 542 460 538 439 q 740 456 608 456 q 944 460 865 456 q 926 364 944 413 q 883 351 897 361 q 859 309 869 342 q 835 197 849 276 q 829 138 829 150 q 838 79 829 111 q 669 13 765 39 q 472 -12 574 -12 q 256 35 347 -12 q 116 173 165 83 q 67 386 67 263 q 75 493 67 438 q 181 746 99 643 q 381 900 264 849 q 632 951 499 951 m 375 -428 q 308 -382 328 -421 q 369 -322 346 -354 q 393 -264 393 -290 q 375 -233 393 -244 q 319 -217 357 -222 q 358 -96 322 -144 q 524 -54 460 -92 q 564 -81 551 -62 q 576 -129 576 -99 q 574 -165 576 -151 q 375 -428 549 -317 z "},"Ġ":{"ha":928,"x_min":67,"x_max":944,"o":"m 632 951 q 944 878 826 951 q 900 665 913 782 q 815 650 864 650 q 776 653 789 650 q 779 701 779 689 q 744 822 779 788 q 631 856 708 856 q 425 748 506 856 q 319 478 344 640 q 310 357 310 418 q 356 160 310 232 q 493 88 403 88 q 576 103 544 88 q 606 135 596 114 q 625 214 615 157 q 633 286 633 260 q 614 343 633 328 q 543 364 594 358 q 538 417 538 394 q 542 460 538 439 q 740 456 608 456 q 944 460 865 456 q 926 364 944 413 q 883 351 897 361 q 859 309 869 342 q 835 197 849 276 q 829 138 829 150 q 838 79 829 111 q 669 13 765 39 q 472 -12 574 -12 q 256 35 347 -12 q 116 173 165 83 q 67 386 67 263 q 75 493 67 438 q 181 746 99 643 q 381 900 264 849 q 632 951 499 951 m 635 996 q 554 1022 585 996 q 524 1094 524 1049 q 563 1180 524 1150 q 674 1210 603 1210 q 754 1183 724 1210 q 785 1110 785 1156 q 783 1093 785 1099 q 740 1020 776 1044 q 635 996 703 996 z "},"Ḡ":{"ha":928,"x_min":67,"x_max":944,"o":"m 632 951 q 944 878 826 951 q 900 665 913 782 q 815 650 864 650 q 776 653 789 650 q 779 701 779 689 q 744 822 779 788 q 631 856 708 856 q 425 748 506 856 q 319 478 344 640 q 310 357 310 418 q 356 160 310 232 q 493 88 403 88 q 576 103 544 88 q 606 135 596 114 q 625 214 615 157 q 633 286 633 260 q 614 343 633 328 q 543 364 594 358 q 538 417 538 394 q 542 460 538 439 q 740 456 608 456 q 944 460 865 456 q 926 364 944 413 q 883 351 897 361 q 859 309 869 342 q 835 197 849 276 q 829 138 829 150 q 838 79 829 111 q 669 13 765 39 q 472 -12 574 -12 q 256 35 347 -12 q 116 173 165 83 q 67 386 67 263 q 75 493 67 438 q 181 746 99 643 q 381 900 264 849 q 632 951 499 951 m 400 1063 q 413 1146 400 1115 l 911 1146 q 899 1071 911 1111 q 400 1063 614 1071 z "},"Ǥ":{"ha":928,"x_min":67,"x_max":944,"o":"m 926 364 q 892 356 904 361 q 871 335 881 351 q 853 286 861 319 l 933 286 q 919 176 933 219 l 832 178 q 829 139 829 150 q 838 79 829 111 q 669 13 765 39 q 472 -12 574 -12 q 256 35 347 -12 q 116 173 165 83 q 67 386 67 263 q 75 493 67 438 q 181 746 99 643 q 381 900 264 849 q 632 951 499 951 q 944 878 826 951 q 900 665 913 782 q 815 650 864 650 q 776 653 789 650 q 779 701 779 689 q 744 822 779 788 q 631 856 708 856 q 425 748 506 856 q 319 478 344 640 q 310 357 310 418 q 356 160 310 232 q 493 88 403 88 q 576 103 544 88 q 602 127 593 111 q 618 176 611 143 l 535 175 q 468 174 511 174 q 482 286 468 242 l 633 286 q 614 343 633 328 q 543 364 594 358 q 538 417 538 394 q 542 460 538 439 q 740 456 608 456 q 944 460 865 456 q 926 364 944 413 z "},"Ȝ":{"ha":761,"x_min":-60,"x_max":769,"o":"m 765 721 q 661 550 746 622 q 432 425 576 478 q 631 371 560 426 q 703 211 703 315 q 696 146 703 185 q 598 -51 675 36 q 407 -188 521 -139 q 164 -237 293 -237 q 28 -220 88 -237 q -60 -172 -31 -203 q -6 -87 -47 -122 q 54 -122 14 -108 q 142 -135 94 -135 q 281 -99 217 -135 q 388 1 344 -62 q 447 142 432 64 q 453 200 453 169 q 415 303 453 268 q 303 338 376 338 q 182 315 238 338 q 172 365 172 336 q 181 418 172 393 q 409 524 326 458 q 513 699 492 589 q 518 753 518 725 q 410 858 518 858 q 313 816 349 858 q 242 669 278 774 q 175 674 210 668 q 117 693 140 681 q 142 786 129 731 q 160 896 154 842 q 449 951 268 951 q 690 903 610 951 q 769 767 769 856 q 765 721 769 744 z "},"H":{"ha":1106,"x_min":21,"x_max":1146,"o":"m 925 939 q 1146 943 1071 939 q 1128 847 1146 893 q 1070 830 1089 842 q 1042 789 1051 818 q 1019 692 1032 760 l 939 231 q 931 160 931 188 q 947 114 931 129 q 1004 92 963 99 q 1010 35 1010 56 q 1007 -4 1010 24 q 796 0 933 0 q 572 -4 663 0 q 594 92 576 50 q 650 108 632 97 q 678 145 668 119 q 699 228 689 171 l 732 421 q 419 414 542 421 l 388 231 q 379 160 379 188 q 395 114 379 129 q 453 92 411 99 q 458 35 458 56 q 456 -4 458 24 q 244 0 383 0 q 21 -4 111 0 q 43 92 25 44 q 99 108 81 97 q 127 145 117 119 q 147 228 138 171 l 231 713 q 239 781 239 768 q 222 826 239 810 q 158 847 204 842 q 154 901 154 872 q 157 943 154 915 q 374 939 221 939 q 594 943 519 939 q 576 847 594 893 q 518 830 536 842 q 490 789 500 818 q 468 692 481 760 l 439 521 l 749 521 l 782 713 q 789 778 789 757 q 772 826 789 811 q 710 847 754 840 q 704 899 704 878 q 708 943 704 921 q 925 939 772 939 z "},"Ħ":{"ha":1106,"x_min":21,"x_max":1146,"o":"m 1128 847 q 1072 831 1090 842 q 1044 796 1054 821 q 1022 714 1033 771 l 1108 714 q 1089 619 1108 665 l 1006 619 l 939 231 q 931 160 931 188 q 947 113 931 128 q 1004 92 963 99 q 1010 35 1010 56 q 1007 -4 1010 24 q 796 0 933 0 q 572 -4 663 0 q 594 92 576 50 q 650 108 632 97 q 678 145 668 119 q 699 228 689 171 l 732 421 q 419 414 542 421 l 388 231 q 379 160 379 188 q 395 114 379 129 q 453 92 411 99 q 458 35 458 56 q 456 -4 458 24 q 244 0 383 0 q 21 -4 111 0 q 43 92 25 44 q 99 108 81 97 q 127 145 117 119 q 147 228 138 171 l 214 615 l 126 614 q 144 714 126 668 l 231 714 q 238 779 238 758 q 221 827 238 814 q 158 847 204 840 q 154 901 154 872 q 157 943 154 915 q 374 939 221 939 q 594 943 519 939 q 576 847 594 893 q 521 831 539 842 q 492 796 503 821 q 472 714 482 771 l 782 714 q 789 778 789 758 q 772 826 789 813 q 710 847 756 840 q 704 899 704 878 q 708 943 704 921 q 925 939 772 939 q 1146 943 1071 939 q 1128 847 1146 893 m 765 619 l 456 618 l 439 521 l 749 521 l 765 619 z "},"Ḫ":{"ha":1106,"x_min":21,"x_max":1146,"o":"m 925 939 q 1146 943 1071 939 q 1128 847 1146 893 q 1070 830 1089 842 q 1042 789 1051 818 q 1019 692 1032 760 l 939 231 q 931 160 931 188 q 947 114 931 129 q 1004 92 963 99 q 1010 35 1010 56 q 1007 -4 1010 24 q 796 0 933 0 q 572 -4 663 0 q 594 92 576 50 q 650 108 632 97 q 678 145 668 119 q 699 228 689 171 l 732 421 q 419 414 542 421 l 388 231 q 379 160 379 188 q 395 114 379 129 q 453 92 411 99 q 458 35 458 56 q 456 -4 458 24 q 244 0 383 0 q 21 -4 111 0 q 43 92 25 44 q 99 108 81 97 q 127 145 117 119 q 147 228 138 171 l 231 713 q 239 781 239 768 q 222 826 239 810 q 158 847 204 842 q 154 901 154 872 q 157 943 154 915 q 374 939 221 939 q 594 943 519 939 q 576 847 594 893 q 518 830 536 842 q 490 789 500 818 q 468 692 481 760 l 439 521 l 749 521 l 782 713 q 789 778 789 757 q 772 826 789 811 q 710 847 754 840 q 704 899 704 878 q 708 943 704 921 q 925 939 772 939 z "},"Ȟ":{"ha":1106,"x_min":21,"x_max":1146,"o":"m 925 939 q 1146 943 1071 939 q 1128 847 1146 893 q 1070 830 1089 842 q 1042 789 1051 818 q 1019 692 1032 760 l 939 231 q 931 160 931 188 q 947 114 931 129 q 1004 92 963 99 q 1010 35 1010 56 q 1007 -4 1010 24 q 796 0 933 0 q 572 -4 663 0 q 594 92 576 50 q 650 108 632 97 q 678 145 668 119 q 699 228 689 171 l 732 421 q 419 414 542 421 l 388 231 q 379 160 379 188 q 395 114 379 129 q 453 92 411 99 q 458 35 458 56 q 456 -4 458 24 q 244 0 383 0 q 21 -4 111 0 q 43 92 25 44 q 99 108 81 97 q 127 145 117 119 q 147 228 138 171 l 231 713 q 239 781 239 768 q 222 826 239 810 q 158 847 204 842 q 154 901 154 872 q 157 943 154 915 q 374 939 221 939 q 594 943 519 939 q 576 847 594 893 q 518 830 536 842 q 490 789 500 818 q 468 692 481 760 l 439 521 l 749 521 l 782 713 q 789 778 789 757 q 772 826 789 811 q 710 847 754 840 q 704 899 704 878 q 708 943 704 921 q 925 939 772 939 m 607 1011 q 424 1168 536 1088 q 513 1239 446 1233 q 688 1160 586 1194 q 879 1242 767 1178 q 919 1215 901 1235 q 947 1169 938 1194 q 713 1025 810 1092 q 636 1008 675 1008 q 607 1011 626 1008 z "},"Ĥ":{"ha":1106,"x_min":21,"x_max":1146,"o":"m 925 939 q 1146 943 1071 939 q 1128 847 1146 893 q 1070 830 1089 842 q 1042 789 1051 818 q 1019 692 1032 760 l 939 231 q 931 160 931 188 q 947 114 931 129 q 1004 92 963 99 q 1010 35 1010 56 q 1007 -4 1010 24 q 796 0 933 0 q 572 -4 663 0 q 594 92 576 50 q 650 108 632 97 q 678 145 668 119 q 699 228 689 171 l 732 421 q 419 414 542 421 l 388 231 q 379 160 379 188 q 395 114 379 129 q 453 92 411 99 q 458 35 458 56 q 456 -4 458 24 q 244 0 383 0 q 21 -4 111 0 q 43 92 25 44 q 99 108 81 97 q 127 145 117 119 q 147 228 138 171 l 231 713 q 239 781 239 768 q 222 826 239 810 q 158 847 204 842 q 154 901 154 872 q 157 943 154 915 q 374 939 221 939 q 594 943 519 939 q 576 847 594 893 q 518 830 536 842 q 490 789 500 818 q 468 692 481 760 l 439 521 l 749 521 l 782 713 q 789 778 789 757 q 772 826 789 811 q 710 847 754 840 q 704 899 704 878 q 708 943 704 921 q 925 939 772 939 m 488 1003 q 443 1037 461 1013 q 419 1085 425 1061 q 542 1153 476 1111 q 664 1236 608 1194 q 697 1239 686 1239 q 767 1228 733 1239 q 951 1050 832 1158 q 909 1026 936 1035 q 850 1015 882 1017 q 681 1097 754 1074 q 554 1036 626 1076 l 488 1003 z "},"Ḥ":{"ha":1106,"x_min":21,"x_max":1146,"o":"m 925 939 q 1146 943 1071 939 q 1128 847 1146 893 q 1070 830 1089 842 q 1042 789 1051 818 q 1019 692 1032 760 l 939 231 q 931 160 931 188 q 947 114 931 129 q 1004 92 963 99 q 1010 35 1010 56 q 1007 -4 1010 24 q 796 0 933 0 q 572 -4 663 0 q 594 92 576 50 q 650 108 632 97 q 678 145 668 119 q 699 228 689 171 l 732 421 q 419 414 542 421 l 388 231 q 379 160 379 188 q 395 114 379 129 q 453 92 411 99 q 458 35 458 56 q 456 -4 458 24 q 244 0 383 0 q 21 -4 111 0 q 43 92 25 44 q 99 108 81 97 q 127 145 117 119 q 147 228 138 171 l 231 713 q 239 781 239 768 q 222 826 239 810 q 158 847 204 842 q 154 901 154 872 q 157 943 154 915 q 374 939 221 939 q 594 943 519 939 q 576 847 594 893 q 518 830 536 842 q 490 789 500 818 q 468 692 481 760 l 439 521 l 749 521 l 782 713 q 789 778 789 757 q 772 826 789 811 q 710 847 754 840 q 704 899 704 878 q 708 943 704 921 q 925 939 772 939 m 454 -331 q 368 -305 399 -331 q 338 -236 338 -279 q 340 -211 338 -228 q 389 -131 350 -158 q 483 -103 428 -103 q 569 -129 539 -103 q 599 -201 599 -156 q 597 -224 599 -215 q 549 -303 588 -276 q 454 -331 511 -331 z "},"I":{"ha":554,"x_min":21,"x_max":594,"o":"m 231 713 q 239 781 239 768 q 222 826 239 810 q 158 847 204 842 q 154 901 154 872 q 157 943 154 915 q 374 939 221 939 q 594 943 519 939 q 576 847 594 893 q 519 830 538 842 q 490 788 501 818 q 468 692 479 758 l 388 231 q 379 160 379 188 q 395 114 379 129 q 453 92 411 99 q 458 35 458 56 q 456 -4 458 24 q 244 0 383 0 q 21 -4 111 0 q 43 92 25 44 q 99 108 81 97 q 127 145 117 119 q 147 228 138 171 l 231 713 z "},"Ĳ":{"ha":1024,"x_min":101,"x_max":1103,"o":"m 360 -343 q 222 -319 283 -343 q 103 -246 160 -294 l 101 -222 q 128 -104 101 -157 q 453 -165 281 -165 q 542 -149 511 -165 q 592 -78 572 -132 q 632 92 613 -24 q 657 227 649 190 q 686 313 665 264 l 682 313 q 585 163 646 238 q 449 40 524 89 q 301 -8 374 -8 q 192 49 225 -8 q 160 207 160 106 q 185 440 160 290 l 232 708 q 240 775 240 750 q 222 826 240 811 q 157 847 203 840 q 151 904 151 881 q 154 943 151 918 q 374 939 219 939 q 596 943 521 939 q 579 847 596 890 q 520 828 539 842 q 492 788 501 814 q 468 692 483 761 l 418 457 q 390 258 390 333 q 443 163 390 163 q 549 227 489 163 q 661 417 608 292 q 739 711 714 542 q 746 778 746 757 q 728 828 746 814 q 664 847 711 842 q 658 897 658 869 q 661 943 658 913 q 882 939 721 939 q 1103 943 1007 939 q 1088 847 1101 892 q 1028 831 1047 842 q 998 789 1010 819 q 972 688 986 758 l 882 213 q 781 -70 851 56 q 602 -269 710 -196 q 360 -343 494 -343 z "},"Í":{"ha":554,"x_min":21,"x_max":600,"o":"m 231 713 q 239 781 239 768 q 222 826 239 810 q 158 847 204 842 q 154 901 154 872 q 157 943 154 915 q 374 939 221 939 q 594 943 519 939 q 576 847 594 893 q 519 830 538 842 q 490 788 501 818 q 468 692 479 758 l 388 231 q 379 160 379 188 q 395 114 379 129 q 453 92 411 99 q 458 35 458 56 q 456 -4 458 24 q 244 0 383 0 q 21 -4 111 0 q 43 92 25 44 q 99 108 81 97 q 127 145 117 119 q 147 228 138 171 l 231 713 m 394 1015 q 282 1057 332 1022 q 344 1143 314 1093 q 389 1225 375 1193 q 449 1228 428 1228 q 600 1204 546 1228 q 394 1015 482 1100 z "},"Ĭ":{"ha":554,"x_min":21,"x_max":632,"o":"m 376 989 q 231 1031 279 989 q 182 1151 182 1072 q 188 1208 182 1181 q 217 1211 207 1211 q 286 1197 254 1211 q 317 1138 289 1157 q 403 1118 346 1118 q 502 1146 463 1118 q 551 1219 542 1174 q 598 1210 576 1218 q 632 1188 619 1201 q 376 989 599 989 m 231 713 q 239 781 239 768 q 222 826 239 810 q 158 847 204 842 q 154 901 154 872 q 157 943 154 915 q 374 939 221 939 q 594 943 519 939 q 576 847 594 893 q 519 830 538 842 q 490 788 501 818 q 468 692 479 758 l 388 231 q 379 160 379 188 q 395 114 379 129 q 453 92 411 99 q 458 35 458 56 q 456 -4 458 24 q 244 0 383 0 q 21 -4 111 0 q 43 92 25 44 q 99 108 81 97 q 127 145 117 119 q 147 228 138 171 l 231 713 z "},"Ǐ":{"ha":554,"x_min":21,"x_max":629,"o":"m 281 1049 q 237 1107 261 1075 q 185 1178 213 1139 q 241 1206 207 1194 q 306 1218 275 1217 q 424 1136 361 1172 q 553 1226 497 1179 q 601 1193 583 1213 q 629 1143 619 1174 q 533 1075 588 1118 q 428 992 478 1032 q 376 989 394 989 q 322 994 340 989 l 281 1049 m 231 713 q 239 781 239 768 q 222 826 239 810 q 158 847 204 842 q 154 901 154 872 q 157 943 154 915 q 374 939 221 939 q 594 943 519 939 q 576 847 594 893 q 519 830 538 842 q 490 788 501 818 q 468 692 479 758 l 388 231 q 379 160 379 188 q 395 114 379 129 q 453 92 411 99 q 458 35 458 56 q 456 -4 458 24 q 244 0 383 0 q 21 -4 111 0 q 43 92 25 44 q 99 108 81 97 q 127 145 117 119 q 147 228 138 171 l 231 713 z "},"Î":{"ha":554,"x_min":21,"x_max":628,"o":"m 258 979 q 182 1064 199 1008 q 361 1197 240 1100 l 383 1215 q 440 1218 419 1218 q 489 1213 474 1218 q 571 1106 504 1192 l 628 1031 q 570 1000 604 1011 q 506 990 536 989 q 389 1069 461 1029 q 258 979 311 1026 m 231 713 q 239 781 239 768 q 222 826 239 810 q 158 847 204 842 q 154 901 154 872 q 157 943 154 915 q 374 939 221 939 q 594 943 519 939 q 576 847 594 893 q 519 830 538 842 q 490 788 501 818 q 468 692 479 758 l 388 231 q 379 160 379 188 q 395 114 379 129 q 453 92 411 99 q 458 35 458 56 q 456 -4 458 24 q 244 0 383 0 q 21 -4 111 0 q 43 92 25 44 q 99 108 81 97 q 127 145 117 119 q 147 228 138 171 l 231 713 z "},"Ȉ":{"ha":554,"x_min":21,"x_max":606,"o":"m 231 713 q 239 781 239 768 q 222 826 239 810 q 158 847 204 842 q 154 901 154 872 q 157 943 154 915 q 374 939 221 939 q 594 943 519 939 q 576 847 594 893 q 519 830 538 842 q 490 788 501 818 q 468 692 479 758 l 388 231 q 379 160 379 188 q 395 114 379 129 q 453 92 411 99 q 458 35 458 56 q 456 -4 458 24 q 244 0 383 0 q 21 -4 111 0 q 43 92 25 44 q 99 108 81 97 q 127 145 117 119 q 147 228 138 171 l 231 713 m 490 1004 q 451 1071 476 1026 q 388 1181 421 1128 q 481 1193 425 1193 q 546 1188 518 1193 q 606 1004 572 1075 q 544 1000 576 1000 q 490 1004 519 1000 m 243 1004 q 125 1176 171 1118 q 236 1193 174 1193 q 300 1188 258 1193 q 360 1004 321 1088 q 299 1000 331 1000 q 243 1004 275 1000 z "},"Ï":{"ha":554,"x_min":21,"x_max":665,"o":"m 253 996 q 175 1022 204 996 q 146 1089 146 1049 q 179 1166 146 1133 q 274 1199 213 1199 q 353 1174 326 1199 q 379 1107 379 1149 q 376 1075 379 1086 q 334 1019 369 1042 q 253 996 299 996 m 539 996 q 458 1022 486 996 q 431 1090 431 1047 q 465 1171 431 1143 q 558 1199 499 1199 q 635 1172 606 1199 q 665 1106 665 1146 q 633 1028 665 1061 q 539 996 601 996 m 231 713 q 239 781 239 768 q 222 826 239 810 q 158 847 204 842 q 154 901 154 872 q 157 943 154 915 q 374 939 221 939 q 594 943 519 939 q 576 847 594 893 q 519 830 538 842 q 490 788 501 818 q 468 692 479 758 l 388 231 q 379 160 379 188 q 395 114 379 129 q 453 92 411 99 q 458 35 458 56 q 456 -4 458 24 q 244 0 383 0 q 21 -4 111 0 q 43 92 25 44 q 99 108 81 97 q 127 145 117 119 q 147 228 138 171 l 231 713 z "},"Ḯ":{"ha":554,"x_min":21,"x_max":665,"o":"m 431 1224 q 318 1265 367 1231 q 381 1350 351 1301 q 425 1432 411 1399 q 489 1435 446 1435 q 636 1411 585 1435 q 431 1224 500 1290 m 253 996 q 175 1022 204 996 q 146 1089 146 1049 q 179 1166 146 1133 q 274 1199 213 1199 q 353 1174 326 1199 q 379 1107 379 1149 q 376 1075 379 1086 q 334 1019 369 1042 q 253 996 299 996 m 539 996 q 458 1022 486 996 q 431 1090 431 1047 q 465 1171 431 1143 q 558 1199 499 1199 q 635 1172 606 1199 q 665 1106 665 1146 q 633 1028 665 1061 q 539 996 601 996 m 231 713 q 239 781 239 768 q 222 826 239 810 q 158 847 204 842 q 154 901 154 872 q 157 943 154 915 q 374 939 221 939 q 594 943 519 939 q 576 847 594 893 q 519 830 538 842 q 490 788 501 818 q 468 692 479 758 l 388 231 q 379 160 379 188 q 395 114 379 129 q 453 92 411 99 q 458 35 458 56 q 456 -4 458 24 q 244 0 383 0 q 21 -4 111 0 q 43 92 25 44 q 99 108 81 97 q 127 145 117 119 q 147 228 138 171 l 231 713 z "},"İ":{"ha":554,"x_min":21,"x_max":594,"o":"m 231 713 q 239 781 239 768 q 222 826 239 810 q 158 847 204 842 q 154 901 154 872 q 157 943 154 915 q 374 939 221 939 q 594 943 519 939 q 576 847 594 893 q 519 830 538 842 q 490 788 501 818 q 468 692 479 758 l 388 231 q 379 160 379 188 q 395 114 379 129 q 453 92 411 99 q 458 35 458 56 q 456 -4 458 24 q 244 0 383 0 q 21 -4 111 0 q 43 92 25 44 q 99 108 81 97 q 127 145 117 119 q 147 228 138 171 l 231 713 m 386 996 q 306 1022 336 996 q 275 1094 275 1049 q 315 1180 275 1150 q 425 1210 354 1210 q 506 1183 475 1210 q 536 1110 536 1156 q 535 1093 536 1099 q 491 1020 528 1044 q 386 996 454 996 z "},"Ị":{"ha":554,"x_min":21,"x_max":594,"o":"m 231 713 q 239 781 239 768 q 222 826 239 810 q 158 847 204 842 q 154 901 154 872 q 157 943 154 915 q 374 939 221 939 q 594 943 519 939 q 576 847 594 893 q 519 830 538 842 q 490 788 501 818 q 468 692 479 758 l 388 231 q 379 160 379 188 q 395 114 379 129 q 453 92 411 99 q 458 35 458 56 q 456 -4 458 24 q 244 0 383 0 q 21 -4 111 0 q 43 92 25 44 q 99 108 81 97 q 127 145 117 119 q 147 228 138 171 l 231 713 m 178 -331 q 92 -305 122 -331 q 61 -236 61 -279 q 64 -211 61 -228 q 113 -131 74 -158 q 207 -103 151 -103 q 292 -129 263 -103 q 322 -201 322 -156 q 321 -224 322 -215 q 273 -303 311 -276 q 178 -331 235 -331 z "},"Ì":{"ha":554,"x_min":21,"x_max":594,"o":"m 231 713 q 239 781 239 768 q 222 826 239 810 q 158 847 204 842 q 154 901 154 872 q 157 943 154 915 q 374 939 221 939 q 594 943 519 939 q 576 847 594 893 q 519 830 538 842 q 490 788 501 818 q 468 692 479 758 l 388 231 q 379 160 379 188 q 395 114 379 129 q 453 92 411 99 q 458 35 458 56 q 456 -4 458 24 q 244 0 383 0 q 21 -4 111 0 q 43 92 25 44 q 99 108 81 97 q 127 145 117 119 q 147 228 138 171 l 231 713 m 472 1028 q 408 1021 444 1021 q 338 1029 367 1021 q 279 1110 318 1063 q 203 1194 240 1157 q 338 1213 278 1213 q 404 1207 375 1213 q 472 1028 431 1106 z "},"Ỉ":{"ha":554,"x_min":21,"x_max":594,"o":"m 231 713 q 239 781 239 768 q 222 826 239 810 q 158 847 204 842 q 154 901 154 872 q 157 943 154 915 q 374 939 221 939 q 594 943 519 939 q 576 847 594 893 q 519 830 538 842 q 490 788 501 818 q 468 692 479 758 l 388 231 q 379 160 379 188 q 395 114 379 129 q 453 92 411 99 q 458 35 458 56 q 456 -4 458 24 q 244 0 383 0 q 21 -4 111 0 q 43 92 25 44 q 99 108 81 97 q 127 145 117 119 q 147 228 138 171 l 231 713 m 344 1008 q 339 1035 339 1022 q 354 1083 339 1067 q 399 1114 369 1099 q 428 1133 418 1125 q 444 1153 439 1140 q 447 1165 447 1161 q 438 1181 447 1175 q 414 1188 429 1188 q 339 1108 360 1188 q 250 1125 279 1108 q 269 1217 269 1174 q 349 1242 304 1232 q 438 1251 393 1251 q 537 1231 503 1251 q 571 1175 571 1211 q 567 1149 571 1164 q 537 1099 557 1117 q 486 1067 517 1082 q 454 1048 465 1057 q 439 1026 443 1039 q 438 1001 433 1013 q 406 999 418 999 q 344 1008 365 999 z "},"Ȋ":{"ha":554,"x_min":21,"x_max":631,"o":"m 231 713 q 239 781 239 768 q 222 826 239 810 q 158 847 204 842 q 154 901 154 872 q 157 943 154 915 q 374 939 221 939 q 594 943 519 939 q 576 847 594 893 q 519 830 538 842 q 490 788 501 818 q 468 692 479 758 l 388 231 q 379 160 379 188 q 395 114 379 129 q 453 92 411 99 q 458 35 458 56 q 456 -4 458 24 q 244 0 383 0 q 21 -4 111 0 q 43 92 25 44 q 99 108 81 97 q 127 145 117 119 q 147 228 138 171 l 231 713 m 436 1213 q 582 1171 533 1213 q 631 1049 631 1129 q 625 992 631 1019 q 596 990 615 990 q 526 1003 556 990 q 494 1064 522 1044 q 410 1083 465 1083 q 310 1055 350 1083 q 260 981 271 1026 q 179 1013 207 985 q 260 1163 197 1113 q 436 1213 324 1213 z "},"Ī":{"ha":554,"x_min":21,"x_max":636,"o":"m 174 1047 q 183 1103 176 1076 q 201 1143 190 1131 l 636 1143 q 615 1054 633 1090 q 174 1047 339 1054 m 231 713 q 239 781 239 768 q 222 826 239 810 q 158 847 204 842 q 154 901 154 872 q 157 943 154 915 q 374 939 221 939 q 594 943 519 939 q 576 847 594 893 q 519 830 538 842 q 490 788 501 818 q 468 692 479 758 l 388 231 q 379 160 379 188 q 395 114 379 129 q 453 92 411 99 q 458 35 458 56 q 456 -4 458 24 q 244 0 383 0 q 21 -4 111 0 q 43 92 25 44 q 99 108 81 97 q 127 145 117 119 q 147 228 138 171 l 231 713 z "},"Į":{"ha":554,"x_min":19,"x_max":594,"o":"m 374 939 q 594 943 519 939 q 576 847 594 893 q 519 830 538 842 q 490 788 501 818 q 468 692 479 758 l 388 231 q 379 160 379 188 q 395 114 379 129 q 453 92 411 99 q 458 35 458 56 q 456 -4 458 24 q 369 -1 394 -1 q 263 -65 299 -28 q 226 -139 226 -103 q 243 -179 226 -162 q 292 -196 260 -196 q 336 -185 319 -196 q 371 -271 365 -215 q 300 -302 335 -282 q 240 -344 265 -322 q 210 -346 228 -346 q 71 -313 122 -346 q 19 -215 19 -281 q 24 -181 19 -200 q 72 -87 33 -131 q 204 0 111 -43 q 21 -4 96 0 q 43 92 25 44 q 99 108 81 97 q 127 145 117 119 q 147 228 138 171 l 231 713 q 239 781 239 768 q 222 826 239 810 q 158 847 204 842 q 154 901 154 872 q 157 943 154 915 q 374 939 221 939 z "},"Ĩ":{"ha":554,"x_min":21,"x_max":653,"o":"m 467 1011 q 413 1019 432 1011 q 372 1042 393 1028 q 342 1058 354 1053 q 313 1064 331 1064 q 257 1051 285 1064 q 196 1014 229 1038 q 172 1055 179 1035 q 164 1101 164 1075 q 261 1186 215 1163 q 353 1210 307 1210 q 403 1202 385 1210 q 440 1179 421 1194 q 469 1163 458 1168 q 497 1157 481 1157 q 549 1172 522 1157 q 596 1208 576 1186 q 653 1125 643 1175 q 567 1038 611 1065 q 467 1011 522 1011 m 231 713 q 239 781 239 768 q 222 826 239 810 q 158 847 204 842 q 154 901 154 872 q 157 943 154 915 q 374 939 221 939 q 594 943 519 939 q 576 847 594 893 q 519 830 538 842 q 490 788 501 818 q 468 692 479 758 l 388 231 q 379 160 379 188 q 395 114 379 129 q 453 92 411 99 q 458 35 458 56 q 456 -4 458 24 q 244 0 383 0 q 21 -4 111 0 q 43 92 25 44 q 99 108 81 97 q 127 145 117 119 q 147 228 138 171 l 231 713 z "},"J":{"ha":508,"x_min":-94,"x_max":588,"o":"m 150 943 q 369 939 210 939 q 588 943 493 939 q 572 847 586 892 q 510 828 531 843 q 480 783 489 813 q 458 688 471 754 l 368 172 q 303 -60 343 31 q 178 -219 263 -150 q -57 -343 94 -289 q -85 -300 -78 -325 q -94 -240 -93 -275 q 43 -119 -4 -192 q 114 89 90 -46 l 222 711 q 231 782 231 756 q 214 828 231 814 q 153 847 197 842 q 147 901 147 869 q 150 943 147 915 z "},"Ĵ":{"ha":508,"x_min":-94,"x_max":615,"o":"m 247 979 q 171 1064 188 1008 q 347 1196 235 1106 l 371 1215 q 429 1218 410 1218 q 476 1213 461 1218 l 532 1139 q 615 1031 589 1067 q 559 1000 593 1011 q 494 990 525 989 q 376 1069 453 1026 q 247 979 297 1025 m 150 943 q 369 939 210 939 q 588 943 493 939 q 572 847 586 892 q 510 828 531 843 q 480 783 489 813 q 458 688 471 754 l 368 172 q 303 -60 343 31 q 178 -219 263 -150 q -57 -343 94 -289 q -85 -300 -78 -325 q -94 -240 -93 -275 q 43 -119 -4 -192 q 114 89 90 -46 l 222 711 q 231 782 231 756 q 214 828 231 814 q 153 847 197 842 q 147 901 147 869 q 150 943 147 915 z "},"K":{"ha":1038,"x_min":21,"x_max":1067,"o":"m 1050 846 q 948 818 988 840 q 832 731 908 796 l 606 536 q 712 408 664 481 q 803 235 760 335 q 842 170 824 188 q 886 153 860 153 q 949 171 924 153 q 974 135 963 158 q 990 90 986 113 q 888 14 946 40 q 765 -12 831 -12 q 640 23 686 -12 q 567 146 594 58 q 503 303 538 235 q 422 435 468 372 l 386 228 q 378 157 378 185 q 391 112 378 126 q 439 92 404 97 q 444 35 444 56 q 442 -4 444 24 q 244 0 369 0 q 21 -4 111 0 q 43 92 25 44 q 102 110 83 96 q 131 153 121 124 q 151 249 140 182 l 231 713 q 238 779 238 758 q 221 827 238 814 q 158 847 204 840 q 154 901 154 872 q 157 943 154 915 q 374 939 221 939 q 594 943 519 939 q 576 847 594 893 q 518 830 536 842 q 490 789 500 818 q 468 692 479 760 l 439 522 l 671 728 q 735 790 717 768 q 754 824 754 811 q 724 847 754 839 q 718 904 718 881 q 721 943 718 918 q 890 939 775 939 q 1067 943 1011 939 q 1050 846 1067 890 z "},"Ǩ":{"ha":1038,"x_min":21,"x_max":1067,"o":"m 1050 846 q 948 818 988 840 q 832 731 908 796 l 606 536 q 712 408 664 481 q 803 235 760 335 q 842 170 824 188 q 886 153 860 153 q 949 171 924 153 q 974 135 963 158 q 990 90 986 113 q 888 14 946 40 q 765 -12 831 -12 q 640 23 686 -12 q 567 146 594 58 q 503 303 538 235 q 422 435 468 372 l 386 228 q 378 157 378 185 q 391 112 378 126 q 439 92 404 97 q 444 35 444 56 q 442 -4 444 24 q 244 0 369 0 q 21 -4 111 0 q 43 92 25 44 q 102 110 83 96 q 131 153 121 124 q 151 249 140 182 l 231 713 q 238 779 238 758 q 221 827 238 814 q 158 847 204 840 q 154 901 154 872 q 157 943 154 915 q 374 939 221 939 q 594 943 519 939 q 576 847 594 893 q 518 830 536 842 q 490 789 500 818 q 468 692 479 760 l 439 522 l 671 728 q 735 790 717 768 q 754 824 754 811 q 724 847 754 839 q 718 904 718 881 q 721 943 718 918 q 890 939 775 939 q 1067 943 1011 939 q 1050 846 1067 890 m 601 1011 q 418 1168 531 1088 q 507 1239 440 1233 q 682 1160 581 1194 q 874 1242 761 1178 q 914 1215 896 1235 q 942 1169 932 1194 q 707 1025 804 1092 q 631 1008 669 1008 q 601 1011 621 1008 z "},"Ķ":{"ha":1038,"x_min":21,"x_max":1067,"o":"m 1050 846 q 948 818 988 840 q 832 731 908 796 l 606 536 q 712 408 664 481 q 803 235 760 335 q 842 170 824 188 q 886 153 860 153 q 949 171 924 153 q 974 135 963 158 q 990 90 986 113 q 888 14 946 40 q 765 -12 831 -12 q 640 23 686 -12 q 567 146 594 58 q 503 303 538 235 q 422 435 468 372 l 386 228 q 378 157 378 185 q 391 112 378 126 q 439 92 404 97 q 444 35 444 56 q 442 -4 444 24 q 244 0 369 0 q 21 -4 111 0 q 43 92 25 44 q 102 110 83 96 q 131 153 121 124 q 151 249 140 182 l 231 713 q 238 779 238 758 q 221 827 238 814 q 158 847 204 840 q 154 901 154 872 q 157 943 154 915 q 374 939 221 939 q 594 943 519 939 q 576 847 594 893 q 518 830 536 842 q 490 789 500 818 q 468 692 479 760 l 439 522 l 671 728 q 735 790 717 768 q 754 824 754 811 q 724 847 754 839 q 718 904 718 881 q 721 943 718 918 q 890 939 775 939 q 1067 943 1011 939 q 1050 846 1067 890 m 431 -428 q 364 -382 383 -421 q 425 -322 401 -354 q 449 -264 449 -290 q 431 -233 449 -244 q 375 -217 413 -222 q 414 -96 378 -144 q 579 -54 515 -92 q 619 -81 607 -62 q 632 -129 632 -99 q 629 -165 632 -151 q 431 -428 604 -317 z "},"L":{"ha":856,"x_min":19,"x_max":826,"o":"m 19 -4 q 42 92 24 49 q 100 108 82 96 q 128 151 118 121 q 151 254 139 181 l 232 715 q 240 779 240 765 q 222 826 240 810 q 158 847 204 842 q 154 897 154 871 q 157 943 154 913 q 378 939 221 939 q 617 943 542 939 q 600 847 617 893 q 523 826 547 842 q 489 783 499 811 q 467 689 479 756 l 388 235 q 379 161 379 189 q 399 106 379 119 q 471 93 418 93 l 490 93 q 618 140 569 93 q 706 293 667 188 q 826 239 781 278 q 788 126 807 194 q 761 -4 769 58 q 424 0 676 0 q 19 -4 132 0 z "},"Ǉ":{"ha":1363,"x_min":19,"x_max":1443,"o":"m 19 -4 q 42 92 24 49 q 100 108 82 96 q 128 151 118 121 q 151 254 139 181 l 232 715 q 240 779 240 765 q 222 826 240 810 q 158 847 204 842 q 154 897 154 871 q 157 943 154 913 q 378 939 221 939 q 617 943 542 939 q 600 847 617 893 q 523 826 547 842 q 489 783 499 811 q 467 689 479 756 l 388 235 q 379 161 379 189 q 399 106 379 119 q 471 93 418 93 l 490 93 q 618 140 569 93 q 706 293 667 188 q 826 239 781 278 q 788 126 807 194 q 761 -4 769 58 q 424 0 676 0 q 19 -4 132 0 m 1006 943 q 1225 939 1065 939 q 1443 943 1349 939 q 1428 847 1442 892 q 1365 828 1386 843 q 1335 783 1344 813 q 1314 688 1326 754 l 1224 172 q 1158 -60 1199 31 q 1034 -219 1118 -150 q 799 -343 950 -289 q 770 -300 778 -325 q 761 -240 763 -275 q 899 -119 851 -192 q 969 89 946 -46 l 1078 711 q 1086 782 1086 756 q 1069 828 1086 814 q 1008 847 1053 842 q 1003 901 1003 869 q 1006 943 1003 915 z "},"Ĺ":{"ha":856,"x_min":19,"x_max":826,"o":"m 19 -4 q 42 92 24 49 q 100 108 82 96 q 128 151 118 121 q 151 254 139 181 l 232 715 q 240 779 240 765 q 222 826 240 810 q 158 847 204 842 q 154 897 154 871 q 157 943 154 913 q 378 939 221 939 q 617 943 542 939 q 600 847 617 893 q 523 826 547 842 q 489 783 499 811 q 467 689 479 756 l 388 235 q 379 161 379 189 q 399 106 379 119 q 471 93 418 93 l 490 93 q 618 140 569 93 q 706 293 667 188 q 826 239 781 278 q 788 126 807 194 q 761 -4 769 58 q 424 0 676 0 q 19 -4 132 0 m 413 1015 q 300 1057 350 1022 q 363 1143 332 1093 q 407 1225 393 1193 q 467 1228 446 1228 q 618 1204 564 1228 q 413 1015 500 1100 z "},"Ľ":{"ha":886,"x_min":19,"x_max":961,"o":"m 19 -4 q 42 92 24 49 q 100 108 82 96 q 128 151 118 121 q 151 254 139 181 l 232 715 q 240 779 240 765 q 222 826 240 810 q 158 847 204 842 q 154 897 154 871 q 157 943 154 913 q 378 939 221 939 q 617 943 542 939 q 600 847 617 893 q 523 826 547 842 q 489 783 499 811 q 467 689 479 756 l 388 235 q 379 161 379 189 q 399 106 379 119 q 471 93 418 93 l 490 93 q 618 140 569 93 q 706 293 667 188 q 826 239 781 278 q 788 126 807 194 q 761 -4 769 58 q 424 0 676 0 q 19 -4 132 0 m 782 589 q 706 635 728 594 q 789 771 789 715 q 769 813 789 796 q 710 836 749 831 q 747 972 710 914 q 839 988 794 974 q 917 1021 883 1001 q 961 928 961 1000 q 954 861 961 893 q 896 713 939 783 q 782 589 853 643 z "},"Ļ":{"ha":856,"x_min":19,"x_max":826,"o":"m 19 -4 q 42 92 24 49 q 100 108 82 96 q 128 151 118 121 q 151 254 139 181 l 232 715 q 240 779 240 765 q 222 826 240 810 q 158 847 204 842 q 154 897 154 871 q 157 943 154 913 q 378 939 221 939 q 617 943 542 939 q 600 847 617 893 q 523 826 547 842 q 489 783 499 811 q 467 689 479 756 l 388 235 q 379 161 379 189 q 399 106 379 119 q 471 93 418 93 l 490 93 q 618 140 569 93 q 706 293 667 188 q 826 239 781 278 q 788 126 807 194 q 761 -4 769 58 q 424 0 676 0 q 19 -4 132 0 m 286 -428 q 219 -382 239 -421 q 281 -322 257 -354 q 304 -264 304 -290 q 286 -233 304 -244 q 231 -217 268 -222 q 269 -96 233 -144 q 435 -54 371 -92 q 475 -81 463 -62 q 488 -129 488 -99 q 485 -165 488 -151 q 286 -428 460 -317 z "},"Ŀ":{"ha":856,"x_min":19,"x_max":835,"o":"m 19 -4 q 42 92 24 49 q 100 108 82 96 q 128 151 118 121 q 151 254 139 181 l 232 715 q 240 779 240 765 q 222 826 240 810 q 158 847 204 842 q 154 897 154 871 q 157 943 154 913 q 378 939 221 939 q 617 943 542 939 q 600 847 617 893 q 523 826 547 842 q 489 783 499 811 q 467 689 479 756 l 388 235 q 379 161 379 189 q 399 106 379 119 q 471 93 418 93 l 490 93 q 618 140 569 93 q 706 293 667 188 q 826 239 781 278 q 788 126 807 194 q 761 -4 769 58 q 424 0 676 0 q 19 -4 132 0 m 739 411 q 672 433 697 411 q 647 493 647 454 q 674 566 647 539 q 750 593 701 593 q 810 570 785 593 q 835 510 835 547 q 833 488 835 494 q 739 411 818 411 z "},"Ḷ":{"ha":856,"x_min":19,"x_max":826,"o":"m 19 -4 q 42 92 24 49 q 100 108 82 96 q 128 151 118 121 q 151 254 139 181 l 232 715 q 240 779 240 765 q 222 826 240 810 q 158 847 204 842 q 154 897 154 871 q 157 943 154 913 q 378 939 221 939 q 617 943 542 939 q 600 847 617 893 q 523 826 547 842 q 489 783 499 811 q 467 689 479 756 l 388 235 q 379 161 379 189 q 399 106 379 119 q 471 93 418 93 l 490 93 q 618 140 569 93 q 706 293 667 188 q 826 239 781 278 q 788 126 807 194 q 761 -4 769 58 q 424 0 676 0 q 19 -4 132 0 m 335 -331 q 249 -305 279 -331 q 218 -236 218 -279 q 221 -211 218 -228 q 269 -131 231 -158 q 364 -103 308 -103 q 449 -129 419 -103 q 479 -201 479 -156 q 478 -224 479 -215 q 430 -303 468 -276 q 335 -331 392 -331 z "},"ǈ":{"ha":1257,"x_min":19,"x_max":1281,"o":"m 19 -4 q 42 92 24 49 q 100 108 82 96 q 128 151 118 121 q 151 254 139 181 l 232 715 q 240 779 240 765 q 222 826 240 810 q 158 847 204 842 q 154 897 154 871 q 157 943 154 913 q 378 939 221 939 q 617 943 542 939 q 600 847 617 893 q 523 826 547 842 q 489 783 499 811 q 467 689 479 756 l 388 235 q 379 161 379 189 q 399 106 379 119 q 471 93 418 93 l 490 93 q 618 140 569 93 q 706 293 667 188 q 826 239 781 278 q 788 126 807 194 q 761 -4 769 58 q 424 0 676 0 q 19 -4 132 0 m 1126 732 q 1049 759 1078 732 q 1021 831 1021 786 q 1062 926 1021 892 q 1175 961 1103 961 q 1251 934 1222 961 q 1281 863 1281 907 q 1279 839 1281 847 q 1126 732 1260 732 m 750 -343 q 713 -250 713 -310 q 848 -123 797 -200 q 919 72 899 -46 l 974 383 q 982 447 982 436 q 965 489 982 478 q 900 500 947 500 q 915 592 897 549 q 1060 609 986 593 q 1193 649 1135 625 q 1225 613 1215 631 q 1235 569 1235 596 q 1228 506 1235 550 l 1165 156 q 1090 -84 1139 10 q 960 -237 1040 -178 q 750 -343 879 -297 z "},"Ḻ":{"ha":856,"x_min":19,"x_max":826,"o":"m 19 -4 q 42 92 24 49 q 100 108 82 96 q 128 151 118 121 q 151 254 139 181 l 232 715 q 240 779 240 765 q 222 826 240 810 q 158 847 204 842 q 154 897 154 871 q 157 943 154 913 q 378 939 221 939 q 617 943 542 939 q 600 847 617 893 q 523 826 547 842 q 489 783 499 811 q 467 689 479 756 l 388 235 q 379 161 379 189 q 399 106 379 119 q 471 93 418 93 l 490 93 q 618 140 569 93 q 706 293 667 188 q 826 239 781 278 q 788 126 807 194 q 761 -4 769 58 q 424 0 676 0 q 19 -4 132 0 m 96 -250 q 108 -167 96 -197 l 607 -167 q 594 -242 607 -204 q 96 -250 310 -242 z "},"Ł":{"ha":856,"x_min":19,"x_max":826,"o":"m 706 293 q 826 239 781 278 q 788 126 807 194 q 761 -4 769 58 q 424 0 676 0 q 19 -4 132 0 q 42 92 24 49 q 99 108 81 96 q 128 151 118 121 q 151 254 139 182 l 164 324 l 92 268 q 63 313 74 285 q 53 368 51 342 l 189 471 l 232 715 q 239 778 239 760 q 222 826 239 813 q 158 847 204 840 q 154 897 154 871 q 157 943 154 913 q 378 939 221 939 q 617 943 542 939 q 600 847 617 893 q 527 829 550 842 q 492 787 504 817 q 467 689 479 757 l 457 636 l 544 701 q 572 660 561 686 q 581 607 582 633 l 433 496 l 388 235 q 379 161 379 189 q 399 106 379 119 q 471 93 418 93 l 490 93 q 618 140 569 93 q 706 293 667 188 z "},"M":{"ha":1321,"x_min":-47,"x_max":1321,"o":"m 1201 581 q 1181 267 1186 335 q 1176 185 1176 217 q 1191 116 1176 135 q 1246 92 1206 97 q 1250 42 1250 69 q 1247 -4 1250 26 q 1025 0 1186 0 q 800 -4 872 0 q 817 92 800 49 q 888 114 865 99 q 920 164 910 129 q 938 274 931 199 q 964 604 953 421 q 969 674 967 626 q 586 -4 776 310 q 493 -12 550 -12 q 304 685 408 353 q 207 296 272 544 q 183 169 183 208 q 201 117 183 135 q 260 92 218 100 q 263 40 263 75 q 261 -4 263 10 q 118 0 218 0 q -47 -4 0 0 q -28 92 -47 46 q 24 120 4 101 q 62 178 44 139 q 103 290 79 217 q 219 725 174 522 q 229 792 229 774 q 213 831 229 819 q 156 847 197 842 q 150 896 150 868 q 154 943 150 921 q 319 939 201 939 q 490 943 431 939 q 657 311 585 626 q 1004 943 843 624 q 1171 939 1072 939 q 1321 943 1261 939 q 1304 847 1321 897 q 1248 824 1267 840 q 1220 775 1229 808 q 1207 679 1211 742 l 1201 581 z "},"Ṃ":{"ha":1321,"x_min":-47,"x_max":1321,"o":"m 1201 581 q 1181 267 1186 335 q 1176 185 1176 217 q 1191 116 1176 135 q 1246 92 1206 97 q 1250 42 1250 69 q 1247 -4 1250 26 q 1025 0 1186 0 q 800 -4 872 0 q 817 92 800 49 q 888 114 865 99 q 920 164 910 129 q 938 274 931 199 q 964 604 953 421 q 969 674 967 626 q 586 -4 776 310 q 493 -12 550 -12 q 304 685 408 353 q 207 296 272 544 q 183 169 183 208 q 201 117 183 135 q 260 92 218 100 q 263 40 263 75 q 261 -4 263 10 q 118 0 218 0 q -47 -4 0 0 q -28 92 -47 46 q 24 120 4 101 q 62 178 44 139 q 103 290 79 217 q 219 725 174 522 q 229 792 229 774 q 213 831 229 819 q 156 847 197 842 q 150 896 150 868 q 154 943 150 921 q 319 939 201 939 q 490 943 431 939 q 657 311 585 626 q 1004 943 843 624 q 1171 939 1072 939 q 1321 943 1261 939 q 1304 847 1321 897 q 1248 824 1267 840 q 1220 775 1229 808 q 1207 679 1211 742 l 1201 581 m 474 -331 q 388 -305 418 -331 q 357 -236 357 -279 q 360 -211 357 -228 q 408 -131 369 -158 q 503 -103 447 -103 q 588 -129 558 -103 q 618 -201 618 -156 q 617 -224 618 -215 q 569 -303 607 -276 q 474 -331 531 -331 z "},"N":{"ha":975,"x_min":15,"x_max":1057,"o":"m 892 939 q 1057 943 1004 939 q 1039 847 1054 888 q 980 816 1000 835 q 947 760 960 797 q 921 647 933 724 l 808 0 q 699 -12 765 -12 q 328 669 521 336 l 263 290 q 250 185 250 224 q 269 122 250 142 q 340 92 289 103 q 344 42 344 69 q 342 -4 344 26 q 179 0 281 0 q 15 -4 74 0 q 33 92 18 51 q 99 122 75 104 q 138 176 122 139 q 165 286 153 214 l 256 794 l 247 807 q 218 837 235 829 q 158 847 201 844 q 154 896 154 871 q 157 943 154 910 q 310 939 207 939 q 454 943 413 939 q 775 363 608 692 l 821 650 q 832 747 832 714 q 811 813 832 792 q 738 847 790 835 q 733 897 733 871 q 736 943 733 913 q 892 939 793 939 z "},"Ǌ":{"ha":1435,"x_min":15,"x_max":1514,"o":"m 892 939 q 1057 943 1004 939 q 1039 847 1054 888 q 980 816 1000 835 q 947 760 960 797 q 921 647 933 724 l 808 0 q 699 -12 765 -12 q 328 669 521 336 l 263 290 q 250 185 250 224 q 269 122 250 142 q 340 92 289 103 q 344 42 344 69 q 342 -4 344 26 q 179 0 281 0 q 15 -4 74 0 q 33 92 18 51 q 99 122 75 104 q 138 176 122 139 q 165 286 153 214 l 256 794 l 247 807 q 218 837 235 829 q 158 847 201 844 q 154 896 154 871 q 157 943 154 910 q 310 939 207 939 q 454 943 413 939 q 775 363 608 692 l 821 650 q 832 747 832 714 q 811 813 832 792 q 738 847 790 835 q 733 897 733 871 q 736 943 733 913 q 892 939 793 939 m 1076 943 q 1296 939 1136 939 q 1514 943 1419 939 q 1499 847 1513 892 q 1436 828 1457 843 q 1406 783 1415 813 q 1385 688 1397 754 l 1294 172 q 1229 -60 1269 31 q 1105 -219 1189 -150 q 869 -343 1021 -289 q 841 -300 849 -325 q 832 -240 833 -275 q 969 -119 922 -192 q 1040 89 1017 -46 l 1149 711 q 1157 782 1157 756 q 1140 828 1157 814 q 1079 847 1124 842 q 1074 901 1074 869 q 1076 943 1074 915 z "},"Ń":{"ha":976,"x_min":15,"x_max":1057,"o":"m 892 939 q 1057 943 1004 939 q 1039 847 1054 888 q 980 816 1000 835 q 947 760 960 797 q 921 647 933 724 l 808 0 q 699 -12 765 -12 q 328 669 521 336 l 263 290 q 250 185 250 224 q 269 122 250 142 q 340 92 289 103 q 344 42 344 69 q 342 -4 344 26 q 179 0 281 0 q 15 -4 74 0 q 33 92 18 51 q 99 122 75 104 q 138 176 122 139 q 165 286 153 214 l 256 794 l 247 807 q 218 837 235 829 q 158 847 201 844 q 154 896 154 871 q 157 943 154 910 q 310 939 207 939 q 454 943 413 939 q 775 363 608 692 l 821 650 q 832 747 832 714 q 811 813 832 792 q 738 847 790 835 q 733 897 733 871 q 736 943 733 913 q 892 939 793 939 m 642 1015 q 529 1057 579 1022 q 592 1143 561 1093 q 636 1225 622 1193 q 696 1228 675 1228 q 847 1204 793 1228 q 642 1015 729 1100 z "},"Ň":{"ha":976,"x_min":15,"x_max":1057,"o":"m 892 939 q 1057 943 1004 939 q 1039 847 1054 888 q 980 816 1000 835 q 947 760 960 797 q 921 647 933 724 l 808 0 q 699 -12 765 -12 q 328 669 521 336 l 263 290 q 250 185 250 224 q 269 122 250 142 q 340 92 289 103 q 344 42 344 69 q 342 -4 344 26 q 179 0 281 0 q 15 -4 74 0 q 33 92 18 51 q 99 122 75 104 q 138 176 122 139 q 165 286 153 214 l 256 794 l 247 807 q 218 837 235 829 q 158 847 201 844 q 154 896 154 871 q 157 943 154 910 q 310 939 207 939 q 454 943 413 939 q 775 363 608 692 l 821 650 q 832 747 832 714 q 811 813 832 792 q 738 847 790 835 q 733 897 733 871 q 736 943 733 913 q 892 939 793 939 m 578 1011 q 394 1168 507 1088 q 483 1239 417 1233 q 658 1160 557 1194 q 850 1242 738 1178 q 890 1215 872 1235 q 918 1169 908 1194 q 683 1025 781 1092 q 607 1008 646 1008 q 578 1011 597 1008 z "},"Ņ":{"ha":976,"x_min":15,"x_max":1057,"o":"m 892 939 q 1057 943 1004 939 q 1039 847 1054 888 q 980 816 1000 835 q 947 760 960 797 q 921 647 933 724 l 808 0 q 699 -12 765 -12 q 328 669 521 336 l 263 290 q 250 185 250 224 q 269 122 250 142 q 340 92 289 103 q 344 42 344 69 q 342 -4 344 26 q 179 0 281 0 q 15 -4 74 0 q 33 92 18 51 q 99 122 75 104 q 138 176 122 139 q 165 286 153 214 l 256 794 l 247 807 q 218 837 235 829 q 158 847 201 844 q 154 896 154 871 q 157 943 154 910 q 310 939 207 939 q 454 943 413 939 q 775 363 608 692 l 821 650 q 832 747 832 714 q 811 813 832 792 q 738 847 790 835 q 733 897 733 871 q 736 943 733 913 q 892 939 793 939 m 383 -428 q 317 -382 336 -421 q 378 -322 354 -354 q 401 -264 401 -290 q 383 -233 401 -244 q 328 -217 365 -222 q 367 -96 331 -144 q 532 -54 468 -92 q 572 -81 560 -62 q 585 -129 585 -99 q 582 -165 585 -151 q 383 -428 557 -317 z "},"Ṅ":{"ha":976,"x_min":15,"x_max":1057,"o":"m 892 939 q 1057 943 1004 939 q 1039 847 1054 888 q 980 816 1000 835 q 947 760 960 797 q 921 647 933 724 l 808 0 q 699 -12 765 -12 q 328 669 521 336 l 263 290 q 250 185 250 224 q 269 122 250 142 q 340 92 289 103 q 344 42 344 69 q 342 -4 344 26 q 179 0 281 0 q 15 -4 74 0 q 33 92 18 51 q 99 122 75 104 q 138 176 122 139 q 165 286 153 214 l 256 794 l 247 807 q 218 837 235 829 q 158 847 201 844 q 154 896 154 871 q 157 943 154 910 q 310 939 207 939 q 454 943 413 939 q 775 363 608 692 l 821 650 q 832 747 832 714 q 811 813 832 792 q 738 847 790 835 q 733 897 733 871 q 736 943 733 913 q 892 939 793 939 m 633 996 q 553 1022 583 996 q 522 1094 522 1049 q 562 1180 522 1150 q 672 1210 601 1210 q 753 1183 722 1210 q 783 1110 783 1156 q 782 1093 783 1099 q 738 1020 775 1044 q 633 996 701 996 z "},"Ṇ":{"ha":976,"x_min":15,"x_max":1057,"o":"m 892 939 q 1057 943 1004 939 q 1039 847 1054 888 q 980 816 1000 835 q 947 760 960 797 q 921 647 933 724 l 808 0 q 699 -12 765 -12 q 328 669 521 336 l 263 290 q 250 185 250 224 q 269 122 250 142 q 340 92 289 103 q 344 42 344 69 q 342 -4 344 26 q 179 0 281 0 q 15 -4 74 0 q 33 92 18 51 q 99 122 75 104 q 138 176 122 139 q 165 286 153 214 l 256 794 l 247 807 q 218 837 235 829 q 158 847 201 844 q 154 896 154 871 q 157 943 154 910 q 310 939 207 939 q 454 943 413 939 q 775 363 608 692 l 821 650 q 832 747 832 714 q 811 813 832 792 q 738 847 790 835 q 733 897 733 871 q 736 943 733 913 q 892 939 793 939 m 432 -331 q 346 -305 376 -331 q 315 -236 315 -279 q 318 -211 315 -228 q 367 -131 328 -158 q 461 -103 406 -103 q 547 -129 517 -103 q 576 -201 576 -156 q 575 -224 576 -215 q 527 -303 565 -276 q 432 -331 489 -331 z "},"Ŋ":{"ha":979,"x_min":104,"x_max":1010,"o":"m 842 947 q 962 895 914 947 q 1010 724 1010 843 q 989 554 1010 654 l 903 147 q 806 -101 875 13 q 647 -280 736 -214 q 474 -346 558 -346 q 388 -324 425 -346 q 329 -268 350 -303 q 367 -139 329 -217 q 424 -160 388 -153 q 489 -167 460 -167 q 564 -144 538 -167 q 605 -79 590 -122 q 638 54 619 -36 l 735 531 q 753 671 753 624 q 700 760 753 760 q 589 692 651 760 q 471 501 526 625 q 386 219 415 378 l 346 0 l 104 0 l 215 600 q 232 714 232 686 q 210 763 232 750 q 131 776 189 776 q 149 871 133 838 q 308 898 219 875 q 460 949 396 921 q 495 915 485 935 q 506 867 506 896 q 501 822 506 847 q 472 689 493 761 q 426 564 451 617 l 426 561 l 458 631 q 556 780 493 707 q 694 900 618 853 q 842 947 769 947 z "},"Ɲ":{"ha":989,"x_min":-307,"x_max":1074,"o":"m 931 939 q 1074 943 1022 939 q 1046 847 1064 883 q 986 825 1008 844 q 951 766 964 806 q 922 649 938 726 l 796 -1 q 685 -12 758 -12 l 315 658 l 210 110 q 124 -137 182 -35 q -11 -293 65 -240 q -171 -346 -87 -346 q -257 -327 -222 -346 q -307 -282 -292 -308 q -295 -215 -307 -256 q -267 -144 -283 -175 q -206 -160 -243 -154 q -135 -167 -169 -167 q 24 -105 -35 -167 q 110 93 83 -43 l 244 788 l 233 807 q 207 835 224 828 q 149 847 190 843 q 156 943 147 888 q 319 939 208 939 q 461 943 426 939 l 772 368 l 826 649 q 842 763 842 725 q 822 825 842 807 q 753 847 801 843 q 761 943 751 878 q 931 939 821 939 z "},"ǋ":{"ha":1378,"x_min":15,"x_max":1401,"o":"m 892 939 q 1057 943 1004 939 q 1039 847 1054 888 q 980 816 1000 835 q 947 760 960 797 q 921 647 933 724 l 808 0 q 699 -12 765 -12 q 328 669 521 336 l 263 290 q 250 185 250 224 q 269 122 250 142 q 340 92 289 103 q 344 42 344 69 q 342 -4 344 26 q 179 0 281 0 q 15 -4 74 0 q 33 92 18 51 q 99 122 75 104 q 138 176 122 139 q 165 286 153 214 l 256 794 l 247 807 q 218 837 235 829 q 158 847 201 844 q 154 896 154 871 q 157 943 154 910 q 310 939 207 939 q 454 943 413 939 q 775 363 608 692 l 821 650 q 832 747 832 714 q 811 813 832 792 q 738 847 790 835 q 733 897 733 871 q 736 943 733 913 q 892 939 793 939 m 1247 732 q 1170 759 1199 732 q 1142 831 1142 786 q 1183 926 1142 892 q 1296 961 1224 961 q 1372 934 1343 961 q 1401 863 1401 907 q 1400 839 1401 847 q 1247 732 1381 732 m 871 -343 q 833 -250 833 -310 q 969 -123 918 -200 q 1040 72 1019 -46 l 1094 383 q 1103 447 1103 436 q 1085 489 1103 478 q 1021 500 1068 500 q 1036 592 1018 549 q 1181 609 1107 593 q 1314 649 1256 625 q 1346 613 1336 631 q 1356 569 1356 596 q 1349 506 1356 550 l 1286 156 q 1210 -84 1260 10 q 1081 -237 1161 -178 q 871 -343 1000 -297 z "},"Ṉ":{"ha":976,"x_min":15,"x_max":1057,"o":"m 892 939 q 1057 943 1004 939 q 1039 847 1054 888 q 980 816 1000 835 q 947 760 960 797 q 921 647 933 724 l 808 0 q 699 -12 765 -12 q 328 669 521 336 l 263 290 q 250 185 250 224 q 269 122 250 142 q 340 92 289 103 q 344 42 344 69 q 342 -4 344 26 q 179 0 281 0 q 15 -4 74 0 q 33 92 18 51 q 99 122 75 104 q 138 176 122 139 q 165 286 153 214 l 256 794 l 247 807 q 218 837 235 829 q 158 847 201 844 q 154 896 154 871 q 157 943 154 910 q 310 939 207 939 q 454 943 413 939 q 775 363 608 692 l 821 650 q 832 747 832 714 q 811 813 832 792 q 738 847 790 835 q 733 897 733 871 q 736 943 733 913 q 892 939 793 939 m 193 -250 q 206 -167 193 -197 l 704 -167 q 692 -242 704 -204 q 193 -250 407 -242 z "},"Ñ":{"ha":976,"x_min":15,"x_max":1057,"o":"m 892 939 q 1057 943 1004 939 q 1039 847 1054 888 q 980 816 1000 835 q 947 760 960 797 q 921 647 933 724 l 808 0 q 699 -12 765 -12 q 328 669 521 336 l 263 290 q 250 185 250 224 q 269 122 250 142 q 340 92 289 103 q 344 42 344 69 q 342 -4 344 26 q 179 0 281 0 q 15 -4 74 0 q 33 92 18 51 q 99 122 75 104 q 138 176 122 139 q 165 286 153 214 l 256 794 l 247 807 q 218 837 235 829 q 158 847 201 844 q 154 896 154 871 q 157 943 154 910 q 310 939 207 939 q 454 943 413 939 q 775 363 608 692 l 821 650 q 832 747 832 714 q 811 813 832 792 q 738 847 790 835 q 733 897 733 871 q 736 943 733 913 q 892 939 793 939 m 715 1025 q 656 1034 679 1025 q 606 1061 633 1043 q 569 1082 585 1075 q 533 1089 554 1089 q 413 1028 479 1089 q 390 1069 397 1050 q 383 1114 383 1089 l 385 1135 q 484 1199 431 1179 q 585 1219 538 1219 q 643 1210 618 1219 q 697 1185 668 1201 q 738 1166 722 1172 q 771 1160 753 1160 q 865 1215 821 1160 q 935 1154 915 1193 q 833 1058 889 1090 q 715 1025 776 1025 z "},"O":{"ha":1031,"x_min":64,"x_max":1026,"o":"m 474 -12 q 253 36 346 -12 q 113 174 161 85 q 64 379 64 263 q 75 496 64 442 q 178 738 101 635 q 367 896 254 840 q 614 951 479 951 q 832 905 739 951 q 976 772 925 858 q 1026 565 1026 685 q 1015 450 1026 504 q 915 210 990 315 q 726 47 840 106 q 474 -12 613 -12 m 489 83 q 665 188 590 83 q 771 469 739 293 q 782 586 782 536 q 733 783 782 708 q 597 858 685 858 q 428 762 500 858 q 324 501 356 665 q 308 349 308 417 q 354 155 308 226 q 489 83 400 83 z "},"Ó":{"ha":1031,"x_min":64,"x_max":1026,"o":"m 474 -12 q 253 36 346 -12 q 113 174 161 85 q 64 379 64 263 q 75 496 64 442 q 178 738 101 635 q 367 896 254 840 q 614 951 479 951 q 832 905 739 951 q 976 772 925 858 q 1026 565 1026 685 q 1015 450 1026 504 q 915 210 990 315 q 726 47 840 106 q 474 -12 613 -12 m 489 83 q 665 188 590 83 q 771 469 739 293 q 782 586 782 536 q 733 783 782 708 q 597 858 685 858 q 428 762 500 858 q 324 501 356 665 q 308 349 308 417 q 354 155 308 226 q 489 83 400 83 m 646 1015 q 533 1057 583 1022 q 596 1143 565 1093 q 640 1225 626 1193 q 700 1228 679 1228 q 851 1204 797 1228 q 646 1015 733 1100 z "},"Ŏ":{"ha":1031,"x_min":64,"x_max":1026,"o":"m 474 -12 q 253 36 346 -12 q 113 174 161 85 q 64 379 64 263 q 75 496 64 442 q 178 738 101 635 q 367 896 254 840 q 614 951 479 951 q 832 905 739 951 q 976 772 925 858 q 1026 565 1026 685 q 1015 450 1026 504 q 915 210 990 315 q 726 47 840 106 q 474 -12 613 -12 m 489 83 q 665 188 590 83 q 771 469 739 293 q 782 586 782 536 q 733 783 782 708 q 597 858 685 858 q 428 762 500 858 q 324 501 356 665 q 308 349 308 417 q 354 155 308 226 q 489 83 400 83 m 622 1006 q 386 1165 386 1006 q 390 1208 386 1186 q 485 1224 433 1224 q 518 1221 496 1224 q 554 1156 517 1178 q 661 1133 592 1133 q 773 1156 729 1133 q 829 1221 817 1178 q 868 1225 850 1225 q 933 1213 901 1225 q 836 1058 915 1111 q 622 1006 757 1006 z "},"Ǒ":{"ha":1031,"x_min":64,"x_max":1026,"o":"m 474 -12 q 253 36 346 -12 q 113 174 161 85 q 64 379 64 263 q 75 496 64 442 q 178 738 101 635 q 367 896 254 840 q 614 951 479 951 q 832 905 739 951 q 976 772 925 858 q 1026 565 1026 685 q 1015 450 1026 504 q 915 210 990 315 q 726 47 840 106 q 474 -12 613 -12 m 489 83 q 665 188 590 83 q 771 469 739 293 q 782 586 782 536 q 733 783 782 708 q 597 858 685 858 q 428 762 500 858 q 324 501 356 665 q 308 349 308 417 q 354 155 308 226 q 489 83 400 83 m 582 1011 q 399 1168 511 1088 q 488 1239 421 1233 q 663 1160 561 1194 q 854 1242 742 1178 q 894 1215 876 1235 q 922 1169 913 1194 q 688 1025 785 1092 q 611 1008 650 1008 q 582 1011 601 1008 z "},"Ô":{"ha":1031,"x_min":64,"x_max":1026,"o":"m 474 -12 q 253 36 346 -12 q 113 174 161 85 q 64 379 64 263 q 75 496 64 442 q 178 738 101 635 q 367 896 254 840 q 614 951 479 951 q 832 905 739 951 q 976 772 925 858 q 1026 565 1026 685 q 1015 450 1026 504 q 915 210 990 315 q 726 47 840 106 q 474 -12 613 -12 m 489 83 q 665 188 590 83 q 771 469 739 293 q 782 586 782 536 q 733 783 782 708 q 597 858 685 858 q 428 762 500 858 q 324 501 356 665 q 308 349 308 417 q 354 155 308 226 q 489 83 400 83 m 463 1003 q 418 1037 436 1013 q 394 1085 400 1061 q 517 1153 451 1111 q 639 1236 583 1194 q 672 1239 661 1239 q 742 1228 708 1239 q 926 1050 807 1158 q 884 1026 911 1035 q 825 1015 857 1017 q 656 1097 729 1074 q 529 1036 601 1076 l 463 1003 z "},"Ố":{"ha":1031,"x_min":64,"x_max":1107,"o":"m 474 -12 q 253 36 346 -12 q 113 174 161 85 q 64 379 64 263 q 75 496 64 442 q 178 738 101 635 q 367 896 254 840 q 614 951 479 951 q 832 905 739 951 q 976 772 925 858 q 1026 565 1026 685 q 1015 450 1026 504 q 915 210 990 315 q 726 47 840 106 q 474 -12 613 -12 m 489 83 q 665 188 590 83 q 771 469 739 293 q 782 586 782 536 q 733 783 782 708 q 597 858 685 858 q 428 762 500 858 q 324 501 356 665 q 308 349 308 417 q 354 155 308 226 q 489 83 400 83 m 921 1193 q 821 1231 868 1200 q 877 1309 850 1264 q 917 1382 904 1354 q 969 1385 953 1385 q 1107 1363 1056 1385 q 921 1193 976 1247 m 463 1003 q 418 1038 436 1013 q 396 1085 400 1063 q 519 1153 453 1111 q 640 1236 585 1194 q 674 1239 663 1239 q 743 1228 707 1239 q 926 1050 804 1161 q 885 1026 913 1035 q 826 1015 858 1017 q 657 1097 731 1074 q 528 1036 625 1085 q 463 1003 493 1017 z "},"Ộ":{"ha":1031,"x_min":64,"x_max":1026,"o":"m 474 -12 q 253 36 346 -12 q 113 174 161 85 q 64 379 64 263 q 75 496 64 442 q 178 738 101 635 q 367 896 254 840 q 614 951 479 951 q 832 905 739 951 q 976 772 925 858 q 1026 565 1026 685 q 1015 450 1026 504 q 915 210 990 315 q 726 47 840 106 q 474 -12 613 -12 m 489 83 q 665 188 590 83 q 771 469 739 293 q 782 586 782 536 q 733 783 782 708 q 597 858 685 858 q 428 762 500 858 q 324 501 356 665 q 308 349 308 417 q 354 155 308 226 q 489 83 400 83 m 424 -331 q 338 -305 368 -331 q 307 -236 307 -279 q 310 -211 307 -228 q 358 -131 319 -158 q 453 -103 397 -103 q 538 -129 508 -103 q 568 -201 568 -156 q 567 -224 568 -215 q 519 -303 557 -276 q 424 -331 481 -331 m 463 1003 q 418 1037 436 1013 q 394 1085 400 1061 q 517 1153 451 1111 q 639 1236 583 1194 q 672 1239 661 1239 q 742 1228 708 1239 q 926 1050 807 1158 q 884 1026 911 1035 q 825 1015 857 1017 q 656 1097 729 1074 q 529 1036 601 1076 l 463 1003 z "},"Ồ":{"ha":1031,"x_min":64,"x_max":1026,"o":"m 474 -12 q 253 36 346 -12 q 113 174 161 85 q 64 379 64 263 q 75 496 64 442 q 178 738 101 635 q 367 896 254 840 q 614 951 479 951 q 832 905 739 951 q 976 772 925 858 q 1026 565 1026 685 q 1015 450 1026 504 q 915 210 990 315 q 726 47 840 106 q 474 -12 613 -12 m 489 83 q 665 188 590 83 q 771 469 739 293 q 782 586 782 536 q 733 783 782 708 q 597 858 685 858 q 428 762 500 858 q 324 501 356 665 q 308 349 308 417 q 354 155 308 226 q 489 83 400 83 z "},"Ổ":{"ha":1031,"x_min":64,"x_max":1060,"o":"m 474 -12 q 253 36 346 -12 q 113 174 161 85 q 64 379 64 263 q 75 496 64 442 q 178 738 101 635 q 367 896 254 840 q 614 951 479 951 q 832 905 739 951 q 976 772 925 858 q 1026 565 1026 685 q 1015 450 1026 504 q 915 210 990 315 q 726 47 840 106 q 474 -12 613 -12 m 489 83 q 665 188 590 83 q 771 469 739 293 q 782 586 782 536 q 733 783 782 708 q 597 858 685 858 q 428 762 500 858 q 324 501 356 665 q 308 349 308 417 q 354 155 308 226 q 489 83 400 83 z "},"Ỗ":{"ha":1031,"x_min":64,"x_max":1026,"o":"m 474 -12 q 253 36 346 -12 q 113 174 161 85 q 64 379 64 263 q 75 496 64 442 q 178 738 101 635 q 367 896 254 840 q 614 951 479 951 q 832 905 739 951 q 976 772 925 858 q 1026 565 1026 685 q 1015 450 1026 504 q 915 210 990 315 q 726 47 840 106 q 474 -12 613 -12 m 489 83 q 665 188 590 83 q 771 469 739 293 q 782 586 782 536 q 733 783 782 708 q 597 858 685 858 q 428 762 500 858 q 324 501 356 665 q 308 349 308 417 q 354 155 308 226 q 489 83 400 83 m 463 1003 q 418 1037 436 1013 q 394 1085 400 1061 q 517 1153 451 1111 q 639 1236 583 1194 q 672 1239 661 1239 q 742 1228 708 1239 q 926 1050 807 1158 q 884 1026 911 1035 q 825 1015 857 1017 q 656 1097 729 1074 q 529 1036 601 1076 l 463 1003 m 776 1296 q 717 1305 740 1296 q 667 1332 694 1314 q 631 1353 646 1346 q 594 1360 615 1360 q 474 1299 540 1360 q 451 1340 458 1321 q 444 1385 444 1360 l 446 1406 q 545 1470 492 1450 q 646 1490 599 1490 q 704 1481 679 1490 q 758 1456 729 1472 q 799 1437 783 1443 q 832 1431 814 1431 q 926 1486 882 1431 q 996 1425 976 1464 q 894 1328 950 1361 q 776 1296 838 1296 z "},"Ȍ":{"ha":1031,"x_min":64,"x_max":1026,"o":"m 474 -12 q 253 36 346 -12 q 113 174 161 85 q 64 379 64 263 q 75 496 64 442 q 178 738 101 635 q 367 896 254 840 q 614 951 479 951 q 832 905 739 951 q 976 772 925 858 q 1026 565 1026 685 q 1015 450 1026 504 q 915 210 990 315 q 726 47 840 106 q 474 -12 613 -12 m 489 83 q 665 188 590 83 q 771 469 739 293 q 782 586 782 536 q 733 783 782 708 q 597 858 685 858 q 428 762 500 858 q 324 501 356 665 q 308 349 308 417 q 354 155 308 226 q 489 83 400 83 m 729 1051 q 644 1181 676 1138 q 743 1193 685 1193 q 813 1188 783 1193 q 875 1004 838 1081 q 814 1000 846 1000 q 760 1004 789 1000 l 729 1051 m 499 1004 q 372 1176 421 1115 q 486 1193 419 1193 q 551 1188 510 1193 q 615 1004 582 1074 q 554 1000 586 1000 q 499 1004 529 1000 z "},"Ö":{"ha":1031,"x_min":64,"x_max":1026,"o":"m 474 -12 q 253 36 346 -12 q 113 174 161 85 q 64 379 64 263 q 75 496 64 442 q 178 738 101 635 q 367 896 254 840 q 614 951 479 951 q 832 905 739 951 q 976 772 925 858 q 1026 565 1026 685 q 1015 450 1026 504 q 915 210 990 315 q 726 47 840 106 q 474 -12 613 -12 m 489 83 q 665 188 590 83 q 771 469 739 293 q 782 586 782 536 q 733 783 782 708 q 597 858 685 858 q 428 762 500 858 q 324 501 356 665 q 308 349 308 417 q 354 155 308 226 q 489 83 400 83 m 501 1003 q 420 1032 450 1003 q 390 1111 390 1061 q 497 1218 390 1218 q 578 1191 549 1218 q 608 1115 608 1164 q 581 1033 608 1063 q 501 1003 554 1003 m 815 1003 q 733 1031 763 1003 q 703 1110 703 1060 q 817 1218 703 1218 q 897 1190 868 1218 q 926 1113 926 1163 q 899 1031 926 1060 q 815 1003 871 1003 z "},"Ȫ":{"ha":1031,"x_min":64,"x_max":1026,"o":"m 474 -12 q 253 36 346 -12 q 113 174 161 85 q 64 379 64 263 q 75 496 64 442 q 178 738 101 635 q 367 896 254 840 q 614 951 479 951 q 832 905 739 951 q 976 772 925 858 q 1026 565 1026 685 q 1015 450 1026 504 q 915 210 990 315 q 726 47 840 106 q 474 -12 613 -12 m 489 83 q 665 188 590 83 q 771 469 739 293 q 782 586 782 536 q 733 783 782 708 q 597 858 685 858 q 428 762 500 858 q 324 501 356 665 q 308 349 308 417 q 354 155 308 226 q 489 83 400 83 m 501 1003 q 420 1032 450 1003 q 390 1111 390 1061 q 497 1218 390 1218 q 578 1191 549 1218 q 608 1115 608 1164 q 581 1033 608 1063 q 501 1003 554 1003 m 815 1003 q 733 1031 763 1003 q 703 1110 703 1060 q 817 1218 703 1218 q 897 1190 868 1218 q 926 1113 926 1163 q 899 1031 926 1060 q 815 1003 871 1003 m 442 1306 q 454 1389 442 1358 l 953 1389 q 940 1314 953 1354 q 442 1306 656 1314 z "},"Ȱ":{"ha":1031,"x_min":64,"x_max":1026,"o":"m 474 -12 q 253 36 346 -12 q 113 174 161 85 q 64 379 64 263 q 75 496 64 442 q 178 738 101 635 q 367 896 254 840 q 614 951 479 951 q 832 905 739 951 q 976 772 925 858 q 1026 565 1026 685 q 1015 450 1026 504 q 915 210 990 315 q 726 47 840 106 q 474 -12 613 -12 m 489 83 q 665 188 590 83 q 771 469 739 293 q 782 586 782 536 q 733 783 782 708 q 597 858 685 858 q 428 762 500 858 q 324 501 356 665 q 308 349 308 417 q 354 155 308 226 q 489 83 400 83 m 638 996 q 557 1022 588 996 q 526 1094 526 1049 q 566 1180 526 1150 q 676 1210 606 1210 q 757 1183 726 1210 q 788 1110 788 1156 q 786 1093 788 1099 q 742 1020 779 1044 q 638 996 706 996 m 444 1278 q 457 1361 444 1331 l 956 1361 q 943 1286 956 1326 q 444 1278 658 1286 z "},"Ọ":{"ha":1031,"x_min":64,"x_max":1026,"o":"m 474 -12 q 253 36 346 -12 q 113 174 161 85 q 64 379 64 263 q 75 496 64 442 q 178 738 101 635 q 367 896 254 840 q 614 951 479 951 q 832 905 739 951 q 976 772 925 858 q 1026 565 1026 685 q 1015 450 1026 504 q 915 210 990 315 q 726 47 840 106 q 474 -12 613 -12 m 489 83 q 665 188 590 83 q 771 469 739 293 q 782 586 782 536 q 733 783 782 708 q 597 858 685 858 q 428 762 500 858 q 324 501 356 665 q 308 349 308 417 q 354 155 308 226 q 489 83 400 83 m 424 -331 q 338 -305 368 -331 q 307 -236 307 -279 q 310 -211 307 -228 q 358 -131 319 -158 q 453 -103 397 -103 q 538 -129 508 -103 q 568 -201 568 -156 q 567 -224 568 -215 q 519 -303 557 -276 q 424 -331 481 -331 z "},"Ò":{"ha":1031,"x_min":64,"x_max":1026,"o":"m 474 -12 q 253 36 346 -12 q 113 174 161 85 q 64 379 64 263 q 75 496 64 442 q 178 738 101 635 q 367 896 254 840 q 614 951 479 951 q 832 905 739 951 q 976 772 925 858 q 1026 565 1026 685 q 1015 450 1026 504 q 915 210 990 315 q 726 47 840 106 q 474 -12 613 -12 m 489 83 q 665 188 590 83 q 771 469 739 293 q 782 586 782 536 q 733 783 782 708 q 597 858 685 858 q 428 762 500 858 q 324 501 356 665 q 308 349 308 417 q 354 155 308 226 q 489 83 400 83 m 722 1028 q 658 1021 694 1021 q 588 1029 617 1021 q 529 1110 568 1063 q 453 1194 490 1157 q 588 1213 528 1213 q 654 1207 625 1213 q 722 1028 681 1106 z "},"Ỏ":{"ha":1031,"x_min":64,"x_max":1026,"o":"m 474 -12 q 253 36 346 -12 q 113 174 161 85 q 64 379 64 263 q 75 496 64 442 q 178 738 101 635 q 367 896 254 840 q 614 951 479 951 q 832 905 739 951 q 976 772 925 858 q 1026 565 1026 685 q 1015 450 1026 504 q 915 210 990 315 q 726 47 840 106 q 474 -12 613 -12 m 489 83 q 665 188 590 83 q 771 469 739 293 q 782 586 782 536 q 733 783 782 708 q 597 858 685 858 q 428 762 500 858 q 324 501 356 665 q 308 349 308 417 q 354 155 308 226 q 489 83 400 83 m 596 1008 q 590 1035 590 1022 q 606 1083 590 1067 q 650 1114 621 1099 q 680 1133 669 1125 q 696 1153 690 1140 q 699 1165 699 1161 q 690 1181 699 1175 q 665 1188 681 1188 q 590 1108 611 1188 q 501 1125 531 1108 q 521 1217 521 1174 q 600 1242 556 1232 q 689 1251 644 1251 q 788 1231 754 1251 q 822 1175 822 1211 q 818 1149 822 1164 q 788 1099 808 1117 q 738 1067 768 1082 q 706 1048 717 1057 q 690 1026 694 1039 q 689 1001 685 1013 q 657 999 669 999 q 596 1008 617 999 z "},"Ơ":{"ha":1031,"x_min":64,"x_max":1083,"o":"m 1060 1101 q 1083 1022 1083 1067 q 1035 910 1083 957 q 910 853 986 864 q 1026 565 1026 749 q 1015 450 1026 514 q 915 210 990 315 q 726 47 840 106 q 474 -12 613 -12 q 253 36 346 -12 q 113 174 161 85 q 64 379 64 263 q 75 496 64 442 q 178 738 101 635 q 367 896 254 840 q 614 951 479 951 l 663 951 l 663 951 q 825 933 769 933 q 898 951 875 933 q 928 1008 921 969 q 932 1049 932 1032 q 928 1085 932 1067 q 1032 1103 974 1103 q 1060 1101 1050 1103 m 771 469 q 782 586 782 536 q 733 783 782 708 q 597 858 685 858 q 428 762 500 858 q 324 501 356 665 q 308 349 308 417 q 354 155 308 226 q 489 83 400 83 q 665 188 590 83 q 771 469 739 293 z "},"Ớ":{"ha":1031,"x_min":64,"x_max":1083,"o":"m 1060 1101 q 1083 1022 1083 1067 q 1035 910 1083 957 q 910 853 986 864 q 1026 565 1026 749 q 1015 450 1026 514 q 915 210 990 315 q 726 47 840 106 q 474 -12 613 -12 q 253 36 346 -12 q 113 174 161 85 q 64 379 64 263 q 75 496 64 442 q 178 738 101 635 q 367 896 254 840 q 614 951 479 951 l 663 951 l 663 951 q 825 933 769 933 q 898 951 875 933 q 928 1008 921 969 q 932 1049 932 1032 q 928 1085 932 1067 q 1032 1103 974 1103 q 1060 1101 1050 1103 m 771 469 q 782 586 782 536 q 733 783 782 708 q 597 858 685 858 q 428 762 500 858 q 324 501 356 665 q 308 349 308 417 q 354 155 308 226 q 489 83 400 83 q 665 188 590 83 q 771 469 739 293 m 646 1015 q 533 1057 583 1022 q 596 1143 565 1093 q 640 1225 626 1193 q 700 1228 679 1228 q 851 1204 797 1228 q 646 1015 733 1100 z "},"Ợ":{"ha":1031,"x_min":64,"x_max":1083,"o":"m 1060 1101 q 1083 1022 1083 1067 q 1035 910 1083 957 q 910 853 986 864 q 1026 565 1026 749 q 1015 450 1026 514 q 915 210 990 315 q 726 47 840 106 q 474 -12 613 -12 q 253 36 346 -12 q 113 174 161 85 q 64 379 64 263 q 75 496 64 442 q 178 738 101 635 q 367 896 254 840 q 614 951 479 951 l 663 951 l 663 951 q 825 933 769 933 q 898 951 875 933 q 928 1008 921 969 q 932 1049 932 1032 q 928 1085 932 1067 q 1032 1103 974 1103 q 1060 1101 1050 1103 m 771 469 q 782 586 782 536 q 733 783 782 708 q 597 858 685 858 q 428 762 500 858 q 324 501 356 665 q 308 349 308 417 q 354 155 308 226 q 489 83 400 83 q 665 188 590 83 q 771 469 739 293 m 424 -331 q 338 -305 368 -331 q 307 -236 307 -279 q 310 -211 307 -228 q 358 -131 319 -158 q 453 -103 397 -103 q 538 -129 508 -103 q 568 -201 568 -156 q 567 -224 568 -215 q 519 -303 557 -276 q 424 -331 481 -331 z "},"Ờ":{"ha":1031,"x_min":64,"x_max":1083,"o":"m 1060 1101 q 1083 1022 1083 1067 q 1035 910 1083 957 q 910 853 986 864 q 1026 565 1026 749 q 1015 450 1026 514 q 915 210 990 315 q 726 47 840 106 q 474 -12 613 -12 q 253 36 346 -12 q 113 174 161 85 q 64 379 64 263 q 75 496 64 442 q 178 738 101 635 q 367 896 254 840 q 614 951 479 951 l 663 951 l 663 951 q 825 933 769 933 q 898 951 875 933 q 928 1008 921 969 q 932 1049 932 1032 q 928 1085 932 1067 q 1032 1103 974 1103 q 1060 1101 1050 1103 m 771 469 q 782 586 782 536 q 733 783 782 708 q 597 858 685 858 q 428 762 500 858 q 324 501 356 665 q 308 349 308 417 q 354 155 308 226 q 489 83 400 83 q 665 188 590 83 q 771 469 739 293 m 722 1028 q 658 1021 694 1021 q 588 1029 617 1021 q 529 1110 568 1063 q 453 1194 490 1157 q 588 1213 528 1213 q 654 1207 625 1213 q 722 1028 681 1106 z "},"Ở":{"ha":1031,"x_min":64,"x_max":1083,"o":"m 1060 1101 q 1083 1022 1083 1067 q 1035 910 1083 957 q 910 853 986 864 q 1026 565 1026 749 q 1015 450 1026 514 q 915 210 990 315 q 726 47 840 106 q 474 -12 613 -12 q 253 36 346 -12 q 113 174 161 85 q 64 379 64 263 q 75 496 64 442 q 178 738 101 635 q 367 896 254 840 q 614 951 479 951 l 663 951 l 663 951 q 825 933 769 933 q 898 951 875 933 q 928 1008 921 969 q 932 1049 932 1032 q 928 1085 932 1067 q 1032 1103 974 1103 q 1060 1101 1050 1103 m 771 469 q 782 586 782 536 q 733 783 782 708 q 597 858 685 858 q 428 762 500 858 q 324 501 356 665 q 308 349 308 417 q 354 155 308 226 q 489 83 400 83 q 665 188 590 83 q 771 469 739 293 m 596 1008 q 590 1035 590 1022 q 606 1083 590 1067 q 650 1114 621 1099 q 680 1133 669 1125 q 696 1153 690 1140 q 699 1165 699 1161 q 690 1181 699 1175 q 665 1188 681 1188 q 590 1108 611 1188 q 501 1125 531 1108 q 521 1217 521 1174 q 600 1242 556 1232 q 689 1251 644 1251 q 788 1231 754 1251 q 822 1175 822 1211 q 818 1149 822 1164 q 788 1099 808 1117 q 738 1067 768 1082 q 706 1048 717 1057 q 690 1026 694 1039 q 689 1001 685 1013 q 657 999 669 999 q 596 1008 617 999 z "},"Ỡ":{"ha":1031,"x_min":64,"x_max":1083,"o":"m 1060 1101 q 1083 1022 1083 1067 q 1035 910 1083 957 q 910 853 986 864 q 1026 565 1026 749 q 1015 450 1026 514 q 915 210 990 315 q 726 47 840 106 q 474 -12 613 -12 q 253 36 346 -12 q 113 174 161 85 q 64 379 64 263 q 75 496 64 442 q 178 738 101 635 q 367 896 254 840 q 614 951 479 951 l 663 951 l 663 951 q 825 933 769 933 q 898 951 875 933 q 928 1008 921 969 q 932 1049 932 1032 q 928 1085 932 1067 q 1032 1103 974 1103 q 1060 1101 1050 1103 m 771 469 q 782 586 782 536 q 733 783 782 708 q 597 858 685 858 q 428 762 500 858 q 324 501 356 665 q 308 349 308 417 q 354 155 308 226 q 489 83 400 83 q 665 188 590 83 q 771 469 739 293 m 719 1025 q 660 1034 683 1025 q 610 1061 638 1043 q 574 1082 589 1075 q 538 1089 558 1089 q 417 1028 483 1089 q 394 1069 401 1050 q 388 1114 388 1089 l 389 1135 q 488 1199 435 1179 q 589 1219 542 1219 q 647 1210 622 1219 q 701 1185 672 1201 q 742 1166 726 1172 q 775 1160 757 1160 q 869 1215 825 1160 q 939 1154 919 1193 q 837 1058 893 1090 q 719 1025 781 1025 z "},"Ő":{"ha":1031,"x_min":64,"x_max":1029,"o":"m 474 -12 q 253 36 346 -12 q 113 174 161 85 q 64 379 64 263 q 75 496 64 442 q 178 738 101 635 q 367 896 254 840 q 614 951 479 951 q 832 905 739 951 q 976 772 925 858 q 1026 565 1026 685 q 1015 450 1026 504 q 915 210 990 315 q 726 47 840 106 q 474 -12 613 -12 m 489 83 q 665 188 590 83 q 771 469 739 293 q 782 586 782 536 q 733 783 782 708 q 597 858 685 858 q 428 762 500 858 q 324 501 356 665 q 308 349 308 417 q 354 155 308 226 q 489 83 400 83 m 563 1021 q 449 1064 500 1028 q 510 1143 481 1096 q 554 1222 539 1190 q 618 1225 575 1225 q 767 1201 715 1225 l 563 1021 m 826 1021 q 713 1064 764 1028 q 774 1143 744 1096 q 818 1222 803 1190 q 882 1225 839 1225 q 1029 1201 978 1225 l 874 1063 l 826 1021 z "},"Ȏ":{"ha":1031,"x_min":64,"x_max":1026,"o":"m 474 -12 q 253 36 346 -12 q 113 174 161 85 q 64 379 64 263 q 75 496 64 442 q 178 738 101 635 q 367 896 254 840 q 614 951 479 951 q 832 905 739 951 q 976 772 925 858 q 1026 565 1026 685 q 1015 450 1026 504 q 915 210 990 315 q 726 47 840 106 q 474 -12 613 -12 m 489 83 q 665 188 590 83 q 771 469 739 293 q 782 586 782 536 q 733 783 782 708 q 597 858 685 858 q 428 762 500 858 q 324 501 356 665 q 308 349 308 417 q 354 155 308 226 q 489 83 400 83 m 696 1217 q 932 1057 932 1217 q 928 1014 932 1038 q 839 999 889 999 q 801 1001 826 999 q 764 1067 801 1044 q 657 1089 726 1089 q 545 1067 589 1089 q 489 1001 501 1044 q 449 997 468 997 q 385 1010 410 997 q 482 1164 403 1111 q 696 1217 561 1217 z "},"Ō":{"ha":1031,"x_min":64,"x_max":1026,"o":"m 474 -12 q 253 36 346 -12 q 113 174 161 85 q 64 379 64 263 q 75 496 64 442 q 178 738 101 635 q 367 896 254 840 q 614 951 479 951 q 832 905 739 951 q 976 772 925 858 q 1026 565 1026 685 q 1015 450 1026 504 q 915 210 990 315 q 726 47 840 106 q 474 -12 613 -12 m 489 83 q 665 188 590 83 q 771 469 739 293 q 782 586 782 536 q 733 783 782 708 q 597 858 685 858 q 428 762 500 858 q 324 501 356 665 q 308 349 308 417 q 354 155 308 226 q 489 83 400 83 m 401 1063 q 414 1146 401 1115 l 913 1146 q 900 1071 913 1111 q 401 1063 615 1071 z "},"Ṓ":{"ha":1031,"x_min":64,"x_max":1026,"o":"m 474 -12 q 253 36 346 -12 q 113 174 161 85 q 64 379 64 263 q 75 496 64 442 q 178 738 101 635 q 367 896 254 840 q 614 951 479 951 q 832 905 739 951 q 976 772 925 858 q 1026 565 1026 685 q 1015 450 1026 504 q 915 210 990 315 q 726 47 840 106 q 474 -12 613 -12 m 489 83 q 665 188 590 83 q 771 469 739 293 q 782 586 782 536 q 733 783 782 708 q 597 858 685 858 q 428 762 500 858 q 324 501 356 665 q 308 349 308 417 q 354 155 308 226 q 489 83 400 83 m 401 1063 q 414 1146 401 1115 l 913 1146 q 900 1071 913 1111 q 401 1063 615 1071 m 686 1222 q 574 1264 624 1229 q 636 1350 606 1300 q 681 1432 667 1400 q 740 1435 719 1435 q 892 1411 838 1435 q 686 1222 774 1307 z "},"Ṑ":{"ha":1031,"x_min":64,"x_max":1026,"o":"m 474 -12 q 253 36 346 -12 q 113 174 161 85 q 64 379 64 263 q 75 496 64 442 q 178 738 101 635 q 367 896 254 840 q 614 951 479 951 q 832 905 739 951 q 976 772 925 858 q 1026 565 1026 685 q 1015 450 1026 504 q 915 210 990 315 q 726 47 840 106 q 474 -12 613 -12 m 489 83 q 665 188 590 83 q 771 469 739 293 q 782 586 782 536 q 733 783 782 708 q 597 858 685 858 q 428 762 500 858 q 324 501 356 665 q 308 349 308 417 q 354 155 308 226 q 489 83 400 83 m 401 1063 q 414 1146 401 1115 l 913 1146 q 900 1071 913 1111 q 401 1063 615 1071 m 763 1235 q 699 1228 735 1228 q 628 1236 657 1228 q 569 1317 608 1269 q 493 1401 531 1364 q 628 1419 568 1419 q 694 1414 665 1419 q 763 1235 721 1313 z "},"Ǫ":{"ha":1031,"x_min":64,"x_max":1026,"o":"m 614 951 q 832 905 739 951 q 976 772 925 858 q 1026 565 1026 685 q 1015 450 1026 504 q 891 178 986 293 q 656 17 796 64 q 567 -51 599 -11 q 535 -131 535 -92 q 554 -178 535 -161 q 607 -196 574 -196 q 649 -186 633 -196 q 674 -224 664 -200 q 688 -269 683 -247 q 561 -344 606 -301 q 529 -347 549 -347 q 381 -314 436 -347 q 326 -212 326 -281 q 442 -11 326 -103 q 239 44 324 -6 q 109 181 154 94 q 64 378 64 267 q 75 496 64 442 q 178 738 101 635 q 367 896 254 840 q 614 951 479 951 m 771 469 q 782 586 782 536 q 733 783 782 708 q 597 858 685 858 q 428 762 500 858 q 324 501 356 665 q 308 349 308 417 q 354 155 308 226 q 489 83 400 83 q 665 188 590 83 q 771 469 739 293 z "},"Ø":{"ha":1031,"x_min":64,"x_max":1026,"o":"m 940 822 q 1026 564 1026 721 q 1015 450 1026 514 q 915 210 990 315 q 726 47 840 106 q 474 -12 613 -12 q 224 54 325 -12 l 165 -12 q 103 2 131 -12 q 65 42 75 17 l 144 126 q 64 379 64 226 q 75 496 64 442 q 178 738 101 635 q 367 896 254 840 q 614 951 479 951 q 863 888 760 951 l 922 951 q 1025 906 999 951 l 940 822 m 324 503 q 308 347 308 426 q 310 301 308 317 l 744 763 q 683 833 721 808 q 597 858 646 858 q 428 762 501 858 q 324 503 356 665 m 771 469 q 782 583 782 533 q 776 657 782 610 q 338 183 574 446 q 489 83 385 83 q 665 188 590 83 q 771 469 739 293 z "},"Ǿ":{"ha":1031,"x_min":64,"x_max":1026,"o":"m 940 822 q 1026 564 1026 721 q 1015 450 1026 514 q 915 210 990 315 q 726 47 840 106 q 474 -12 613 -12 q 224 54 325 -12 l 165 -12 q 103 2 131 -12 q 65 42 75 17 l 144 126 q 64 379 64 226 q 75 496 64 442 q 178 738 101 635 q 367 896 254 840 q 614 951 479 951 q 863 888 760 951 l 922 951 q 1025 906 999 951 l 940 822 m 324 503 q 308 347 308 426 q 310 301 308 317 l 744 763 q 683 833 721 808 q 597 858 646 858 q 428 762 501 858 q 324 503 356 665 m 771 469 q 782 583 782 533 q 776 657 782 610 q 338 183 574 446 q 489 83 385 83 q 665 188 590 83 q 771 469 739 293 m 633 1015 q 521 1057 571 1022 q 583 1143 553 1093 q 628 1225 614 1193 q 688 1228 667 1228 q 839 1204 785 1228 q 633 1015 721 1100 z "},"Õ":{"ha":1031,"x_min":64,"x_max":1026,"o":"m 474 -12 q 253 36 346 -12 q 113 174 161 85 q 64 379 64 263 q 75 496 64 442 q 178 738 101 635 q 367 896 254 840 q 614 951 479 951 q 832 905 739 951 q 976 772 925 858 q 1026 565 1026 685 q 1015 450 1026 504 q 915 210 990 315 q 726 47 840 106 q 474 -12 613 -12 m 489 83 q 665 188 590 83 q 771 469 739 293 q 782 586 782 536 q 733 783 782 708 q 597 858 685 858 q 428 762 500 858 q 324 501 356 665 q 308 349 308 417 q 354 155 308 226 q 489 83 400 83 m 719 1025 q 660 1034 683 1025 q 610 1061 638 1043 q 574 1082 589 1075 q 538 1089 558 1089 q 417 1028 483 1089 q 394 1069 401 1050 q 388 1114 388 1089 l 389 1135 q 488 1199 435 1179 q 589 1219 542 1219 q 647 1210 622 1219 q 701 1185 672 1201 q 742 1166 726 1172 q 775 1160 757 1160 q 869 1215 825 1160 q 939 1154 919 1193 q 837 1058 893 1090 q 719 1025 781 1025 z "},"Ṍ":{"ha":1031,"x_min":64,"x_max":1026,"o":"m 474 -12 q 253 36 346 -12 q 113 174 161 85 q 64 379 64 263 q 75 496 64 442 q 178 738 101 635 q 367 896 254 840 q 614 951 479 951 q 832 905 739 951 q 976 772 925 858 q 1026 565 1026 685 q 1015 450 1026 504 q 915 210 990 315 q 726 47 840 106 q 474 -12 613 -12 m 489 83 q 665 188 590 83 q 771 469 739 293 q 782 586 782 536 q 733 783 782 708 q 597 858 685 858 q 428 762 500 858 q 324 501 356 665 q 308 349 308 417 q 354 155 308 226 q 489 83 400 83 m 719 1025 q 660 1034 683 1025 q 610 1061 638 1043 q 574 1082 589 1075 q 538 1089 558 1089 q 417 1028 483 1089 q 394 1069 401 1050 q 388 1114 388 1089 l 389 1135 q 488 1199 435 1179 q 589 1219 542 1219 q 647 1210 622 1219 q 701 1185 672 1201 q 742 1166 726 1172 q 775 1160 757 1160 q 869 1215 825 1160 q 939 1154 919 1193 q 837 1058 893 1090 q 719 1025 781 1025 m 694 1275 q 582 1317 632 1282 q 644 1403 614 1353 q 689 1485 675 1453 q 749 1488 728 1488 q 900 1464 846 1488 q 694 1275 782 1360 z "},"Ṏ":{"ha":1031,"x_min":64,"x_max":1026,"o":"m 474 -12 q 253 36 346 -12 q 113 174 161 85 q 64 379 64 263 q 75 496 64 442 q 178 738 101 635 q 367 896 254 840 q 614 951 479 951 q 832 905 739 951 q 976 772 925 858 q 1026 565 1026 685 q 1015 450 1026 504 q 915 210 990 315 q 726 47 840 106 q 474 -12 613 -12 m 489 83 q 665 188 590 83 q 771 469 739 293 q 782 586 782 536 q 733 783 782 708 q 597 858 685 858 q 428 762 500 858 q 324 501 356 665 q 308 349 308 417 q 354 155 308 226 q 489 83 400 83 m 719 1025 q 660 1034 683 1025 q 610 1061 638 1043 q 574 1082 589 1075 q 538 1089 558 1089 q 417 1028 483 1089 q 394 1069 401 1050 q 388 1114 388 1089 l 389 1135 q 488 1199 435 1179 q 589 1219 542 1219 q 647 1210 622 1219 q 701 1185 672 1201 q 742 1166 726 1172 q 775 1160 757 1160 q 869 1215 825 1160 q 939 1154 919 1193 q 837 1058 893 1090 q 719 1025 781 1025 m 550 1263 q 469 1292 499 1263 q 439 1371 439 1321 q 546 1478 439 1478 q 627 1451 597 1478 q 657 1375 657 1424 q 630 1292 657 1322 q 550 1263 603 1263 m 864 1263 q 781 1291 811 1263 q 751 1369 751 1319 q 865 1478 751 1478 q 946 1450 917 1478 q 975 1372 975 1422 q 947 1291 975 1319 q 864 1263 919 1263 z "},"Ȭ":{"ha":1031,"x_min":64,"x_max":1026,"o":"m 474 -12 q 253 36 346 -12 q 113 174 161 85 q 64 379 64 263 q 75 496 64 442 q 178 738 101 635 q 367 896 254 840 q 614 951 479 951 q 832 905 739 951 q 976 772 925 858 q 1026 565 1026 685 q 1015 450 1026 504 q 915 210 990 315 q 726 47 840 106 q 474 -12 613 -12 m 489 83 q 665 188 590 83 q 771 469 739 293 q 782 586 782 536 q 733 783 782 708 q 597 858 685 858 q 428 762 500 858 q 324 501 356 665 q 308 349 308 417 q 354 155 308 226 q 489 83 400 83 m 719 1025 q 660 1034 683 1025 q 610 1061 638 1043 q 574 1082 589 1075 q 538 1089 558 1089 q 417 1028 483 1089 q 394 1069 401 1050 q 388 1114 388 1089 l 389 1135 q 488 1199 435 1179 q 589 1219 542 1219 q 647 1210 622 1219 q 701 1185 672 1201 q 742 1166 726 1172 q 775 1160 757 1160 q 869 1215 825 1160 q 939 1154 919 1193 q 837 1058 893 1090 q 719 1025 781 1025 m 451 1322 q 464 1406 451 1375 l 963 1406 q 950 1331 963 1371 q 451 1322 665 1331 z "},"Œ":{"ha":1408,"x_min":64,"x_max":1435,"o":"m 1303 682 q 1287 774 1300 740 q 1236 827 1274 808 q 1128 846 1199 846 l 906 846 q 1001 579 1001 747 q 999 524 1001 563 l 1014 524 q 1111 543 1083 524 q 1147 622 1139 563 q 1221 629 1186 629 q 1258 628 1246 629 q 1226 456 1239 553 q 1211 301 1213 361 q 1106 321 1150 304 q 1087 403 1108 375 q 1003 431 1065 431 l 985 431 q 913 238 963 325 q 790 93 864 151 l 1046 93 q 1178 137 1131 93 q 1263 286 1225 181 q 1326 270 1300 281 q 1374 240 1353 260 q 1315 -4 1328 88 q 963 0 1232 0 q 747 -6 886 0 q 471 -12 553 -12 q 250 38 342 -12 q 111 176 158 88 q 64 381 64 265 q 75 494 64 432 q 178 739 103 636 q 366 897 254 842 q 611 951 478 951 l 614 951 l 615 951 l 619 951 q 707 950 660 951 q 779 947 754 949 q 1110 939 926 939 q 1435 943 1301 939 q 1419 761 1419 856 q 1422 697 1419 739 q 1303 682 1365 682 m 324 501 q 308 350 308 418 q 353 156 308 228 q 483 83 397 83 q 656 188 585 83 q 757 469 728 293 q 768 601 768 544 q 724 790 768 721 q 597 858 681 858 q 426 763 497 858 q 324 501 356 667 z "},"P":{"ha":888,"x_min":22,"x_max":928,"o":"m 660 943 q 859 878 790 943 q 928 692 928 813 q 919 604 928 650 q 792 392 896 472 q 529 311 688 311 q 456 325 482 311 q 460 371 454 343 q 472 415 465 399 q 507 410 486 410 q 621 462 569 410 q 689 607 672 514 q 696 685 696 642 q 661 804 696 761 q 557 847 626 847 q 492 836 521 847 l 390 244 q 382 175 382 189 q 406 119 382 136 q 500 92 431 101 q 506 33 506 68 q 504 -4 506 8 q 271 0 429 0 q 22 -4 96 0 q 44 93 28 56 q 101 109 83 97 q 131 151 119 121 q 153 250 142 182 l 233 715 q 240 776 240 757 q 223 825 240 810 q 160 847 206 840 q 154 903 154 881 q 157 943 154 915 q 386 939 233 939 l 497 940 q 660 943 594 943 z "},"Þ":{"ha":904,"x_min":21,"x_max":901,"o":"m 606 756 q 832 697 763 756 q 901 543 901 639 q 896 483 901 510 q 774 283 872 357 q 528 208 675 208 q 436 226 465 208 q 453 313 433 272 q 492 307 468 307 q 600 353 553 307 q 664 479 647 399 q 669 532 669 506 q 635 626 669 593 q 535 660 601 660 q 460 647 497 660 l 388 231 q 382 176 382 203 q 408 118 382 138 q 500 92 433 99 q 504 32 504 63 q 503 -4 504 8 q 258 0 418 0 q 21 -4 117 0 q 43 92 25 44 q 99 108 81 97 q 127 145 117 119 q 147 228 138 171 l 231 713 q 239 781 239 768 q 222 826 239 810 q 158 847 204 842 q 154 901 154 872 q 157 943 154 915 q 374 939 221 939 q 594 943 519 939 q 576 847 594 893 q 510 824 529 840 q 479 754 492 807 l 606 756 z "},"Q":{"ha":1031,"x_min":64,"x_max":1039,"o":"m 996 -124 q 1024 -160 1011 -137 q 1039 -204 1036 -183 q 940 -277 997 -250 q 817 -304 883 -304 q 696 -270 743 -304 q 619 -160 649 -236 q 555 -57 593 -92 q 454 -12 517 -22 q 245 42 333 -8 q 110 179 157 92 q 64 381 64 267 q 75 496 64 442 q 178 738 101 635 q 367 896 254 840 q 614 951 479 951 q 832 905 739 951 q 976 772 925 858 q 1026 565 1026 685 q 1015 450 1026 504 q 890 178 985 293 q 653 15 794 63 q 742 -22 700 4 q 849 -107 783 -49 q 896 -142 878 -133 q 936 -150 914 -150 q 996 -124 969 -147 m 324 501 q 308 349 308 417 q 354 155 308 226 q 489 83 400 83 q 665 188 590 83 q 771 469 739 293 q 782 586 782 536 q 733 783 782 708 q 597 858 685 858 q 428 762 500 858 q 324 501 356 665 z "},"R":{"ha":1008,"x_min":21,"x_max":958,"o":"m 914 168 q 942 131 929 154 q 958 88 954 108 q 853 13 914 39 q 726 -12 793 -12 q 610 32 651 -12 q 532 188 568 76 q 490 299 510 257 q 443 376 469 340 l 413 376 l 386 226 q 378 153 378 179 q 390 110 378 124 q 435 92 403 97 q 440 35 440 53 q 438 -4 440 21 q 243 0 361 0 q 21 -4 113 0 q 43 92 25 50 q 99 108 81 96 q 129 151 118 121 q 151 250 140 182 l 231 715 q 238 779 238 760 q 221 826 238 811 q 158 847 204 842 q 154 897 154 871 q 157 943 154 913 q 383 939 225 939 q 482 942 404 939 q 644 944 582 944 q 870 881 792 944 q 949 714 949 818 q 944 664 949 689 q 851 495 926 564 q 663 403 775 426 q 725 335 697 376 q 782 225 753 293 q 816 165 799 182 q 857 149 833 149 q 914 168 890 149 m 690 676 q 696 726 696 700 q 663 818 696 788 q 572 849 631 849 q 492 835 529 849 l 431 485 q 468 483 446 483 q 613 536 551 483 q 690 676 674 589 z "},"Ŕ":{"ha":1008,"x_min":21,"x_max":958,"o":"m 914 168 q 942 131 929 154 q 958 88 954 108 q 853 13 914 39 q 726 -12 793 -12 q 610 32 651 -12 q 532 188 568 76 q 490 299 510 257 q 443 376 469 340 l 413 376 l 386 226 q 378 153 378 179 q 390 110 378 124 q 435 92 403 97 q 440 35 440 53 q 438 -4 440 21 q 243 0 361 0 q 21 -4 113 0 q 43 92 25 50 q 99 108 81 96 q 129 151 118 121 q 151 250 140 182 l 231 715 q 238 779 238 760 q 221 826 238 811 q 158 847 204 842 q 154 897 154 871 q 157 943 154 913 q 383 939 225 939 q 482 942 404 939 q 644 944 582 944 q 870 881 792 944 q 949 714 949 818 q 944 664 949 689 q 851 495 926 564 q 663 403 775 426 q 725 335 697 376 q 782 225 753 293 q 816 165 799 182 q 857 149 833 149 q 914 168 890 149 m 690 676 q 696 726 696 700 q 663 818 696 788 q 572 849 631 849 q 492 835 529 849 l 431 485 q 468 483 446 483 q 613 536 551 483 q 690 676 674 589 m 588 1015 q 475 1057 525 1022 q 538 1143 507 1093 q 582 1225 568 1193 q 642 1228 621 1228 q 793 1204 739 1228 q 588 1015 675 1100 z "},"Ř":{"ha":1008,"x_min":21,"x_max":958,"o":"m 914 168 q 942 131 929 154 q 958 88 954 108 q 853 13 914 39 q 726 -12 793 -12 q 610 32 651 -12 q 532 188 568 76 q 490 299 510 257 q 443 376 469 340 l 413 376 l 386 226 q 378 153 378 179 q 390 110 378 124 q 435 92 403 97 q 440 35 440 53 q 438 -4 440 21 q 243 0 361 0 q 21 -4 113 0 q 43 92 25 50 q 99 108 81 96 q 129 151 118 121 q 151 250 140 182 l 231 715 q 238 779 238 760 q 221 826 238 811 q 158 847 204 842 q 154 897 154 871 q 157 943 154 913 q 383 939 225 939 q 482 942 404 939 q 644 944 582 944 q 870 881 792 944 q 949 714 949 818 q 944 664 949 689 q 851 495 926 564 q 663 403 775 426 q 725 335 697 376 q 782 225 753 293 q 816 165 799 182 q 857 149 833 149 q 914 168 890 149 m 690 676 q 696 726 696 700 q 663 818 696 788 q 572 849 631 849 q 492 835 529 849 l 431 485 q 468 483 446 483 q 613 536 551 483 q 690 676 674 589 m 525 1011 q 342 1168 454 1088 q 431 1239 364 1233 q 606 1160 504 1194 q 797 1242 685 1178 q 838 1215 819 1235 q 865 1169 856 1194 q 631 1025 728 1092 q 554 1008 593 1008 q 525 1011 544 1008 z "},"Ŗ":{"ha":1008,"x_min":21,"x_max":958,"o":"m 914 168 q 942 131 929 154 q 958 88 954 108 q 853 13 914 39 q 726 -12 793 -12 q 610 32 651 -12 q 532 188 568 76 q 490 299 510 257 q 443 376 469 340 l 413 376 l 386 226 q 378 153 378 179 q 390 110 378 124 q 435 92 403 97 q 440 35 440 53 q 438 -4 440 21 q 243 0 361 0 q 21 -4 113 0 q 43 92 25 50 q 99 108 81 96 q 129 151 118 121 q 151 250 140 182 l 231 715 q 238 779 238 760 q 221 826 238 811 q 158 847 204 842 q 154 897 154 871 q 157 943 154 913 q 383 939 225 939 q 482 942 404 939 q 644 944 582 944 q 870 881 792 944 q 949 714 949 818 q 944 664 949 689 q 851 495 926 564 q 663 403 775 426 q 725 335 697 376 q 782 225 753 293 q 816 165 799 182 q 857 149 833 149 q 914 168 890 149 m 690 676 q 696 726 696 700 q 663 818 696 788 q 572 849 631 849 q 492 835 529 849 l 431 485 q 468 483 446 483 q 613 536 551 483 q 690 676 674 589 m 396 -428 q 329 -382 349 -421 q 390 -322 367 -354 q 414 -264 414 -290 q 396 -233 414 -244 q 340 -217 378 -222 q 379 -96 343 -144 q 544 -54 481 -92 q 585 -81 572 -62 q 597 -129 597 -99 q 594 -165 597 -151 q 396 -428 569 -317 z "},"Ȑ":{"ha":1008,"x_min":21,"x_max":958,"o":"m 914 168 q 942 131 929 154 q 958 88 954 108 q 853 13 914 39 q 726 -12 793 -12 q 610 32 651 -12 q 532 188 568 76 q 490 299 510 257 q 443 376 469 340 l 413 376 l 386 226 q 378 153 378 179 q 390 110 378 124 q 435 92 403 97 q 440 35 440 53 q 438 -4 440 21 q 243 0 361 0 q 21 -4 113 0 q 43 92 25 50 q 99 108 81 96 q 129 151 118 121 q 151 250 140 182 l 231 715 q 238 779 238 760 q 221 826 238 811 q 158 847 204 842 q 154 897 154 871 q 157 943 154 913 q 383 939 225 939 q 482 942 404 939 q 644 944 582 944 q 870 881 792 944 q 949 714 949 818 q 944 664 949 689 q 851 495 926 564 q 663 403 775 426 q 725 335 697 376 q 782 225 753 293 q 816 165 799 182 q 857 149 833 149 q 914 168 890 149 m 690 676 q 696 726 696 700 q 663 818 696 788 q 572 849 631 849 q 492 835 529 849 l 431 485 q 468 483 446 483 q 613 536 551 483 q 690 676 674 589 m 671 1051 q 586 1181 618 1138 q 685 1193 626 1193 q 754 1188 725 1193 q 817 1004 779 1081 q 756 1000 788 1000 q 701 1004 731 1000 l 671 1051 m 440 1004 q 314 1176 363 1115 q 428 1193 361 1193 q 493 1188 451 1193 q 557 1004 524 1074 q 496 1000 528 1000 q 440 1004 471 1000 z "},"Ṛ":{"ha":1008,"x_min":21,"x_max":958,"o":"m 914 168 q 942 131 929 154 q 958 88 954 108 q 853 13 914 39 q 726 -12 793 -12 q 610 32 651 -12 q 532 188 568 76 q 490 299 510 257 q 443 376 469 340 l 413 376 l 386 226 q 378 153 378 179 q 390 110 378 124 q 435 92 403 97 q 440 35 440 53 q 438 -4 440 21 q 243 0 361 0 q 21 -4 113 0 q 43 92 25 50 q 99 108 81 96 q 129 151 118 121 q 151 250 140 182 l 231 715 q 238 779 238 760 q 221 826 238 811 q 158 847 204 842 q 154 897 154 871 q 157 943 154 913 q 383 939 225 939 q 482 942 404 939 q 644 944 582 944 q 870 881 792 944 q 949 714 949 818 q 944 664 949 689 q 851 495 926 564 q 663 403 775 426 q 725 335 697 376 q 782 225 753 293 q 816 165 799 182 q 857 149 833 149 q 914 168 890 149 m 690 676 q 696 726 696 700 q 663 818 696 788 q 572 849 631 849 q 492 835 529 849 l 431 485 q 468 483 446 483 q 613 536 551 483 q 690 676 674 589 m 444 -331 q 358 -305 389 -331 q 328 -236 328 -279 q 331 -211 328 -228 q 379 -131 340 -158 q 474 -103 418 -103 q 559 -129 529 -103 q 589 -201 589 -156 q 588 -224 589 -215 q 540 -303 578 -276 q 444 -331 501 -331 z "},"Ȓ":{"ha":1008,"x_min":21,"x_max":958,"o":"m 914 168 q 942 131 929 154 q 958 88 954 108 q 853 13 914 39 q 726 -12 793 -12 q 610 32 651 -12 q 532 188 568 76 q 490 299 510 257 q 443 376 469 340 l 413 376 l 386 226 q 378 153 378 179 q 390 110 378 124 q 435 92 403 97 q 440 35 440 53 q 438 -4 440 21 q 243 0 361 0 q 21 -4 113 0 q 43 92 25 50 q 99 108 81 96 q 129 151 118 121 q 151 250 140 182 l 231 715 q 238 779 238 760 q 221 826 238 811 q 158 847 204 842 q 154 897 154 871 q 157 943 154 913 q 383 939 225 939 q 482 942 404 939 q 644 944 582 944 q 870 881 792 944 q 949 714 949 818 q 944 664 949 689 q 851 495 926 564 q 663 403 775 426 q 725 335 697 376 q 782 225 753 293 q 816 165 799 182 q 857 149 833 149 q 914 168 890 149 m 690 676 q 696 726 696 700 q 663 818 696 788 q 572 849 631 849 q 492 835 529 849 l 431 485 q 468 483 446 483 q 613 536 551 483 q 690 676 674 589 m 638 1217 q 874 1057 874 1217 q 869 1014 874 1038 q 781 999 831 999 q 743 1001 768 999 q 706 1067 743 1044 q 599 1089 668 1089 q 487 1067 531 1089 q 431 1001 443 1044 q 390 997 410 997 q 326 1010 351 997 q 424 1164 344 1111 q 638 1217 503 1217 z "},"Ṟ":{"ha":1008,"x_min":21,"x_max":958,"o":"m 914 168 q 942 131 929 154 q 958 88 954 108 q 853 13 914 39 q 726 -12 793 -12 q 610 32 651 -12 q 532 188 568 76 q 490 299 510 257 q 443 376 469 340 l 413 376 l 386 226 q 378 153 378 179 q 390 110 378 124 q 435 92 403 97 q 440 35 440 53 q 438 -4 440 21 q 243 0 361 0 q 21 -4 113 0 q 43 92 25 50 q 99 108 81 96 q 129 151 118 121 q 151 250 140 182 l 231 715 q 238 779 238 760 q 221 826 238 811 q 158 847 204 842 q 154 897 154 871 q 157 943 154 913 q 383 939 225 939 q 482 942 404 939 q 644 944 582 944 q 870 881 792 944 q 949 714 949 818 q 944 664 949 689 q 851 495 926 564 q 663 403 775 426 q 725 335 697 376 q 782 225 753 293 q 816 165 799 182 q 857 149 833 149 q 914 168 890 149 m 690 676 q 696 726 696 700 q 663 818 696 788 q 572 849 631 849 q 492 835 529 849 l 431 485 q 468 483 446 483 q 613 536 551 483 q 690 676 674 589 m 206 -250 q 218 -167 206 -197 l 717 -167 q 704 -242 717 -204 q 206 -250 419 -242 z "},"S":{"ha":714,"x_min":-7,"x_max":706,"o":"m 294 -12 q 125 10 189 -12 q -7 86 61 32 q 43 297 31 186 q 118 306 78 306 q 185 299 150 306 q 182 253 182 265 q 217 129 182 169 q 324 89 251 89 q 415 122 376 89 q 454 206 454 156 q 422 281 454 250 q 321 357 390 311 q 213 435 254 400 q 141 524 171 469 q 111 654 111 579 q 118 728 111 683 q 231 892 138 833 q 461 951 325 951 q 606 933 542 951 q 706 885 669 914 q 690 678 689 758 q 594 664 647 664 q 556 665 568 664 q 519 806 554 760 q 418 853 483 853 q 334 826 365 853 q 303 749 303 800 q 340 660 303 697 q 458 574 378 624 q 569 497 526 531 q 641 414 611 464 q 671 297 671 364 q 667 243 671 272 q 602 108 654 167 q 469 19 550 50 q 294 -12 389 -12 z "},"Ś":{"ha":714,"x_min":-7,"x_max":706,"o":"m 294 -12 q 125 10 189 -12 q -7 86 61 32 q 43 297 31 186 q 118 306 78 306 q 185 299 150 306 q 182 253 182 265 q 217 129 182 169 q 324 89 251 89 q 415 122 376 89 q 454 206 454 156 q 422 281 454 250 q 321 357 390 311 q 213 435 254 400 q 141 524 171 469 q 111 654 111 579 q 118 728 111 683 q 231 892 138 833 q 461 951 325 951 q 606 933 542 951 q 706 885 669 914 q 690 678 689 758 q 594 664 647 664 q 556 665 568 664 q 519 806 554 760 q 418 853 483 853 q 334 826 365 853 q 303 749 303 800 q 340 660 303 697 q 458 574 378 624 q 569 497 526 531 q 641 414 611 464 q 671 297 671 364 q 667 243 671 272 q 602 108 654 167 q 469 19 550 50 q 294 -12 389 -12 m 474 1015 q 361 1057 411 1022 q 424 1143 393 1093 q 468 1225 454 1193 q 528 1228 507 1228 q 679 1204 625 1228 q 474 1015 561 1100 z "},"Ṥ":{"ha":714,"x_min":-7,"x_max":706,"o":"m 294 -12 q 125 10 189 -12 q -7 86 61 32 q 43 297 31 186 q 118 306 78 306 q 185 299 150 306 q 182 253 182 265 q 217 129 182 169 q 324 89 251 89 q 415 122 376 89 q 454 206 454 156 q 422 281 454 250 q 321 357 390 311 q 213 435 254 400 q 141 524 171 469 q 111 654 111 579 q 118 728 111 683 q 231 892 138 833 q 461 951 325 951 q 606 933 542 951 q 706 885 669 914 q 690 678 689 758 q 594 664 647 664 q 556 665 568 664 q 519 806 554 760 q 418 853 483 853 q 334 826 365 853 q 303 749 303 800 q 340 660 303 697 q 458 574 378 624 q 569 497 526 531 q 641 414 611 464 q 671 297 671 364 q 667 243 671 272 q 602 108 654 167 q 469 19 550 50 q 294 -12 389 -12 m 474 1015 q 361 1057 411 1022 q 424 1143 393 1093 q 468 1225 454 1193 q 528 1228 507 1228 q 679 1204 625 1228 q 474 1015 561 1100 m 519 1285 q 439 1311 469 1285 q 408 1383 408 1338 q 448 1469 408 1439 q 558 1499 488 1499 q 639 1472 608 1499 q 669 1399 669 1444 q 668 1382 669 1388 q 624 1309 661 1333 q 519 1285 588 1285 z "},"Š":{"ha":714,"x_min":-7,"x_max":750,"o":"m 294 -12 q 125 10 189 -12 q -7 86 61 32 q 43 297 31 186 q 118 306 78 306 q 185 299 150 306 q 182 253 182 265 q 217 129 182 169 q 324 89 251 89 q 415 122 376 89 q 454 206 454 156 q 422 281 454 250 q 321 357 390 311 q 213 435 254 400 q 141 524 171 469 q 111 654 111 579 q 118 728 111 683 q 231 892 138 833 q 461 951 325 951 q 606 933 542 951 q 706 885 669 914 q 690 678 689 758 q 594 664 647 664 q 556 665 568 664 q 519 806 554 760 q 418 853 483 853 q 334 826 365 853 q 303 749 303 800 q 340 660 303 697 q 458 574 378 624 q 569 497 526 531 q 641 414 611 464 q 671 297 671 364 q 667 243 671 272 q 602 108 654 167 q 469 19 550 50 q 294 -12 389 -12 m 410 1011 q 226 1168 339 1088 q 315 1239 249 1233 q 490 1160 389 1194 q 682 1242 569 1178 q 722 1215 704 1235 q 750 1169 740 1194 q 515 1025 613 1092 q 439 1008 478 1008 q 410 1011 429 1008 z "},"Ṧ":{"ha":714,"x_min":-7,"x_max":750,"o":"m 294 -12 q 125 10 189 -12 q -7 86 61 32 q 43 297 31 186 q 118 306 78 306 q 185 299 150 306 q 182 253 182 265 q 217 129 182 169 q 324 89 251 89 q 415 122 376 89 q 454 206 454 156 q 422 281 454 250 q 321 357 390 311 q 213 435 254 400 q 141 524 171 469 q 111 654 111 579 q 118 728 111 683 q 231 892 138 833 q 461 951 325 951 q 606 933 542 951 q 706 885 669 914 q 690 678 689 758 q 594 664 647 664 q 556 665 568 664 q 519 806 554 760 q 418 853 483 853 q 334 826 365 853 q 303 749 303 800 q 340 660 303 697 q 458 574 378 624 q 569 497 526 531 q 641 414 611 464 q 671 297 671 364 q 667 243 671 272 q 602 108 654 167 q 469 19 550 50 q 294 -12 389 -12 m 410 1011 q 226 1168 339 1088 q 315 1239 249 1233 q 490 1160 389 1194 q 682 1242 569 1178 q 722 1215 704 1235 q 750 1169 740 1194 q 515 1025 613 1092 q 439 1008 478 1008 q 410 1011 429 1008 m 524 1300 q 443 1326 474 1300 q 413 1399 413 1353 q 452 1484 413 1454 q 563 1514 492 1514 q 643 1487 613 1514 q 674 1414 674 1460 q 672 1397 674 1403 q 628 1324 665 1349 q 524 1300 592 1300 z "},"Ş":{"ha":714,"x_min":-7,"x_max":706,"o":"m 418 853 q 334 826 365 853 q 303 749 303 800 q 340 660 303 697 q 458 574 378 624 q 569 497 526 531 q 641 414 611 464 q 671 297 671 364 q 667 243 671 272 q 565 74 649 142 q 361 -8 482 7 l 307 -67 q 389 -174 389 -90 q 386 -208 389 -196 q 309 -306 375 -272 q 133 -336 243 -339 q 129 -308 129 -324 q 133 -272 129 -289 q 217 -258 182 -274 q 256 -217 251 -243 q 257 -201 257 -211 q 237 -163 257 -176 q 183 -150 217 -150 q 169 -103 169 -126 q 171 -87 169 -93 l 244 -11 q 108 17 163 -6 q -7 86 54 39 q 43 297 31 186 q 118 306 78 306 q 185 299 150 306 q 182 253 182 265 q 217 129 182 169 q 324 89 251 89 q 415 122 376 89 q 454 206 454 156 q 422 281 454 250 q 321 357 390 311 q 213 435 254 400 q 141 524 171 469 q 111 654 111 579 q 118 728 111 683 q 231 892 138 833 q 461 951 325 951 q 606 933 542 951 q 706 885 669 914 q 690 678 689 758 q 594 664 647 664 q 556 665 568 664 q 519 806 554 760 q 418 853 483 853 z "},"Ŝ":{"ha":714,"x_min":-7,"x_max":754,"o":"m 294 -12 q 125 10 189 -12 q -7 86 61 32 q 43 297 31 186 q 118 306 78 306 q 185 299 150 306 q 182 253 182 265 q 217 129 182 169 q 324 89 251 89 q 415 122 376 89 q 454 206 454 156 q 422 281 454 250 q 321 357 390 311 q 213 435 254 400 q 141 524 171 469 q 111 654 111 579 q 118 728 111 683 q 231 892 138 833 q 461 951 325 951 q 606 933 542 951 q 706 885 669 914 q 690 678 689 758 q 594 664 647 664 q 556 665 568 664 q 519 806 554 760 q 418 853 483 853 q 334 826 365 853 q 303 749 303 800 q 340 660 303 697 q 458 574 378 624 q 569 497 526 531 q 641 414 611 464 q 671 297 671 364 q 667 243 671 272 q 602 108 654 167 q 469 19 550 50 q 294 -12 389 -12 m 290 1003 q 246 1037 264 1013 q 222 1085 228 1061 q 345 1153 279 1111 q 467 1236 411 1194 q 500 1239 489 1239 q 569 1228 536 1239 q 754 1050 635 1158 q 712 1026 739 1035 q 653 1015 685 1017 q 483 1097 557 1074 q 357 1036 429 1076 l 290 1003 z "},"Ș":{"ha":714,"x_min":-7,"x_max":706,"o":"m 294 -12 q 125 10 189 -12 q -7 86 61 32 q 43 297 31 186 q 118 306 78 306 q 185 299 150 306 q 182 253 182 265 q 217 129 182 169 q 324 89 251 89 q 415 122 376 89 q 454 206 454 156 q 422 281 454 250 q 321 357 390 311 q 213 435 254 400 q 141 524 171 469 q 111 654 111 579 q 118 728 111 683 q 231 892 138 833 q 461 951 325 951 q 606 933 542 951 q 706 885 669 914 q 690 678 689 758 q 594 664 647 664 q 556 665 568 664 q 519 806 554 760 q 418 853 483 853 q 334 826 365 853 q 303 749 303 800 q 340 660 303 697 q 458 574 378 624 q 569 497 526 531 q 641 414 611 464 q 671 297 671 364 q 667 243 671 272 q 602 108 654 167 q 469 19 550 50 q 294 -12 389 -12 m 196 -428 q 129 -382 149 -421 q 190 -322 167 -354 q 214 -264 214 -290 q 196 -233 214 -244 q 140 -217 178 -222 q 179 -96 143 -144 q 344 -54 281 -92 q 385 -81 372 -62 q 397 -129 397 -99 q 394 -165 397 -151 q 196 -428 369 -317 z "},"Ṡ":{"ha":714,"x_min":-7,"x_max":706,"o":"m 294 -12 q 125 10 189 -12 q -7 86 61 32 q 43 297 31 186 q 118 306 78 306 q 185 299 150 306 q 182 253 182 265 q 217 129 182 169 q 324 89 251 89 q 415 122 376 89 q 454 206 454 156 q 422 281 454 250 q 321 357 390 311 q 213 435 254 400 q 141 524 171 469 q 111 654 111 579 q 118 728 111 683 q 231 892 138 833 q 461 951 325 951 q 606 933 542 951 q 706 885 669 914 q 690 678 689 758 q 594 664 647 664 q 556 665 568 664 q 519 806 554 760 q 418 853 483 853 q 334 826 365 853 q 303 749 303 800 q 340 660 303 697 q 458 574 378 624 q 569 497 526 531 q 641 414 611 464 q 671 297 671 364 q 667 243 671 272 q 602 108 654 167 q 469 19 550 50 q 294 -12 389 -12 m 464 996 q 383 1022 414 996 q 353 1094 353 1049 q 392 1180 353 1150 q 503 1210 432 1210 q 583 1183 553 1210 q 614 1110 614 1156 q 613 1093 614 1099 q 569 1020 606 1044 q 464 996 532 996 z "},"Ṣ":{"ha":714,"x_min":-7,"x_max":706,"o":"m 294 -12 q 125 10 189 -12 q -7 86 61 32 q 43 297 31 186 q 118 306 78 306 q 185 299 150 306 q 182 253 182 265 q 217 129 182 169 q 324 89 251 89 q 415 122 376 89 q 454 206 454 156 q 422 281 454 250 q 321 357 390 311 q 213 435 254 400 q 141 524 171 469 q 111 654 111 579 q 118 728 111 683 q 231 892 138 833 q 461 951 325 951 q 606 933 542 951 q 706 885 669 914 q 690 678 689 758 q 594 664 647 664 q 556 665 568 664 q 519 806 554 760 q 418 853 483 853 q 334 826 365 853 q 303 749 303 800 q 340 660 303 697 q 458 574 378 624 q 569 497 526 531 q 641 414 611 464 q 671 297 671 364 q 667 243 671 272 q 602 108 654 167 q 469 19 550 50 q 294 -12 389 -12 m 244 -331 q 158 -305 189 -331 q 128 -236 128 -279 q 131 -211 128 -228 q 179 -131 140 -158 q 274 -103 218 -103 q 359 -129 329 -103 q 389 -201 389 -156 q 388 -224 389 -215 q 340 -303 378 -276 q 244 -331 301 -331 z "},"Ṩ":{"ha":714,"x_min":-7,"x_max":706,"o":"m 294 -12 q 125 10 189 -12 q -7 86 61 32 q 43 297 31 186 q 118 306 78 306 q 185 299 150 306 q 182 253 182 265 q 217 129 182 169 q 324 89 251 89 q 415 122 376 89 q 454 206 454 156 q 422 281 454 250 q 321 357 390 311 q 213 435 254 400 q 141 524 171 469 q 111 654 111 579 q 118 728 111 683 q 231 892 138 833 q 461 951 325 951 q 606 933 542 951 q 706 885 669 914 q 690 678 689 758 q 594 664 647 664 q 556 665 568 664 q 519 806 554 760 q 418 853 483 853 q 334 826 365 853 q 303 749 303 800 q 340 660 303 697 q 458 574 378 624 q 569 497 526 531 q 641 414 611 464 q 671 297 671 364 q 667 243 671 272 q 602 108 654 167 q 469 19 550 50 q 294 -12 389 -12 m 244 -331 q 158 -305 189 -331 q 128 -236 128 -279 q 131 -211 128 -228 q 179 -131 140 -158 q 274 -103 218 -103 q 359 -129 329 -103 q 389 -201 389 -156 q 388 -224 389 -215 q 340 -303 378 -276 q 244 -331 301 -331 m 464 996 q 383 1022 414 996 q 353 1094 353 1049 q 392 1180 353 1150 q 503 1210 432 1210 q 583 1183 553 1210 q 614 1110 614 1156 q 613 1093 614 1099 q 569 1020 606 1044 q 464 996 532 996 z "},"ẞ":{"ha":986,"x_min":-36,"x_max":981,"o":"m 956 943 q 974 897 967 926 q 979 839 981 867 q 754 549 876 685 q 899 470 849 528 q 949 321 949 413 q 942 251 949 293 q 828 56 919 125 q 581 -12 738 -12 q 455 7 507 -12 q 363 64 403 26 q 388 160 376 107 q 401 256 399 214 q 471 267 435 267 q 528 260 496 267 q 524 192 524 221 q 538 114 524 136 q 585 92 553 92 q 651 127 624 92 q 690 222 679 163 q 696 282 696 251 q 504 475 696 449 q 483 576 479 515 q 710 849 586 676 q 592 851 624 851 q 465 790 513 851 q 390 575 417 729 l 294 0 q -36 -4 85 0 q -14 92 -32 50 q 42 108 24 97 q 70 145 60 119 q 90 228 81 171 l 153 588 q 299 865 188 788 q 601 943 411 943 q 714 940 642 943 l 807 939 q 956 943 904 939 z "},"Ə":{"ha":936,"x_min":56,"x_max":940,"o":"m 517 951 q 838 855 736 951 q 940 597 940 758 q 926 472 940 544 q 821 217 897 326 q 632 49 744 108 q 385 -10 519 -10 q 134 82 213 -10 q 56 329 56 174 q 65 444 56 376 q 115 508 79 479 l 683 501 q 694 624 694 571 q 647 796 694 735 q 489 857 599 857 q 351 809 397 857 q 275 653 306 761 q 210 667 242 656 q 163 697 179 678 q 196 900 194 817 q 349 938 261 925 q 517 951 436 951 m 404 85 q 555 161 486 85 q 665 408 624 238 q 294 392 460 408 q 276 251 276 306 q 308 128 276 171 q 404 85 340 85 z "},"T":{"ha":856,"x_min":86,"x_max":922,"o":"m 922 943 q 911 769 911 843 q 915 685 911 726 q 794 671 863 667 q 760 808 788 768 q 661 847 732 847 l 647 847 l 542 236 q 535 172 535 194 q 558 119 535 136 q 649 92 582 101 q 654 33 654 68 q 653 -4 654 8 q 404 0 593 0 q 129 -4 197 0 q 150 92 131 46 q 240 115 213 100 q 281 157 268 129 q 304 250 293 185 l 407 847 l 400 847 q 281 805 326 847 q 201 669 236 763 q 136 675 164 669 q 86 696 108 681 q 122 813 106 742 q 144 943 138 883 q 531 939 249 939 q 922 943 797 939 z "},"Ŧ":{"ha":856,"x_min":86,"x_max":922,"o":"m 922 943 q 911 769 911 843 q 915 685 911 726 q 794 671 863 667 q 760 808 788 768 q 661 847 732 847 l 647 847 l 593 531 l 756 531 q 738 421 756 465 q 574 422 686 422 l 542 236 q 535 174 535 194 q 558 118 535 135 q 649 92 582 101 q 654 33 654 68 q 653 -4 654 8 q 404 0 593 0 q 129 -4 197 0 q 150 92 131 46 q 241 115 213 100 q 281 158 269 131 q 304 250 293 186 l 333 421 q 183 418 283 421 q 200 531 183 485 l 353 531 l 407 847 l 400 847 q 281 805 326 847 q 201 669 236 763 q 136 675 164 669 q 86 696 108 681 q 122 813 106 742 q 144 943 138 883 q 531 939 249 939 q 922 943 797 939 z "},"Ť":{"ha":856,"x_min":86,"x_max":922,"o":"m 922 943 q 911 769 911 843 q 915 685 911 726 q 794 671 863 667 q 760 808 788 768 q 661 847 732 847 l 647 847 l 542 236 q 535 172 535 194 q 558 119 535 136 q 649 92 582 101 q 654 33 654 68 q 653 -4 654 8 q 404 0 593 0 q 129 -4 197 0 q 150 92 131 46 q 240 115 213 100 q 281 157 268 129 q 304 250 293 185 l 407 847 l 400 847 q 281 805 326 847 q 201 669 236 763 q 136 675 164 669 q 86 696 108 681 q 122 813 106 742 q 144 943 138 883 q 531 939 249 939 q 922 943 797 939 m 485 1011 q 301 1168 414 1088 q 390 1239 324 1233 q 565 1160 464 1194 q 757 1242 644 1178 q 797 1215 779 1235 q 825 1169 815 1194 q 590 1025 688 1092 q 514 1008 553 1008 q 485 1011 504 1008 z "},"Ţ":{"ha":856,"x_min":86,"x_max":922,"o":"m 922 943 q 911 769 911 843 q 915 685 911 726 q 794 671 863 667 q 760 808 788 768 q 661 847 732 847 l 647 847 l 542 236 q 535 172 535 194 q 558 119 535 136 q 649 92 582 101 q 654 33 654 68 q 653 -4 654 8 q 465 0 582 0 l 404 -67 q 486 -174 486 -90 q 483 -208 486 -196 q 406 -306 472 -272 q 231 -336 340 -339 q 226 -308 226 -324 q 231 -272 226 -289 q 314 -258 279 -274 q 353 -217 349 -243 q 354 -201 354 -211 q 334 -163 354 -176 q 281 -150 314 -150 q 267 -103 267 -126 q 268 -87 267 -93 l 353 0 q 129 -4 186 0 q 150 92 131 46 q 240 115 213 100 q 281 157 268 129 q 304 250 293 185 l 407 847 l 400 847 q 281 805 326 847 q 201 669 236 763 q 136 675 164 669 q 86 696 108 681 q 122 813 106 742 q 144 943 138 883 q 531 939 249 939 q 922 943 797 939 z "},"Ț":{"ha":856,"x_min":86,"x_max":922,"o":"m 922 943 q 911 769 911 843 q 915 685 911 726 q 794 671 863 667 q 760 808 788 768 q 661 847 732 847 l 647 847 l 542 236 q 535 172 535 194 q 558 119 535 136 q 649 92 582 101 q 654 33 654 68 q 653 -4 654 8 q 404 0 593 0 q 129 -4 197 0 q 150 92 131 46 q 240 115 213 100 q 281 157 268 129 q 304 250 293 185 l 407 847 l 400 847 q 281 805 326 847 q 201 669 236 763 q 136 675 164 669 q 86 696 108 681 q 122 813 106 742 q 144 943 138 883 q 531 939 249 939 q 922 943 797 939 m 293 -428 q 226 -382 246 -421 q 288 -322 264 -354 q 311 -264 311 -290 q 293 -233 311 -244 q 238 -217 275 -222 q 276 -96 240 -144 q 442 -54 378 -92 q 482 -81 469 -62 q 494 -129 494 -99 q 492 -165 494 -151 q 293 -428 467 -317 z "},"Ṭ":{"ha":856,"x_min":86,"x_max":922,"o":"m 922 943 q 911 769 911 843 q 915 685 911 726 q 794 671 863 667 q 760 808 788 768 q 661 847 732 847 l 647 847 l 542 236 q 535 172 535 194 q 558 119 535 136 q 649 92 582 101 q 654 33 654 68 q 653 -4 654 8 q 404 0 593 0 q 129 -4 197 0 q 150 92 131 46 q 240 115 213 100 q 281 157 268 129 q 304 250 293 185 l 407 847 l 400 847 q 281 805 326 847 q 201 669 236 763 q 136 675 164 669 q 86 696 108 681 q 122 813 106 742 q 144 943 138 883 q 531 939 249 939 q 922 943 797 939 m 342 -331 q 256 -305 286 -331 q 225 -236 225 -279 q 228 -211 225 -228 q 276 -131 238 -158 q 371 -103 315 -103 q 456 -129 426 -103 q 486 -201 486 -156 q 485 -224 486 -215 q 437 -303 475 -276 q 342 -331 399 -331 z "},"Ṯ":{"ha":856,"x_min":86,"x_max":922,"o":"m 922 943 q 911 769 911 843 q 915 685 911 726 q 794 671 863 667 q 760 808 788 768 q 661 847 732 847 l 647 847 l 542 236 q 535 172 535 194 q 558 119 535 136 q 649 92 582 101 q 654 33 654 68 q 653 -4 654 8 q 404 0 593 0 q 129 -4 197 0 q 150 92 131 46 q 240 115 213 100 q 281 157 268 129 q 304 250 293 185 l 407 847 l 400 847 q 281 805 326 847 q 201 669 236 763 q 136 675 164 669 q 86 696 108 681 q 122 813 106 742 q 144 943 138 883 q 531 939 249 939 q 922 943 797 939 m 103 -250 q 115 -167 103 -197 l 614 -167 q 601 -242 614 -204 q 103 -250 317 -242 z "},"U":{"ha":925,"x_min":139,"x_max":1019,"o":"m 456 -12 q 214 56 289 -12 q 139 251 139 124 q 149 358 139 306 l 211 715 q 219 783 219 760 q 203 828 219 815 q 146 847 188 840 q 142 900 142 871 q 144 943 142 915 q 358 939 213 939 q 578 943 500 939 q 561 847 578 892 q 501 830 519 842 q 471 789 482 818 q 447 690 460 760 l 389 367 q 378 257 378 300 q 513 90 378 90 q 733 364 686 90 l 788 675 q 801 775 801 749 q 786 821 801 806 q 731 847 771 836 q 725 899 725 881 q 729 943 725 921 q 876 939 789 939 q 1019 943 965 939 q 1001 847 1017 893 q 942 827 960 840 q 912 779 924 814 q 886 661 900 744 l 836 376 q 772 162 813 246 q 656 33 732 78 q 456 -12 579 -12 z "},"Ú":{"ha":925,"x_min":139,"x_max":1019,"o":"m 456 -12 q 214 56 289 -12 q 139 251 139 124 q 149 358 139 306 l 211 715 q 219 783 219 760 q 203 828 219 815 q 146 847 188 840 q 142 900 142 871 q 144 943 142 915 q 358 939 213 939 q 578 943 500 939 q 561 847 578 892 q 501 830 519 842 q 471 789 482 818 q 447 690 460 760 l 389 367 q 378 257 378 300 q 513 90 378 90 q 733 364 686 90 l 788 675 q 801 775 801 749 q 786 821 801 806 q 731 847 771 836 q 725 899 725 881 q 729 943 725 921 q 876 939 789 939 q 1019 943 965 939 q 1001 847 1017 893 q 942 827 960 840 q 912 779 924 814 q 886 661 900 744 l 836 376 q 772 162 813 246 q 656 33 732 78 q 456 -12 579 -12 m 663 1015 q 550 1057 600 1022 q 613 1143 582 1093 q 657 1225 643 1193 q 717 1228 696 1228 q 868 1204 814 1228 q 663 1015 750 1100 z "},"Ŭ":{"ha":925,"x_min":139,"x_max":1019,"o":"m 456 -12 q 214 56 289 -12 q 139 251 139 124 q 149 358 139 306 l 211 715 q 219 783 219 760 q 203 828 219 815 q 146 847 188 840 q 142 900 142 871 q 144 943 142 915 q 358 939 213 939 q 578 943 500 939 q 561 847 578 892 q 501 830 519 842 q 471 789 482 818 q 447 690 460 760 l 389 367 q 378 257 378 300 q 513 90 378 90 q 733 364 686 90 l 788 675 q 801 775 801 749 q 786 821 801 806 q 731 847 771 836 q 725 899 725 881 q 729 943 725 921 q 876 939 789 939 q 1019 943 965 939 q 1001 847 1017 893 q 942 827 960 840 q 912 779 924 814 q 886 661 900 744 l 836 376 q 772 162 813 246 q 656 33 732 78 q 456 -12 579 -12 m 639 1006 q 403 1165 403 1006 q 407 1208 403 1186 q 501 1224 450 1224 q 535 1221 513 1224 q 571 1156 533 1178 q 678 1133 608 1133 q 790 1156 746 1133 q 846 1221 833 1178 q 885 1225 867 1225 q 950 1213 918 1225 q 853 1058 932 1111 q 639 1006 774 1006 z "},"Ǔ":{"ha":925,"x_min":139,"x_max":1019,"o":"m 456 -12 q 214 56 289 -12 q 139 251 139 124 q 149 358 139 306 l 211 715 q 219 783 219 760 q 203 828 219 815 q 146 847 188 840 q 142 900 142 871 q 144 943 142 915 q 358 939 213 939 q 578 943 500 939 q 561 847 578 892 q 501 830 519 842 q 471 789 482 818 q 447 690 460 760 l 389 367 q 378 257 378 300 q 513 90 378 90 q 733 364 686 90 l 788 675 q 801 775 801 749 q 786 821 801 806 q 731 847 771 836 q 725 899 725 881 q 729 943 725 921 q 876 939 789 939 q 1019 943 965 939 q 1001 847 1017 893 q 942 827 960 840 q 912 779 924 814 q 886 661 900 744 l 836 376 q 772 162 813 246 q 656 33 732 78 q 456 -12 579 -12 m 599 1011 q 415 1168 528 1088 q 504 1239 438 1233 q 679 1160 578 1194 q 871 1242 758 1178 q 911 1215 893 1235 q 939 1169 929 1194 q 704 1025 801 1092 q 628 1008 667 1008 q 599 1011 618 1008 z "},"Û":{"ha":925,"x_min":139,"x_max":1019,"o":"m 456 -12 q 214 56 289 -12 q 139 251 139 124 q 149 358 139 306 l 211 715 q 219 783 219 760 q 203 828 219 815 q 146 847 188 840 q 142 900 142 871 q 144 943 142 915 q 358 939 213 939 q 578 943 500 939 q 561 847 578 892 q 501 830 519 842 q 471 789 482 818 q 447 690 460 760 l 389 367 q 378 257 378 300 q 513 90 378 90 q 733 364 686 90 l 788 675 q 801 775 801 749 q 786 821 801 806 q 731 847 771 836 q 725 899 725 881 q 729 943 725 921 q 876 939 789 939 q 1019 943 965 939 q 1001 847 1017 893 q 942 827 960 840 q 912 779 924 814 q 886 661 900 744 l 836 376 q 772 162 813 246 q 656 33 732 78 q 456 -12 579 -12 m 479 1003 q 435 1037 453 1013 q 411 1085 417 1061 q 534 1153 468 1111 q 656 1236 600 1194 q 689 1239 678 1239 q 758 1228 725 1239 q 943 1050 824 1158 q 901 1026 928 1035 q 842 1015 874 1017 q 672 1097 746 1074 q 546 1036 618 1076 l 479 1003 z "},"Ȕ":{"ha":925,"x_min":139,"x_max":1019,"o":"m 456 -12 q 214 56 289 -12 q 139 251 139 124 q 149 358 139 306 l 211 715 q 219 783 219 760 q 203 828 219 815 q 146 847 188 840 q 142 900 142 871 q 144 943 142 915 q 358 939 213 939 q 578 943 500 939 q 561 847 578 892 q 501 830 519 842 q 471 789 482 818 q 447 690 460 760 l 389 367 q 378 257 378 300 q 513 90 378 90 q 733 364 686 90 l 788 675 q 801 775 801 749 q 786 821 801 806 q 731 847 771 836 q 725 899 725 881 q 729 943 725 921 q 876 939 789 939 q 1019 943 965 939 q 1001 847 1017 893 q 942 827 960 840 q 912 779 924 814 q 886 661 900 744 l 836 376 q 772 162 813 246 q 656 33 732 78 q 456 -12 579 -12 m 746 1051 q 661 1181 693 1138 q 760 1193 701 1193 q 829 1188 800 1193 q 892 1004 854 1081 q 831 1000 863 1000 q 776 1004 806 1000 l 746 1051 m 515 1004 q 389 1176 438 1115 q 503 1193 436 1193 q 568 1188 526 1193 q 632 1004 599 1074 q 571 1000 603 1000 q 515 1004 546 1000 z "},"Ü":{"ha":925,"x_min":139,"x_max":1019,"o":"m 456 -12 q 214 56 289 -12 q 139 251 139 124 q 149 358 139 306 l 211 715 q 219 783 219 760 q 203 828 219 815 q 146 847 188 840 q 142 900 142 871 q 144 943 142 915 q 358 939 213 939 q 578 943 500 939 q 561 847 578 892 q 501 830 519 842 q 471 789 482 818 q 447 690 460 760 l 389 367 q 378 257 378 300 q 513 90 378 90 q 733 364 686 90 l 788 675 q 801 775 801 749 q 786 821 801 806 q 731 847 771 836 q 725 899 725 881 q 729 943 725 921 q 876 939 789 939 q 1019 943 965 939 q 1001 847 1017 893 q 942 827 960 840 q 912 779 924 814 q 886 661 900 744 l 836 376 q 772 162 813 246 q 656 33 732 78 q 456 -12 579 -12 m 518 1003 q 437 1032 467 1003 q 407 1111 407 1061 q 514 1218 407 1218 q 595 1191 565 1218 q 625 1115 625 1164 q 598 1033 625 1063 q 518 1003 571 1003 m 832 1003 q 749 1031 779 1003 q 719 1110 719 1060 q 833 1218 719 1218 q 914 1190 885 1218 q 943 1113 943 1163 q 915 1031 943 1060 q 832 1003 888 1003 z "},"Ǘ":{"ha":925,"x_min":139,"x_max":1019,"o":"m 456 -12 q 214 56 289 -12 q 139 251 139 124 q 149 358 139 306 l 211 715 q 219 783 219 760 q 203 828 219 815 q 146 847 188 840 q 142 900 142 871 q 144 943 142 915 q 358 939 213 939 q 578 943 500 939 q 561 847 578 892 q 501 830 519 842 q 471 789 482 818 q 447 690 460 760 l 389 367 q 378 257 378 300 q 513 90 378 90 q 733 364 686 90 l 788 675 q 801 775 801 749 q 786 821 801 806 q 731 847 771 836 q 725 899 725 881 q 729 943 725 921 q 876 939 789 939 q 1019 943 965 939 q 1001 847 1017 893 q 942 827 960 840 q 912 779 924 814 q 886 661 900 744 l 836 376 q 772 162 813 246 q 656 33 732 78 q 456 -12 579 -12 m 518 1003 q 437 1032 467 1003 q 407 1111 407 1061 q 514 1218 407 1218 q 595 1191 565 1218 q 625 1115 625 1164 q 598 1033 625 1063 q 518 1003 571 1003 m 832 1003 q 749 1031 779 1003 q 719 1110 719 1060 q 833 1218 719 1218 q 914 1190 885 1218 q 943 1113 943 1163 q 915 1031 943 1060 q 832 1003 888 1003 m 703 1258 q 590 1300 640 1265 q 653 1386 622 1336 q 697 1468 683 1436 q 757 1471 736 1471 q 908 1447 854 1471 q 703 1258 790 1343 z "},"Ǚ":{"ha":925,"x_min":139,"x_max":1019,"o":"m 456 -12 q 214 56 289 -12 q 139 251 139 124 q 149 358 139 306 l 211 715 q 219 783 219 760 q 203 828 219 815 q 146 847 188 840 q 142 900 142 871 q 144 943 142 915 q 358 939 213 939 q 578 943 500 939 q 561 847 578 892 q 501 830 519 842 q 471 789 482 818 q 447 690 460 760 l 389 367 q 378 257 378 300 q 513 90 378 90 q 733 364 686 90 l 788 675 q 801 775 801 749 q 786 821 801 806 q 731 847 771 836 q 725 899 725 881 q 729 943 725 921 q 876 939 789 939 q 1019 943 965 939 q 1001 847 1017 893 q 942 827 960 840 q 912 779 924 814 q 886 661 900 744 l 836 376 q 772 162 813 246 q 656 33 732 78 q 456 -12 579 -12 m 518 1003 q 437 1032 467 1003 q 407 1111 407 1061 q 514 1218 407 1218 q 595 1191 565 1218 q 625 1115 625 1164 q 598 1033 625 1063 q 518 1003 571 1003 m 832 1003 q 749 1031 779 1003 q 719 1110 719 1060 q 833 1218 719 1218 q 914 1190 885 1218 q 943 1113 943 1163 q 915 1031 943 1060 q 832 1003 888 1003 m 639 1254 q 456 1411 568 1331 q 544 1482 478 1476 q 719 1403 618 1438 q 911 1485 799 1421 q 951 1458 933 1478 q 979 1413 969 1438 q 744 1268 842 1335 q 668 1251 707 1251 q 639 1254 658 1251 z "},"Ǜ":{"ha":925,"x_min":139,"x_max":1019,"o":"m 456 -12 q 214 56 289 -12 q 139 251 139 124 q 149 358 139 306 l 211 715 q 219 783 219 760 q 203 828 219 815 q 146 847 188 840 q 142 900 142 871 q 144 943 142 915 q 358 939 213 939 q 578 943 500 939 q 561 847 578 892 q 501 830 519 842 q 471 789 482 818 q 447 690 460 760 l 389 367 q 378 257 378 300 q 513 90 378 90 q 733 364 686 90 l 788 675 q 801 775 801 749 q 786 821 801 806 q 731 847 771 836 q 725 899 725 881 q 729 943 725 921 q 876 939 789 939 q 1019 943 965 939 q 1001 847 1017 893 q 942 827 960 840 q 912 779 924 814 q 886 661 900 744 l 836 376 q 772 162 813 246 q 656 33 732 78 q 456 -12 579 -12 m 518 1003 q 437 1032 467 1003 q 407 1111 407 1061 q 514 1218 407 1218 q 595 1191 565 1218 q 625 1115 625 1164 q 598 1033 625 1063 q 518 1003 571 1003 m 832 1003 q 749 1031 779 1003 q 719 1110 719 1060 q 833 1218 719 1218 q 914 1190 885 1218 q 943 1113 943 1163 q 915 1031 943 1060 q 832 1003 888 1003 m 779 1271 q 715 1264 751 1264 q 644 1272 674 1264 q 586 1353 625 1306 q 510 1438 547 1400 q 644 1456 585 1456 q 711 1450 682 1456 q 779 1271 738 1349 z "},"Ǖ":{"ha":925,"x_min":139,"x_max":1019,"o":"m 456 -12 q 214 56 289 -12 q 139 251 139 124 q 149 358 139 306 l 211 715 q 219 783 219 760 q 203 828 219 815 q 146 847 188 840 q 142 900 142 871 q 144 943 142 915 q 358 939 213 939 q 578 943 500 939 q 561 847 578 892 q 501 830 519 842 q 471 789 482 818 q 447 690 460 760 l 389 367 q 378 257 378 300 q 513 90 378 90 q 733 364 686 90 l 788 675 q 801 775 801 749 q 786 821 801 806 q 731 847 771 836 q 725 899 725 881 q 729 943 725 921 q 876 939 789 939 q 1019 943 965 939 q 1001 847 1017 893 q 942 827 960 840 q 912 779 924 814 q 886 661 900 744 l 836 376 q 772 162 813 246 q 656 33 732 78 q 456 -12 579 -12 m 518 1003 q 437 1032 467 1003 q 407 1111 407 1061 q 514 1218 407 1218 q 595 1191 565 1218 q 625 1115 625 1164 q 598 1033 625 1063 q 518 1003 571 1003 m 832 1003 q 749 1031 779 1003 q 719 1110 719 1060 q 833 1218 719 1218 q 914 1190 885 1218 q 943 1113 943 1163 q 915 1031 943 1060 q 832 1003 888 1003 m 458 1306 q 471 1389 458 1358 l 969 1389 q 957 1314 969 1354 q 458 1306 672 1314 z "},"Ụ":{"ha":925,"x_min":139,"x_max":1019,"o":"m 456 -12 q 214 56 289 -12 q 139 251 139 124 q 149 358 139 306 l 211 715 q 219 783 219 760 q 203 828 219 815 q 146 847 188 840 q 142 900 142 871 q 144 943 142 915 q 358 939 213 939 q 578 943 500 939 q 561 847 578 892 q 501 830 519 842 q 471 789 482 818 q 447 690 460 760 l 389 367 q 378 257 378 300 q 513 90 378 90 q 733 364 686 90 l 788 675 q 801 775 801 749 q 786 821 801 806 q 731 847 771 836 q 725 899 725 881 q 729 943 725 921 q 876 939 789 939 q 1019 943 965 939 q 1001 847 1017 893 q 942 827 960 840 q 912 779 924 814 q 886 661 900 744 l 836 376 q 772 162 813 246 q 656 33 732 78 q 456 -12 579 -12 m 424 -331 q 338 -305 368 -331 q 307 -236 307 -279 q 310 -211 307 -228 q 358 -131 319 -158 q 453 -103 397 -103 q 538 -129 508 -103 q 568 -201 568 -156 q 567 -224 568 -215 q 519 -303 557 -276 q 424 -331 481 -331 z "},"Ù":{"ha":925,"x_min":139,"x_max":1019,"o":"m 456 -12 q 214 56 289 -12 q 139 251 139 124 q 149 358 139 306 l 211 715 q 219 783 219 760 q 203 828 219 815 q 146 847 188 840 q 142 900 142 871 q 144 943 142 915 q 358 939 213 939 q 578 943 500 939 q 561 847 578 892 q 501 830 519 842 q 471 789 482 818 q 447 690 460 760 l 389 367 q 378 257 378 300 q 513 90 378 90 q 733 364 686 90 l 788 675 q 801 775 801 749 q 786 821 801 806 q 731 847 771 836 q 725 899 725 881 q 729 943 725 921 q 876 939 789 939 q 1019 943 965 939 q 1001 847 1017 893 q 942 827 960 840 q 912 779 924 814 q 886 661 900 744 l 836 376 q 772 162 813 246 q 656 33 732 78 q 456 -12 579 -12 m 739 1028 q 675 1021 711 1021 q 604 1029 633 1021 q 546 1110 585 1063 q 469 1194 507 1157 q 604 1213 544 1213 q 671 1207 642 1213 q 739 1028 697 1106 z "},"Ủ":{"ha":925,"x_min":139,"x_max":1019,"o":"m 456 -12 q 214 56 289 -12 q 139 251 139 124 q 149 358 139 306 l 211 715 q 219 783 219 760 q 203 828 219 815 q 146 847 188 840 q 142 900 142 871 q 144 943 142 915 q 358 939 213 939 q 578 943 500 939 q 561 847 578 892 q 501 830 519 842 q 471 789 482 818 q 447 690 460 760 l 389 367 q 378 257 378 300 q 513 90 378 90 q 733 364 686 90 l 788 675 q 801 775 801 749 q 786 821 801 806 q 731 847 771 836 q 725 899 725 881 q 729 943 725 921 q 876 939 789 939 q 1019 943 965 939 q 1001 847 1017 893 q 942 827 960 840 q 912 779 924 814 q 886 661 900 744 l 836 376 q 772 162 813 246 q 656 33 732 78 q 456 -12 579 -12 m 613 1008 q 607 1035 607 1022 q 622 1083 607 1067 q 667 1114 638 1099 q 697 1133 686 1125 q 713 1153 707 1140 q 715 1165 715 1161 q 706 1181 715 1175 q 682 1188 697 1188 q 607 1108 628 1188 q 518 1125 547 1108 q 538 1217 538 1174 q 617 1242 572 1232 q 706 1251 661 1251 q 805 1231 771 1251 q 839 1175 839 1211 q 835 1149 839 1164 q 805 1099 825 1117 q 754 1067 785 1082 q 722 1048 733 1057 q 707 1026 711 1039 q 706 1001 701 1013 q 674 999 686 999 q 613 1008 633 999 z "},"Ư":{"ha":1008,"x_min":139,"x_max":1181,"o":"m 1158 1106 q 1181 1029 1181 1074 q 1126 906 1181 957 q 989 844 1072 856 q 938 824 954 838 q 910 776 921 810 q 886 661 900 742 l 836 376 q 772 162 813 246 q 656 33 732 78 q 456 -12 579 -12 q 214 56 289 -12 q 139 251 139 124 q 149 358 139 306 l 211 715 q 219 783 219 760 q 203 828 219 815 q 146 847 188 840 q 142 900 142 871 q 144 943 142 915 q 358 939 213 939 q 578 943 500 939 q 561 847 578 892 q 501 830 519 842 q 471 789 482 818 q 447 690 460 760 l 389 367 q 378 257 378 300 q 513 90 378 90 q 733 364 686 90 l 788 675 q 801 775 801 749 q 786 821 801 806 q 731 847 771 836 q 725 899 725 881 q 729 943 725 921 q 826 940 765 940 l 876 940 l 921 940 q 995 958 972 940 q 1025 1013 1018 975 q 1029 1057 1029 1038 q 1026 1089 1029 1069 q 1129 1107 1072 1107 q 1158 1106 1149 1107 z "},"Ứ":{"ha":1008,"x_min":139,"x_max":1181,"o":"m 1158 1106 q 1181 1029 1181 1074 q 1126 906 1181 957 q 989 844 1072 856 q 938 824 954 838 q 910 776 921 810 q 886 661 900 742 l 836 376 q 772 162 813 246 q 656 33 732 78 q 456 -12 579 -12 q 214 56 289 -12 q 139 251 139 124 q 149 358 139 306 l 211 715 q 219 783 219 760 q 203 828 219 815 q 146 847 188 840 q 142 900 142 871 q 144 943 142 915 q 358 939 213 939 q 578 943 500 939 q 561 847 578 892 q 501 830 519 842 q 471 789 482 818 q 447 690 460 760 l 389 367 q 378 257 378 300 q 513 90 378 90 q 733 364 686 90 l 788 675 q 801 775 801 749 q 786 821 801 806 q 731 847 771 836 q 725 899 725 881 q 729 943 725 921 q 826 940 765 940 l 876 940 l 921 940 q 995 958 972 940 q 1025 1013 1018 975 q 1029 1057 1029 1038 q 1026 1089 1029 1069 q 1129 1107 1072 1107 q 1158 1106 1149 1107 m 663 1015 q 550 1057 600 1022 q 613 1143 582 1093 q 657 1225 643 1193 q 717 1228 696 1228 q 868 1204 814 1228 q 663 1015 750 1100 z "},"Ự":{"ha":1008,"x_min":139,"x_max":1181,"o":"m 1158 1106 q 1181 1029 1181 1074 q 1126 906 1181 957 q 989 844 1072 856 q 938 824 954 838 q 910 776 921 810 q 886 661 900 742 l 836 376 q 772 162 813 246 q 656 33 732 78 q 456 -12 579 -12 q 214 56 289 -12 q 139 251 139 124 q 149 358 139 306 l 211 715 q 219 783 219 760 q 203 828 219 815 q 146 847 188 840 q 142 900 142 871 q 144 943 142 915 q 358 939 213 939 q 578 943 500 939 q 561 847 578 892 q 501 830 519 842 q 471 789 482 818 q 447 690 460 760 l 389 367 q 378 257 378 300 q 513 90 378 90 q 733 364 686 90 l 788 675 q 801 775 801 749 q 786 821 801 806 q 731 847 771 836 q 725 899 725 881 q 729 943 725 921 q 826 940 765 940 l 876 940 l 921 940 q 995 958 972 940 q 1025 1013 1018 975 q 1029 1057 1029 1038 q 1026 1089 1029 1069 q 1129 1107 1072 1107 q 1158 1106 1149 1107 m 424 -331 q 338 -305 368 -331 q 307 -236 307 -279 q 310 -211 307 -228 q 358 -131 319 -158 q 453 -103 397 -103 q 538 -129 508 -103 q 568 -201 568 -156 q 567 -224 568 -215 q 519 -303 557 -276 q 424 -331 481 -331 z "},"Ừ":{"ha":1008,"x_min":139,"x_max":1181,"o":"m 1158 1106 q 1181 1029 1181 1074 q 1126 906 1181 957 q 989 844 1072 856 q 938 824 954 838 q 910 776 921 810 q 886 661 900 742 l 836 376 q 772 162 813 246 q 656 33 732 78 q 456 -12 579 -12 q 214 56 289 -12 q 139 251 139 124 q 149 358 139 306 l 211 715 q 219 783 219 760 q 203 828 219 815 q 146 847 188 840 q 142 900 142 871 q 144 943 142 915 q 358 939 213 939 q 578 943 500 939 q 561 847 578 892 q 501 830 519 842 q 471 789 482 818 q 447 690 460 760 l 389 367 q 378 257 378 300 q 513 90 378 90 q 733 364 686 90 l 788 675 q 801 775 801 749 q 786 821 801 806 q 731 847 771 836 q 725 899 725 881 q 729 943 725 921 q 826 940 765 940 l 876 940 l 921 940 q 995 958 972 940 q 1025 1013 1018 975 q 1029 1057 1029 1038 q 1026 1089 1029 1069 q 1129 1107 1072 1107 q 1158 1106 1149 1107 m 739 1028 q 675 1021 711 1021 q 604 1029 633 1021 q 546 1110 585 1063 q 469 1194 507 1157 q 604 1213 544 1213 q 671 1207 642 1213 q 739 1028 697 1106 z "},"Ử":{"ha":1008,"x_min":139,"x_max":1181,"o":"m 1158 1106 q 1181 1029 1181 1074 q 1126 906 1181 957 q 989 844 1072 856 q 938 824 954 838 q 910 776 921 810 q 886 661 900 742 l 836 376 q 772 162 813 246 q 656 33 732 78 q 456 -12 579 -12 q 214 56 289 -12 q 139 251 139 124 q 149 358 139 306 l 211 715 q 219 783 219 760 q 203 828 219 815 q 146 847 188 840 q 142 900 142 871 q 144 943 142 915 q 358 939 213 939 q 578 943 500 939 q 561 847 578 892 q 501 830 519 842 q 471 789 482 818 q 447 690 460 760 l 389 367 q 378 257 378 300 q 513 90 378 90 q 733 364 686 90 l 788 675 q 801 775 801 749 q 786 821 801 806 q 731 847 771 836 q 725 899 725 881 q 729 943 725 921 q 826 940 765 940 l 876 940 l 921 940 q 995 958 972 940 q 1025 1013 1018 975 q 1029 1057 1029 1038 q 1026 1089 1029 1069 q 1129 1107 1072 1107 q 1158 1106 1149 1107 m 613 1008 q 607 1035 607 1022 q 622 1083 607 1067 q 667 1114 638 1099 q 697 1133 686 1125 q 713 1153 707 1140 q 715 1165 715 1161 q 706 1181 715 1175 q 682 1188 697 1188 q 607 1108 628 1188 q 518 1125 547 1108 q 538 1217 538 1174 q 617 1242 572 1232 q 706 1251 661 1251 q 805 1231 771 1251 q 839 1175 839 1211 q 835 1149 839 1164 q 805 1099 825 1117 q 754 1067 785 1082 q 722 1048 733 1057 q 707 1026 711 1039 q 706 1001 701 1013 q 674 999 686 999 q 613 1008 633 999 z "},"Ữ":{"ha":1008,"x_min":139,"x_max":1181,"o":"m 1158 1106 q 1181 1029 1181 1074 q 1126 906 1181 957 q 989 844 1072 856 q 938 824 954 838 q 910 776 921 810 q 886 661 900 742 l 836 376 q 772 162 813 246 q 656 33 732 78 q 456 -12 579 -12 q 214 56 289 -12 q 139 251 139 124 q 149 358 139 306 l 211 715 q 219 783 219 760 q 203 828 219 815 q 146 847 188 840 q 142 900 142 871 q 144 943 142 915 q 358 939 213 939 q 578 943 500 939 q 561 847 578 892 q 501 830 519 842 q 471 789 482 818 q 447 690 460 760 l 389 367 q 378 257 378 300 q 513 90 378 90 q 733 364 686 90 l 788 675 q 801 775 801 749 q 786 821 801 806 q 731 847 771 836 q 725 899 725 881 q 729 943 725 921 q 826 940 765 940 l 876 940 l 921 940 q 995 958 972 940 q 1025 1013 1018 975 q 1029 1057 1029 1038 q 1026 1089 1029 1069 q 1129 1107 1072 1107 q 1158 1106 1149 1107 m 736 1025 q 677 1034 700 1025 q 626 1061 654 1043 q 590 1082 606 1075 q 554 1089 575 1089 q 433 1028 500 1089 q 411 1069 418 1050 q 404 1114 404 1089 l 406 1135 q 505 1199 451 1179 q 606 1219 558 1219 q 664 1210 639 1219 q 718 1185 689 1201 q 758 1166 743 1172 q 792 1160 774 1160 q 886 1215 842 1160 q 956 1154 936 1193 q 853 1058 910 1090 q 736 1025 797 1025 z "},"Ű":{"ha":925,"x_min":139,"x_max":1046,"o":"m 456 -12 q 214 56 289 -12 q 139 251 139 124 q 149 358 139 306 l 211 715 q 219 783 219 760 q 203 828 219 815 q 146 847 188 840 q 142 900 142 871 q 144 943 142 915 q 358 939 213 939 q 578 943 500 939 q 561 847 578 892 q 501 830 519 842 q 471 789 482 818 q 447 690 460 760 l 389 367 q 378 257 378 300 q 513 90 378 90 q 733 364 686 90 l 788 675 q 801 775 801 749 q 786 821 801 806 q 731 847 771 836 q 725 899 725 881 q 729 943 725 921 q 876 939 789 939 q 1019 943 965 939 q 1001 847 1017 893 q 942 827 960 840 q 912 779 924 814 q 886 661 900 744 l 836 376 q 772 162 813 246 q 656 33 732 78 q 456 -12 579 -12 m 579 1021 q 465 1064 517 1028 q 526 1143 497 1096 q 571 1222 556 1190 q 635 1225 592 1225 q 783 1201 732 1225 l 579 1021 m 843 1021 q 729 1064 781 1028 q 790 1143 761 1096 q 835 1222 819 1190 q 899 1225 856 1225 q 1046 1201 994 1225 l 890 1063 l 843 1021 z "},"Ȗ":{"ha":925,"x_min":139,"x_max":1019,"o":"m 456 -12 q 214 56 289 -12 q 139 251 139 124 q 149 358 139 306 l 211 715 q 219 783 219 760 q 203 828 219 815 q 146 847 188 840 q 142 900 142 871 q 144 943 142 915 q 358 939 213 939 q 578 943 500 939 q 561 847 578 892 q 501 830 519 842 q 471 789 482 818 q 447 690 460 760 l 389 367 q 378 257 378 300 q 513 90 378 90 q 733 364 686 90 l 788 675 q 801 775 801 749 q 786 821 801 806 q 731 847 771 836 q 725 899 725 881 q 729 943 725 921 q 876 939 789 939 q 1019 943 965 939 q 1001 847 1017 893 q 942 827 960 840 q 912 779 924 814 q 886 661 900 744 l 836 376 q 772 162 813 246 q 656 33 732 78 q 456 -12 579 -12 m 713 1217 q 949 1057 949 1217 q 944 1014 949 1038 q 856 999 906 999 q 818 1001 843 999 q 781 1067 818 1044 q 674 1089 743 1089 q 562 1067 606 1089 q 506 1001 518 1044 q 465 997 485 997 q 401 1010 426 997 q 499 1164 419 1111 q 713 1217 578 1217 z "},"Ū":{"ha":925,"x_min":139,"x_max":1019,"o":"m 456 -12 q 214 56 289 -12 q 139 251 139 124 q 149 358 139 306 l 211 715 q 219 783 219 760 q 203 828 219 815 q 146 847 188 840 q 142 900 142 871 q 144 943 142 915 q 358 939 213 939 q 578 943 500 939 q 561 847 578 892 q 501 830 519 842 q 471 789 482 818 q 447 690 460 760 l 389 367 q 378 257 378 300 q 513 90 378 90 q 733 364 686 90 l 788 675 q 801 775 801 749 q 786 821 801 806 q 731 847 771 836 q 725 899 725 881 q 729 943 725 921 q 876 939 789 939 q 1019 943 965 939 q 1001 847 1017 893 q 942 827 960 840 q 912 779 924 814 q 886 661 900 744 l 836 376 q 772 162 813 246 q 656 33 732 78 q 456 -12 579 -12 m 418 1063 q 431 1146 418 1115 l 929 1146 q 917 1071 929 1111 q 418 1063 632 1071 z "}}}
